#VRML V2.0 utf8
# 3D model generated by easyeda2kicad.py (https://github.com/uPesy/easyeda2kicad.py)

Shape{
    appearance Appearance {
        material  Material 	{
            diffuseColor 1.0 1.0 1.0
            specularColor 0.5019607843137255 0.5019607843137255 0.5019607843137255
            ambientIntensity 1.0
            transparency 0.0
            shininess 0.5
        }
    }
    geometry IndexedFaceSet {
        ccw TRUE
        solid FALSE
        coord DEF co Coordinate {
            point [
                -0.4385 -0.6602 0.2639, -0.44 -0.6603 0.2637, -0.4307 -0.6603 0.2637, -0.3792 -0.6597 0.2682, -0.3792 -0.6602 0.264, -0.3757 -0.6603 0.2637, -0.38 -0.6562 0.2966, -0.3757 -0.6544 0.3113, -0.3874 -0.6603 0.2637, -0.3943 -0.6582 0.2806, -0.3943 -0.6597 0.2682, -0.3874 -0.6582 0.2806, -0.3874 -0.6597 0.2682, -0.3811 -0.6582 0.2806, -0.3811 -0.6577 0.2848, -0.3874 -0.6577 0.2848, -0.3874 -0.6562 0.2966, -0.3943 -0.6577 0.2848, -0.3943 -0.6562 0.2966, -0.3874 -0.6602 0.264, -0.3991 -0.6602 0.264, -0.4016 -0.6603 0.2637, -0.3991 -0.6557 0.3008, -0.3621 -0.6518 0.3324, -0.3757 -0.6518 0.3324, -0.3583 -0.6531 0.3224, -0.353 -0.6531 0.3224, -0.3671 -0.6485 0.3592, 0.4416 -0.653 0.3228, 0.6706 -0.6544 0.3113, 0.6691 -0.653 0.3228, 0.4461 -0.6485 0.3595, -0.3757 -0.6485 0.3595, -0.3722 -0.6485 0.3592, -0.3757 -0.6496 0.3502, -0.362 -0.6602 0.264, -0.3722 -0.6602 0.264, -0.3722 -0.6557 0.3008, -0.3421 -0.6582 0.2805, -0.343 -0.6587 0.2762, -0.3399 -0.6602 0.264, -0.3448 -0.6592 0.2724, -0.3476 -0.6596 0.2692, -0.3258 -0.6557 0.3008, -0.3207 -0.6557 0.3008, -0.342 -0.6579 0.2829, -0.3426 -0.6573 0.2879, -0.3476 -0.6563 0.2959, -0.3463 -0.6565 0.2947, -0.344 -0.6568 0.2915, 0.6764 -0.6603 0.2637, -0.3066 -0.6602 0.264, -0.3119 -0.6602 0.264, -0.3616 -0.6557 0.3008, -0.3559 -0.6558 0.3002, -0.3515 -0.656 0.2986, -0.3757 -0.662 0.2491, 0.6782 -0.662 0.2491, 0.6933 -0.6772 0.126, -0.3757 -0.6772 0.126, -0.3874 -0.6772 0.126, -0.7318 -0.6456 0.383, -0.7347 -0.6485 0.3595, -0.7318 -0.6485 0.3595, -0.7406 -0.6544 0.3113, -0.7318 -0.6544 0.3113, -0.7465 -0.6603 0.2637, -0.7318 -0.6603 0.2637, -0.7483 -0.662 0.2491, -0.7318 -0.662 0.2491, -0.7634 -0.6772 0.126, -0.7318 -0.6772 0.126, -0.5955 -0.6475 0.3674, -0.517 -0.6429 0.405, -0.6083 -0.6473 0.369, -0.7291 -0.6429 0.405, -0.6199 -0.6475 0.3678, -0.4477 -0.6485 0.3595, -0.4578 -0.6485 0.3595, -0.4569 -0.6485 0.3594, -0.453 -0.6486 0.3583, -0.453 -0.6493 0.3533, -0.4477 -0.6544 0.3113, -0.4534 -0.6492 0.3535, -0.453 -0.6523 0.3284, -0.4571 -0.6491 0.355, -0.4617 -0.649 0.3555, -0.4635 -0.649 0.3554, -0.4667 -0.6491 0.3547, -0.4696 -0.6493 0.3533, -0.4718 -0.6495 0.3514, -0.472 -0.6495 0.3511, -0.4738 -0.6498 0.3486, -0.453 -0.6529 0.3239, -0.4536 -0.6529 0.3236, -0.4695 -0.653 0.3227, -0.473 -0.6528 0.3243, -0.4791 -0.6544 0.3113, -0.476 -0.6525 0.3268, -0.4763 -0.6525 0.3271, -0.4751 -0.6502 0.3454, -0.4757 -0.6508 0.3404, -0.4756 -0.6511 0.3386, -0.475 -0.6515 0.335, -0.4608 -0.6526 0.326, -0.4566 -0.6525 0.3268, -0.4689 -0.6524 0.3274, -0.4662 -0.6526 0.3264, -0.4625 -0.6526 0.326, -0.4576 -0.6531 0.3223, -0.4632 -0.6531 0.3218, -0.4655 -0.6531 0.3219, -0.4737 -0.6519 0.3321, -0.472 -0.6521 0.3299, -0.4713 -0.6522 0.3291, -0.4617 -0.6485 0.3598, -0.4477 -0.6429 0.405, -0.4643 -0.6485 0.3595, -0.4791 -0.6429 0.405, -0.4791 -0.6485 0.3595, -0.478 -0.6496 0.3509, -0.4754 -0.6491 0.3544, -0.4744 -0.649 0.3552, -0.471 -0.6487 0.3576, -0.4671 -0.6485 0.3591, -0.4785 -0.6521 0.3302, -0.4791 -0.6519 0.3317, -0.4813 -0.6544 0.3113, -0.4813 -0.6485 0.3595, -0.4798 -0.6501 0.3468, -0.4791 -0.6498 0.3485, -0.48 -0.6516 0.3341, -0.4807 -0.6509 0.3401, -0.4806 -0.6506 0.342, -0.4264 -0.6485 0.3592, -0.4221 -0.6485 0.3595, -0.4307 -0.6485 0.3595, -0.4408 -0.651 0.3389, -0.4408 -0.6525 0.3266, -0.4307 -0.651 0.3389, -0.4307 -0.6525 0.3266, -0.4275 -0.651 0.3389, -0.4256 -0.6525 0.3266, -0.4275 -0.6505 0.3432, -0.4264 -0.6491 0.3549, -0.4307 -0.6505 0.3432, -0.4307 -0.6491 0.3549, -0.4408 -0.6505 0.3432, -0.4408 -0.6491 0.3549, -0.4221 -0.6544 0.3113, -0.4256 -0.6531 0.3224, -0.4307 -0.6544 0.3113, -0.4307 -0.6531 0.3224, -0.4455 -0.6531 0.3224, -0.4455 -0.6485 0.3592, -0.4307 -0.6485 0.3592, -0.4084 -0.6531 0.3224, -0.4186 -0.6531 0.3224, -0.408 -0.6485 0.3592, -0.4016 -0.6485 0.3595, -0.4186 -0.6485 0.3592, -0.3894 -0.6516 0.3346, -0.3913 -0.652 0.3308, -0.3874 -0.6544 0.3113, -0.3885 -0.651 0.3389, -0.3874 -0.6485 0.3595, -0.389 -0.6501 0.3463, -0.3884 -0.6507 0.3412, -0.394 -0.6524 0.3275, -0.3979 -0.6528 0.3248, -0.4016 -0.6544 0.3113, -0.4016 -0.6529 0.3233, -0.4021 -0.653 0.3231, -0.394 -0.6491 0.3543, -0.3927 -0.6493 0.353, -0.3904 -0.6497 0.3498, -0.4024 -0.6486 0.3585, -0.4016 -0.6486 0.3583, -0.3979 -0.6488 0.3569, -0.3864 -0.6531 0.3224, -0.3811 -0.6531 0.3224, -0.3775 -0.6518 0.3324, -0.4646 -0.6602 0.2644, -0.4664 -0.6603 0.2637, -0.4608 -0.6602 0.264, -0.4646 -0.6574 0.287, -0.4661 -0.6574 0.2871, -0.4686 -0.6583 0.2796, -0.4635 -0.6601 0.2651, -0.4791 -0.6603 0.2637, -0.4766 -0.6598 0.2674, -0.4772 -0.6596 0.2689, -0.4757 -0.6587 0.2764, -0.4743 -0.6585 0.2776, -0.4748 -0.6578 0.284, -0.4724 -0.6584 0.2786, -0.4716 -0.6575 0.286, -0.4687 -0.6574 0.2869, -0.4736 -0.6602 0.2644, -0.4718 -0.6603 0.2637, -0.4717 -0.6603 0.2637, -0.4751 -0.66 0.2655, -0.4756 -0.66 0.266, -0.4774 -0.6594 0.271, -0.4772 -0.6591 0.2732, -0.4608 -0.6597 0.2681, -0.4609 -0.6597 0.2681, -0.462 -0.6599 0.2665, -0.4738 -0.6572 0.289, -0.4748 -0.6572 0.2884, -0.4766 -0.6589 0.2749, -0.4485 -0.6584 0.279, -0.4491 -0.6583 0.28, -0.4561 -0.6581 0.2809, -0.4496 -0.6581 0.2814, -0.4566 -0.6577 0.2848, -0.4498 -0.6579 0.2832, -0.4608 -0.6582 0.2807, -0.4609 -0.6579 0.2827, -0.4614 -0.6577 0.2844, -0.462 -0.6576 0.2853, -0.4607 -0.657 0.2899, -0.4592 -0.6571 0.289, -0.4482 -0.6573 0.2876, -0.4477 -0.6585 0.2782, -0.4498 -0.6595 0.2697, -0.4477 -0.6585 0.2782, -0.4479 -0.6597 0.2685, -0.4477 -0.6597 0.2684, -0.4704 -0.657 0.2903, -0.4657 -0.6569 0.2909, -0.4626 -0.657 0.2906, -0.4496 -0.6577 0.2848, -0.4491 -0.6575 0.2863, -0.4573 -0.6574 0.2867, -0.4583 -0.6573 0.2882, -0.4627 -0.6575 0.2861, -0.4635 -0.6574 0.2866, -0.469 -0.6603 0.2634, -0.4791 -0.662 0.2491, -0.4664 -0.6603 0.2637, -0.4477 -0.662 0.2491, -0.4498 -0.6601 0.2649, -0.4561 -0.6602 0.264, -0.4477 -0.6602 0.2641, -0.4477 -0.6603 0.2637, -0.4471 -0.6602 0.2639, -0.4453 -0.6603 0.2637, -0.4426 -0.6603 0.2634, -0.4332 -0.6571 0.2897, -0.4332 -0.6576 0.2852, -0.4468 -0.6572 0.2888, -0.4452 -0.6571 0.2897, -0.4477 -0.6573 0.288, -0.4322 -0.6596 0.2693, -0.4327 -0.6597 0.2678, -0.4336 -0.6599 0.2666, -0.4426 -0.657 0.2906, -0.4395 -0.6569 0.2909, -0.4362 -0.657 0.2906, -0.4335 -0.6588 0.2755, -0.4326 -0.659 0.2742, -0.4321 -0.6591 0.2729, -0.4319 -0.6593 0.2712, -0.4349 -0.66 0.2655, -0.436 -0.6601 0.2648, -0.4399 -0.6574 0.2871, -0.4413 -0.6574 0.287, -0.445 -0.6578 0.2836, -0.4426 -0.6574 0.2867, -0.4436 -0.6575 0.2862, -0.445 -0.6579 0.283, -0.4448 -0.658 0.2823, -0.4445 -0.6581 0.2817, -0.444 -0.6581 0.2812, -0.4424 -0.6582 0.2801, -0.4371 -0.6574 0.2868, -0.4395 -0.6584 0.2789, -0.4344 -0.6575 0.2859, -0.4377 -0.6585 0.2782, -0.4346 -0.6587 0.2765, -0.4443 -0.6576 0.2855, -0.4447 -0.6576 0.285, -0.4449 -0.6577 0.2843, -0.445 -0.6598 0.2675, -0.4428 -0.6588 0.2756, -0.4455 -0.6586 0.2768, -0.4422 -0.6598 0.2671, -0.442 -0.6598 0.2671, -0.4397 -0.659 0.2743, -0.4396 -0.6598 0.2674, -0.4367 -0.6594 0.2707, -0.4368 -0.6593 0.2713, -0.4384 -0.6597 0.2678, -0.438 -0.6597 0.2681, -0.4375 -0.6597 0.2686, -0.437 -0.6596 0.2692, -0.4368 -0.6595 0.2698, -0.437 -0.6592 0.272, -0.4373 -0.6592 0.2726, -0.4379 -0.6591 0.2732, -0.4089 -0.657 0.2903, -0.4041 -0.657 0.2903, -0.3874 -0.6557 0.3008, -0.38 -0.6557 0.3008, -0.4174 -0.6594 0.2705, -0.4169 -0.6597 0.2684, -0.4167 -0.6597 0.2684, -0.4221 -0.6578 0.2839, -0.4162 -0.6594 0.2705, -0.4165 -0.6596 0.2693, -0.4221 -0.6603 0.2637, -0.4221 -0.6593 0.2715, -0.4295 -0.657 0.2903, -0.4243 -0.657 0.2903, -0.4191 -0.6602 0.2641, -0.4193 -0.6603 0.2637, -0.4212 -0.6608 0.2593, -0.4307 -0.662 0.2491, -0.4286 -0.6617 0.252, -0.4286 -0.6612 0.2561, -0.423 -0.6611 0.2566, -0.4221 -0.661 0.2576, -0.4221 -0.661 0.2576, -0.4276 -0.6612 0.2558, -0.4259 -0.6613 0.2556, -0.4221 -0.6616 0.2524, -0.4237 -0.6617 0.2518, -0.4221 -0.662 0.2491, -0.4256 -0.6617 0.2516, -0.4266 -0.6617 0.2517, -0.4248 -0.6612 0.2557, -0.4237 -0.6612 0.2561, -0.4161 -0.6607 0.26, -0.4182 -0.6612 0.256, -0.4016 -0.662 0.2491, -0.4147 -0.6603 0.2637, -0.4199 -0.6615 0.2539, -0.4203 -0.6615 0.2537, -0.4219 -0.6616 0.2525, -0.5824 -0.6481 0.3623, -0.5783 -0.6485 0.3595, -0.517 -0.6485 0.3595, -0.5725 -0.649 0.3554, -0.5632 -0.6503 0.3445, -0.5342 -0.6544 0.3113, -0.517 -0.6544 0.3113, -0.5366 -0.6537 0.317, -0.5419 -0.6528 0.3245, -0.5491 -0.6521 0.3305, -0.5582 -0.6515 0.3348, -0.5569 -0.6516 0.3343, -0.6679 -0.6501 0.3466, -0.6576 -0.6499 0.3478, -0.7002 -0.6548 0.308, -0.6996 -0.6544 0.3113, -0.6984 -0.6536 0.3178, -0.6942 -0.6525 0.3273, -0.6879 -0.6515 0.3353, -0.6321 -0.648 0.3635, -0.6389 -0.6485 0.3595, -0.6399 -0.6486 0.3588, -0.6461 -0.6492 0.3536, -0.6546 -0.6499 0.3477, -0.6515 -0.65 0.3473, -0.686 -0.6513 0.337, -0.6776 -0.6505 0.3429, -0.6681 -0.6602 0.2644, -0.6717 -0.66 0.2655, -0.6812 -0.6595 0.2701, -0.6892 -0.6586 0.277, -0.6953 -0.6576 0.2856, -0.699 -0.6564 0.2953, -0.7003 -0.6551 0.3055, -0.6564 -0.6619 0.2501, -0.6616 -0.6614 0.254, -0.6655 -0.6609 0.2588, -0.6678 -0.6603 0.2637, -0.517 -0.662 0.2491, -0.6322 -0.662 0.2491, -0.517 -0.6772 0.126, -0.6367 -0.6623 0.2474, -0.6431 -0.6624 0.2466, -0.6441 -0.6624 0.2466, -0.6503 -0.6622 0.2476, -0.654 -0.662 0.2491, -0.517 -0.6603 0.2637, -0.6184 -0.6603 0.2637, -0.6184 -0.6603 0.2636, -0.6215 -0.661 0.2578, -0.6256 -0.6615 0.2533, -0.6308 -0.662 0.2496, -0.5847 -0.6584 0.2791, -0.5829 -0.6583 0.2798, -0.5798 -0.6564 0.2947, -0.5419 -0.6588 0.2756, -0.5491 -0.6595 0.2696, -0.6233 -0.657 0.2903, -0.588 -0.6547 0.3086, -0.6279 -0.6565 0.2945, -0.6335 -0.6561 0.2974, -0.5864 -0.6585 0.278, -0.5367 -0.6579 0.2829, -0.5486 -0.6555 0.3025, -0.5498 -0.6549 0.3075, -0.5519 -0.6544 0.3113, -0.683 -0.6544 0.3113, -0.5333 -0.6547 0.309, -0.5321 -0.6557 0.3005, -0.5333 -0.6569 0.2912, -0.5809 -0.6582 0.2801, -0.5806 -0.6582 0.2801, -0.5798 -0.6583 0.2799, -0.6815 -0.6563 0.2956, -0.6783 -0.657 0.2903, -0.6649 -0.6573 0.2876, -0.6736 -0.6576 0.2854, -0.6679 -0.658 0.2819, -0.6552 -0.6563 0.2962, -0.6606 -0.6567 0.2925, -0.6837 -0.6551 0.306, -0.6834 -0.6556 0.302, -0.6494 -0.656 0.2984, -0.6431 -0.6559 0.2992, -0.6399 -0.6559 0.299, -0.5891 -0.6592 0.272, -0.589 -0.6591 0.273, -0.6167 -0.6588 0.2754, -0.5885 -0.6589 0.275, -0.5875 -0.6586 0.2768, -0.5538 -0.6575 0.2864, -0.5509 -0.657 0.2905, -0.5491 -0.6564 0.2951, -0.5485 -0.6558 0.3002, -0.5829 -0.6602 0.2641, -0.5846 -0.6601 0.2648, -0.5864 -0.66 0.266, -0.587 -0.6599 0.2666, -0.5881 -0.6597 0.2683, -0.5888 -0.6595 0.27, -0.6169 -0.6595 0.2701, -0.6167 -0.6591 0.2728, -0.5571 -0.66 0.2657, -0.5659 -0.6602 0.2639, -0.5814 -0.6602 0.2639, -0.5793 -0.6583 0.2798, -0.5675 -0.6583 0.2798, -0.5627 -0.6582 0.2807, -0.5581 -0.6579 0.2829, -0.5542 -0.6575 0.286, -0.5768 -0.6513 0.3363, -0.5828 -0.6505 0.3434, -0.6434 -0.6523 0.3282, -0.5834 -0.6504 0.344, -0.5908 -0.6498 0.3491, -0.6393 -0.6513 0.3365, -0.6453 -0.6522 0.3293, -0.6512 -0.6519 0.3314, -0.5523 -0.6543 0.3121, -0.5553 -0.6539 0.3154, -0.569 -0.6533 0.3206, -0.5594 -0.6536 0.3183, -0.564 -0.6533 0.32, -0.5711 -0.6533 0.3206, -0.5727 -0.6524 0.3279, -0.6666 -0.6521 0.3305, -0.6724 -0.6524 0.3274, -0.6601 -0.6519 0.332, -0.677 -0.6529 0.3234, -0.6806 -0.6536 0.3182, -0.6334 -0.6505 0.3435, -0.5991 -0.6494 0.3523, -0.6263 -0.6498 0.3486, -0.608 -0.6493 0.3533, -0.6177 -0.6494 0.3521, -0.6573 -0.6519 0.3322, -0.6829 -0.6543 0.3123, -0.3874 -0.662 0.2491, -0.4016 -0.6772 0.126, 0.4517 -0.6429 0.405, -0.3757 -0.6429 0.405, -0.3874 -0.6429 0.405, -0.4016 -0.6429 0.405, -0.4221 -0.6429 0.405, -0.4307 -0.6429 0.405, -0.4221 -0.6772 0.126, -0.4307 -0.6772 0.126, -0.4477 -0.6772 0.126, -0.4791 -0.6772 0.126, -0.4813 -0.6772 0.126, -0.4813 -0.662 0.2491, -0.4813 -0.6603 0.2637, -0.4818 -0.6597 0.2682, -0.4818 -0.6602 0.264, -0.5018 -0.6602 0.264, -0.4827 -0.6562 0.2966, -0.5018 -0.6557 0.3008, -0.4827 -0.6557 0.3008, -0.497 -0.6582 0.2806, -0.497 -0.6597 0.2682, -0.4837 -0.6582 0.2806, -0.4837 -0.6577 0.2848, -0.497 -0.6577 0.2848, -0.497 -0.6562 0.2966, -0.497 -0.6485 0.3592, -0.497 -0.6525 0.3266, -0.4822 -0.6525 0.3266, -0.5018 -0.6531 0.3224, -0.5018 -0.6485 0.3592, -0.4822 -0.6531 0.3224, -0.4813 -0.6429 0.405, 0.4561 -0.6385 0.4409, -0.3757 -0.6385 0.4409, -0.3874 -0.6385 0.4409, -0.4016 -0.6385 0.4409, -0.4221 -0.6385 0.4409, -0.4307 -0.6385 0.4409, -0.4477 -0.6385 0.4409, -0.4791 -0.6385 0.4409, -0.4813 -0.6385 0.4409, -0.517 -0.6385 0.4409, -0.7247 -0.6385 0.4409, -0.3347 -0.6602 0.264, -0.3157 -0.659 0.2741, -0.3311 -0.659 0.2741, -0.3557 -0.6601 0.2648, -0.3515 -0.6599 0.2664
            ]
        }
        coordIndex [
            0,1,2,-1,3,4,5,-1,6,3,7,-1,5,4,8,-1,9,10,11,-1,11,10,12,-1,11,12,13,-1,13,12,3,-1,13,3,14,-1,14,3,6,-1,14,6,15,-1,15,6,16,-1,15,16,17,-1,17,16,18,-1,4,19,8,-1,8,19,20,-1,8,20,21,-1,21,20,22,-1,23,24,25,-1,25,24,7,-1,25,7,26,-1,27,26,28,-1,28,26,29,-1,28,29,30,-1,28,31,27,-1,27,31,32,-1,27,32,33,-1,33,32,34,-1,35,36,5,-1,3,5,7,-1,7,5,36,-1,7,36,37,-1,38,39,40,-1,40,39,41,-1,40,41,42,-1,7,43,44,-1,38,40,45,-1,45,40,43,-1,45,43,46,-1,47,48,43,-1,43,48,49,-1,43,49,46,-1,26,7,29,-1,29,7,44,-1,29,44,50,-1,50,44,51,-1,50,51,52,-1,37,53,7,-1,7,53,54,-1,7,54,43,-1,43,54,55,-1,43,55,47,-1,56,57,50,-1,58,57,59,-1,59,57,56,-1,59,56,60,-1,61,62,63,-1,63,62,64,-1,63,64,65,-1,65,64,66,-1,65,66,67,-1,67,66,68,-1,67,68,69,-1,69,68,70,-1,69,70,71,-1,72,73,74,-1,74,73,75,-1,74,75,76,-1,77,78,79,-1,79,80,77,-1,77,80,81,-1,77,81,82,-1,81,83,84,-1,84,83,85,-1,84,85,86,-1,86,87,84,-1,84,87,88,-1,84,88,89,-1,89,90,84,-1,84,90,91,-1,84,91,92,-1,81,84,82,-1,82,84,93,-1,82,93,94,-1,95,96,97,-1,97,96,98,-1,97,98,99,-1,92,100,84,-1,84,100,101,-1,84,101,102,-1,103,104,102,-1,102,104,105,-1,102,105,84,-1,106,107,108,-1,94,109,82,-1,82,109,110,-1,82,110,97,-1,97,110,111,-1,97,111,95,-1,103,112,104,-1,104,112,113,-1,104,113,108,-1,108,113,114,-1,108,114,106,-1,115,116,117,-1,117,116,118,-1,119,120,121,-1,121,122,119,-1,119,122,123,-1,119,123,124,-1,99,125,97,-1,97,125,126,-1,97,126,127,-1,128,129,119,-1,119,129,130,-1,119,130,120,-1,126,131,127,-1,127,131,132,-1,127,132,128,-1,128,132,133,-1,128,133,129,-1,134,135,136,-1,137,138,139,-1,139,138,140,-1,139,140,141,-1,141,140,142,-1,141,142,143,-1,143,142,144,-1,143,144,145,-1,145,144,146,-1,145,146,147,-1,147,146,148,-1,134,144,135,-1,135,144,142,-1,135,142,149,-1,149,142,150,-1,149,150,151,-1,151,150,152,-1,151,152,82,-1,82,152,153,-1,82,153,77,-1,77,153,154,-1,77,154,136,-1,136,154,155,-1,136,155,134,-1,156,157,149,-1,158,159,135,-1,149,157,135,-1,135,157,160,-1,135,160,158,-1,161,162,163,-1,161,163,164,-1,165,166,167,-1,162,168,163,-1,163,168,169,-1,163,169,170,-1,170,169,171,-1,170,171,172,-1,173,174,165,-1,165,174,175,-1,165,175,166,-1,158,176,159,-1,159,176,177,-1,159,177,165,-1,165,177,178,-1,165,178,173,-1,179,163,180,-1,180,163,7,-1,180,7,181,-1,181,7,24,-1,34,32,179,-1,179,32,165,-1,179,165,163,-1,163,165,167,-1,163,167,164,-1,182,183,184,-1,185,186,187,-1,182,184,188,-1,189,190,191,-1,192,193,194,-1,194,193,195,-1,194,195,196,-1,196,195,187,-1,196,187,197,-1,197,187,186,-1,198,189,199,-1,199,189,200,-1,198,201,189,-1,189,201,202,-1,189,202,190,-1,203,204,97,-1,205,206,184,-1,184,206,207,-1,184,207,188,-1,208,97,209,-1,209,97,204,-1,209,204,194,-1,194,204,210,-1,194,210,192,-1,211,212,213,-1,213,212,214,-1,213,214,215,-1,215,214,216,-1,217,218,187,-1,187,218,219,-1,187,219,220,-1,221,222,223,-1,224,225,226,-1,226,225,227,-1,226,227,228,-1,208,229,97,-1,97,229,230,-1,97,230,231,-1,216,232,215,-1,215,232,233,-1,215,233,234,-1,234,233,223,-1,234,223,235,-1,235,223,222,-1,220,236,187,-1,187,236,237,-1,187,237,185,-1,238,239,240,-1,240,239,241,-1,240,241,183,-1,224,211,225,-1,225,211,213,-1,225,213,242,-1,242,213,243,-1,242,243,244,-1,244,243,245,-1,244,245,246,-1,246,245,247,-1,248,247,241,-1,241,247,245,-1,241,245,183,-1,183,245,243,-1,183,243,184,-1,249,250,2,-1,251,252,82,-1,231,221,97,-1,97,221,223,-1,97,223,82,-1,82,223,253,-1,82,253,251,-1,254,255,2,-1,2,255,256,-1,252,257,82,-1,82,257,258,-1,82,258,151,-1,151,258,259,-1,151,259,249,-1,260,261,250,-1,250,261,262,-1,250,262,2,-1,2,262,263,-1,2,263,254,-1,256,264,2,-1,2,264,265,-1,2,265,0,-1,266,267,268,-1,268,267,269,-1,268,269,270,-1,268,271,266,-1,266,271,272,-1,266,272,273,-1,273,274,266,-1,266,274,275,-1,266,275,276,-1,276,275,277,-1,276,277,278,-1,278,277,279,-1,278,279,250,-1,250,279,280,-1,250,280,260,-1,281,282,270,-1,270,282,283,-1,270,283,268,-1,284,285,228,-1,228,285,286,-1,228,286,226,-1,284,287,285,-1,285,287,288,-1,285,288,289,-1,289,288,290,-1,289,291,292,-1,290,293,289,-1,289,293,294,-1,289,294,295,-1,295,296,289,-1,289,296,297,-1,289,297,291,-1,292,298,289,-1,289,298,299,-1,289,299,300,-1,301,302,170,-1,302,21,170,-1,170,21,22,-1,170,22,163,-1,163,22,303,-1,163,303,7,-1,7,303,304,-1,7,304,6,-1,305,306,307,-1,172,156,170,-1,170,156,149,-1,170,149,301,-1,301,149,308,-1,301,308,309,-1,309,308,305,-1,309,305,310,-1,310,305,307,-1,311,312,2,-1,2,312,313,-1,249,2,151,-1,151,2,313,-1,151,313,149,-1,149,313,314,-1,149,314,308,-1,315,312,316,-1,316,312,311,-1,316,311,317,-1,318,319,320,-1,321,322,311,-1,311,322,323,-1,311,323,317,-1,248,241,1,-1,1,241,318,-1,1,318,2,-1,2,318,320,-1,2,320,311,-1,311,320,324,-1,311,324,325,-1,326,327,328,-1,328,327,329,-1,328,329,318,-1,318,329,330,-1,318,330,319,-1,325,331,311,-1,311,331,332,-1,311,332,321,-1,333,334,335,-1,333,335,336,-1,334,337,335,-1,335,337,338,-1,335,338,328,-1,328,338,339,-1,328,339,326,-1,340,341,342,-1,342,341,343,-1,342,343,344,-1,345,346,347,-1,347,346,342,-1,347,342,348,-1,348,342,349,-1,344,350,342,-1,342,350,351,-1,342,351,349,-1,63,352,353,-1,354,355,65,-1,65,355,356,-1,65,356,63,-1,63,356,357,-1,63,357,358,-1,76,75,359,-1,359,75,61,-1,359,61,360,-1,360,61,63,-1,360,63,361,-1,361,63,353,-1,361,353,362,-1,362,353,363,-1,362,363,364,-1,358,365,63,-1,63,365,366,-1,63,366,352,-1,367,368,67,-1,67,368,369,-1,67,369,370,-1,370,371,67,-1,67,371,372,-1,67,372,65,-1,65,372,373,-1,65,373,354,-1,374,375,69,-1,69,375,376,-1,69,376,67,-1,67,376,377,-1,67,377,367,-1,378,379,380,-1,380,379,381,-1,380,381,71,-1,71,381,382,-1,382,383,71,-1,71,383,384,-1,71,384,69,-1,69,384,385,-1,69,385,374,-1,386,387,378,-1,378,387,388,-1,378,388,389,-1,389,390,378,-1,378,390,391,-1,378,391,379,-1,392,393,394,-1,395,396,386,-1,397,398,399,-1,399,398,400,-1,392,394,401,-1,395,386,402,-1,403,404,398,-1,398,404,405,-1,398,405,406,-1,345,407,346,-1,346,407,408,-1,346,408,386,-1,386,408,409,-1,386,409,402,-1,393,410,394,-1,394,410,411,-1,394,411,412,-1,413,414,415,-1,415,414,416,-1,415,416,417,-1,418,406,419,-1,419,406,420,-1,419,420,415,-1,415,420,421,-1,415,421,413,-1,418,422,406,-1,406,422,423,-1,406,423,398,-1,398,423,424,-1,398,424,400,-1,425,426,427,-1,427,426,428,-1,427,428,394,-1,394,428,429,-1,394,429,401,-1,430,431,394,-1,394,431,432,-1,394,432,398,-1,398,432,433,-1,398,433,403,-1,434,435,387,-1,387,435,436,-1,387,436,437,-1,437,438,387,-1,387,438,439,-1,387,439,440,-1,440,439,425,-1,440,425,441,-1,441,425,427,-1,396,442,386,-1,386,442,443,-1,386,443,387,-1,387,443,444,-1,387,444,434,-1,412,445,394,-1,394,445,446,-1,394,446,447,-1,447,448,394,-1,394,448,449,-1,394,449,430,-1,450,451,452,-1,451,453,452,-1,452,453,454,-1,452,454,455,-1,405,452,406,-1,406,452,456,-1,406,456,457,-1,458,459,460,-1,460,459,461,-1,460,461,462,-1,458,460,405,-1,405,460,463,-1,405,463,452,-1,452,463,464,-1,452,464,450,-1,465,466,467,-1,467,466,468,-1,467,468,469,-1,455,454,470,-1,470,454,471,-1,470,471,472,-1,472,471,473,-1,472,473,474,-1,457,475,406,-1,406,475,467,-1,406,467,476,-1,476,467,469,-1,477,335,478,-1,302,336,21,-1,21,336,335,-1,21,335,8,-1,8,335,477,-1,8,477,5,-1,31,479,32,-1,32,479,480,-1,32,480,165,-1,165,480,481,-1,165,481,159,-1,159,481,482,-1,159,482,135,-1,135,482,483,-1,135,483,136,-1,136,483,484,-1,136,484,77,-1,77,484,116,-1,77,116,78,-1,78,116,115,-1,478,335,485,-1,485,335,328,-1,485,328,486,-1,486,328,318,-1,486,318,487,-1,487,318,241,-1,487,241,488,-1,488,241,239,-1,488,239,489,-1,489,239,490,-1,489,490,380,-1,238,200,239,-1,239,200,189,-1,239,189,490,-1,490,189,491,-1,492,493,491,-1,491,493,494,-1,191,203,189,-1,189,203,97,-1,189,97,491,-1,491,97,127,-1,491,127,492,-1,492,127,495,-1,380,490,378,-1,378,490,491,-1,378,491,386,-1,386,491,494,-1,386,494,346,-1,346,494,496,-1,346,496,127,-1,127,496,497,-1,127,497,495,-1,498,499,500,-1,500,499,492,-1,500,492,501,-1,501,492,495,-1,501,495,502,-1,502,495,503,-1,504,505,506,-1,507,508,342,-1,342,508,504,-1,342,504,128,-1,128,504,506,-1,128,506,127,-1,127,506,509,-1,127,509,346,-1,346,509,507,-1,346,507,342,-1,124,117,119,-1,119,117,118,-1,119,118,128,-1,128,118,510,-1,128,510,342,-1,342,510,73,-1,342,73,340,-1,340,73,72,-1,479,511,480,-1,480,511,512,-1,480,512,481,-1,481,512,513,-1,481,513,482,-1,482,513,514,-1,482,514,483,-1,483,514,515,-1,483,515,484,-1,484,515,516,-1,484,516,116,-1,116,516,517,-1,116,517,118,-1,118,517,518,-1,118,518,510,-1,510,518,519,-1,510,519,73,-1,73,519,520,-1,73,520,75,-1,75,520,521,-1,40,52,522,-1,522,52,523,-1,522,523,524,-1,478,60,477,-1,477,60,56,-1,477,56,5,-1,5,56,50,-1,5,50,35,-1,35,50,52,-1,35,52,525,-1,525,52,40,-1,525,40,526,-1,526,40,42,-1,
        ]
    }
}
Shape{
    appearance Appearance {
        material  Material 	{
            diffuseColor 0.7529411764705882 0.7529411764705882 0.7529411764705882
            specularColor 0.3764705882352941 0.3764705882352941 0.3764705882352941
            ambientIntensity 0.7529
            transparency 0.0
            shininess 0.5
        }
    }
    geometry IndexedFaceSet {
        ccw TRUE
        solid FALSE
        coord DEF co Coordinate {
            point [
                0.6851 0.5236 0.0, 0.6851 0.5236 0.0079, 0.6933 0.5236 0.0079, 0.6933 0.5236 0.0669, 0.7327 0.5236 0.0669, 0.7327 0.5236 0.0, 0.5047 -0.5 0.0079, 0.339 -0.5 0.0079, 0.5047 -0.5 0.0, 0.339 -0.5 0.0, -0.5748 0.5236 0.0079, -0.3303 0.5236 0.0079, -0.5748 0.5236 0.0, -0.3303 0.5236 0.0, -0.7552 -0.5 0.0, -0.7552 -0.5 0.0079, -0.7634 -0.5 0.0079, -0.7634 -0.5 0.0669, -0.8028 -0.5 0.0669, -0.8028 -0.5 0.0
            ]
        }
        coordIndex [
            0,1,2,-1,3,4,2,-1,2,4,5,-1,2,5,0,-1,6,7,8,-1,8,7,9,-1,10,11,12,-1,12,11,13,-1,14,15,16,-1,17,18,16,-1,16,18,19,-1,16,19,14,-1,
        ]
    }
}
Shape{
    appearance Appearance {
        material  Material 	{
            diffuseColor 1.0 1.0 1.0
            specularColor 0.5019607843137255 0.5019607843137255 0.5019607843137255
            ambientIntensity 1.0
            transparency 0.0
            shininess 0.5
        }
    }
    geometry IndexedFaceSet {
        ccw TRUE
        solid FALSE
        coord DEF co Coordinate {
            point [
                -0.0563 0.5272 0.3425, -0.0563 0.52 0.3228, 0.3409 0.52 0.3228, -0.4287 0.563 0.4409, -0.4109 0.52 0.3228, -0.1153 0.52 0.3228, -0.1153 0.5272 0.3425, 0.3587 0.563 0.4409, 0.4732 -0.1072 0.3228, 0.4732 -0.3641 0.3228, 0.4803 -0.1072 0.3425, 0.5161 -0.3819 0.4409, 0.4803 -0.0337 0.3425, 0.5161 0.4055 0.4409, 0.4732 -0.0337 0.3228, 0.4732 0.3877 0.3228, 0.1761 -0.5035 0.3425, 0.1761 -0.4964 0.3228, -0.4109 -0.4964 0.3228, 0.3587 -0.5394 0.4409, 0.3409 -0.4964 0.3228, 0.2351 -0.4964 0.3228, 0.2351 -0.5035 0.3425, -0.4287 -0.5394 0.4409, -0.5504 -0.1216 0.3425, -0.5432 -0.1216 0.3228, -0.5432 0.3877 0.3228, -0.5862 -0.3819 0.4409, -0.5432 -0.3641 0.3228, -0.5432 -0.1807 0.3228, -0.5504 -0.1807 0.3425, -0.5862 0.4055 0.4409, -0.2033 -0.1807 0.3228, 0.1761 -0.1072 0.3228, -0.1298 -0.1072 0.3228, 0.2351 -0.1072 0.3228, -0.0563 -0.0337 0.3228, -0.1153 -0.0092 0.3228, -0.2278 -0.1216 0.3228, 0.6933 -0.6772 0.126, 0.6933 -0.6772 0.0079, 0.6933 -0.5 0.0079, 0.6933 -0.5 0.0669, 0.6933 -0.1654 0.0669, 0.6933 0.7008 0.126, 0.6933 0.5236 0.0079, 0.6933 0.7008 0.0079, 0.6933 0.5236 0.0669, 0.6933 0.189 0.0669, 0.6933 0.189 0.0079, 0.6933 -0.1654 0.0079, -0.7634 0.7008 0.126, -0.7634 0.7008 0.0079, -0.7634 -0.5 0.0079, -0.7634 -0.6772 0.0079, -0.7634 -0.5 0.0669, -0.7634 -0.6772 0.126, -0.7634 -0.1654 0.0669, -0.7634 0.5236 0.0079, -0.7634 0.5236 0.0669, -0.7634 0.189 0.0669, -0.7634 0.189 0.0079, -0.7634 -0.1654 0.0079, 0.5752 0.1299 0.0079, 0.5752 0.189 0.0079, -0.7552 0.5236 0.0079, -0.0547 0.1299 0.0079, 0.5752 -0.0472 0.0079, 0.5752 -0.1654 0.0079, -0.7552 -0.5 0.0079, 0.6675 -0.4958 0.0079, 0.676 -0.4989 0.0079, 0.6851 -0.5 0.0079, -0.5838 -0.4989 0.0079, -0.5748 -0.5 0.0079, 0.339 -0.5 0.0079, 0.024 -0.5 0.0079, 0.339 -0.0472 0.0079, 0.024 -0.0472 0.0079, -0.5748 0.5236 0.0079, -0.5838 0.5226 0.0079, 0.5047 -0.5 0.0079, 0.5137 -0.4989 0.0079, -0.3303 0.5236 0.0079, 0.5223 -0.4958 0.0079, 0.5299 -0.4909 0.0079, 0.5362 -0.4842 0.0079, 0.6412 -0.4634 0.0079, 0.649 -0.4764 0.0079, 0.5408 -0.4764 0.0079, -0.7191 -0.4764 0.0079, -0.6063 -0.4842 0.0079, -0.7237 -0.4842 0.0079, -0.6 -0.4909 0.0079, 0.6851 0.5236 0.0079, 0.6536 -0.4842 0.0079, 0.6599 -0.4909 0.0079, -0.7461 -0.4989 0.0079, -0.7376 -0.4958 0.0079, -0.7299 -0.4909 0.0079, -0.5924 -0.4958 0.0079, -0.6295 -0.4528 0.0079, -0.6186 -0.4634 0.0079, -0.6108 -0.4764 0.0079, 0.5137 0.5226 0.0079, 0.5047 0.5236 0.0079, -0.0547 0.5236 0.0079, -0.3303 0.1299 0.0079, -0.5924 0.5195 0.0079, -0.6 0.5145 0.0079, -0.6063 0.5079 0.0079, 0.6536 0.5079 0.0079, 0.5362 0.5079 0.0079, 0.5299 0.5145 0.0079, -0.2713 -0.0472 0.0079, -0.4287 0.0315 0.0079, -0.3894 -0.1654 0.0079, -0.6453 0.0315 0.0079, -0.6453 0.189 0.0079, -0.7299 0.5145 0.0079, -0.7376 0.5195 0.0079, -0.7461 0.5226 0.0079, 0.5594 -0.4528 0.0079, 0.5726 -0.4453 0.0079, 0.6303 -0.4528 0.0079, 0.676 0.5226 0.0079, 0.6675 0.5195 0.0079, 0.6599 0.5145 0.0079, 0.5223 0.5195 0.0079, -0.7237 0.5079 0.0079, -0.7191 0.5 0.0079, -0.6108 0.5 0.0079, -0.6186 0.487 0.0079, 0.5486 -0.4634 0.0079, -0.6725 -0.4414 0.0079, -0.6574 -0.4414 0.0079, -0.6872 -0.4453 0.0079, -0.6427 -0.4453 0.0079, -0.7004 -0.4528 0.0079, 0.5408 0.5 0.0079, 0.649 0.5 0.0079, 0.6412 0.487 0.0079, 0.5873 -0.4414 0.0079, 0.6025 -0.4414 0.0079, 0.6171 -0.4453 0.0079, -0.7113 -0.4634 0.0079, -0.6295 0.4764 0.0079, -0.6427 0.4689 0.0079, -0.7113 0.487 0.0079, -0.7004 0.4764 0.0079, 0.6303 0.4764 0.0079, 0.6171 0.4689 0.0079, 0.5486 0.487 0.0079, 0.5594 0.4764 0.0079, -0.6574 0.4651 0.0079, -0.6725 0.4651 0.0079, -0.6872 0.4689 0.0079, 0.6025 0.4651 0.0079, 0.5873 0.4651 0.0079, 0.5726 0.4689 0.0079, 0.6691 -0.653 0.3228, 0.6691 -0.4255 0.3228, 0.6546 -0.44 0.4409, 0.6546 0.6621 0.4409, -0.7247 0.6621 0.4409, -0.7247 -0.6385 0.4409, 0.4561 -0.6385 0.4409, 0.1761 -0.1072 0.3425, 0.2351 -0.1072 0.3425, -0.0563 -0.0337 0.3425, -0.1153 -0.0092 0.3425, -0.2278 -0.1216 0.3425, -0.2033 -0.1807 0.3425, -0.1298 -0.1072 0.3425, 0.4416 -0.653 0.3228
            ]
        }
        coordIndex [
            0,1,2,-1,3,4,5,-1,5,6,3,-1,3,6,0,-1,3,0,7,-1,7,0,2,-1,8,9,10,-1,10,9,11,-1,10,11,12,-1,12,11,13,-1,12,13,14,-1,14,13,15,-1,16,17,18,-1,19,20,21,-1,21,22,19,-1,19,22,16,-1,19,16,23,-1,23,16,18,-1,24,25,26,-1,27,28,29,-1,29,30,27,-1,27,30,24,-1,27,24,31,-1,31,24,26,-1,32,29,28,-1,33,34,17,-1,17,34,32,-1,17,32,18,-1,18,32,28,-1,9,8,20,-1,20,8,35,-1,20,35,21,-1,2,1,15,-1,15,1,36,-1,15,36,14,-1,5,4,37,-1,37,4,26,-1,37,26,38,-1,38,26,25,-1,39,40,41,-1,41,42,39,-1,39,42,43,-1,39,43,44,-1,45,46,47,-1,47,46,44,-1,47,44,48,-1,48,44,43,-1,48,43,49,-1,49,43,50,-1,51,44,52,-1,52,44,46,-1,53,54,55,-1,55,54,56,-1,55,56,57,-1,52,58,51,-1,51,58,59,-1,51,59,60,-1,61,62,60,-1,60,62,57,-1,60,57,51,-1,51,57,56,-1,39,56,40,-1,40,56,54,-1,63,64,49,-1,65,58,52,-1,66,63,67,-1,67,63,49,-1,67,49,68,-1,68,49,50,-1,54,53,69,-1,70,71,40,-1,40,71,72,-1,40,72,41,-1,54,73,74,-1,75,76,77,-1,77,76,78,-1,79,80,52,-1,74,76,54,-1,54,76,75,-1,54,75,40,-1,40,75,81,-1,40,81,82,-1,79,52,83,-1,82,84,40,-1,40,84,85,-1,40,85,86,-1,87,88,89,-1,90,91,92,-1,92,91,93,-1,46,45,94,-1,89,88,86,-1,86,88,95,-1,86,95,40,-1,40,95,96,-1,40,96,70,-1,69,97,54,-1,54,97,98,-1,54,98,73,-1,98,99,73,-1,73,99,92,-1,73,92,100,-1,100,92,93,-1,101,102,90,-1,90,102,103,-1,90,103,91,-1,104,105,46,-1,46,105,106,-1,52,46,83,-1,83,46,106,-1,83,106,107,-1,107,106,66,-1,80,108,52,-1,52,108,109,-1,52,109,110,-1,111,112,113,-1,67,77,66,-1,66,77,78,-1,66,78,107,-1,107,78,114,-1,107,114,115,-1,115,114,116,-1,115,116,117,-1,117,116,62,-1,117,62,118,-1,118,62,61,-1,119,120,52,-1,52,120,121,-1,52,121,65,-1,122,123,124,-1,94,125,46,-1,46,125,126,-1,46,126,104,-1,126,127,104,-1,104,127,111,-1,104,111,128,-1,128,111,113,-1,119,52,129,-1,129,52,110,-1,129,110,130,-1,130,110,131,-1,130,131,132,-1,87,89,124,-1,124,89,133,-1,124,133,122,-1,134,135,136,-1,136,135,137,-1,136,137,138,-1,112,111,139,-1,139,111,140,-1,139,140,141,-1,142,143,123,-1,123,143,144,-1,123,144,124,-1,101,90,137,-1,137,90,145,-1,137,145,138,-1,132,146,130,-1,130,146,147,-1,130,147,148,-1,148,147,149,-1,141,150,139,-1,139,150,151,-1,139,151,152,-1,152,151,153,-1,154,155,147,-1,147,155,156,-1,147,156,149,-1,157,158,151,-1,151,158,159,-1,151,159,153,-1,160,39,161,-1,161,39,44,-1,161,44,162,-1,162,44,163,-1,164,163,51,-1,51,163,44,-1,165,164,56,-1,56,164,51,-1,163,13,162,-1,162,13,11,-1,162,11,166,-1,166,11,19,-1,166,19,165,-1,19,23,165,-1,165,23,27,-1,165,27,164,-1,27,31,164,-1,164,31,3,-1,164,3,163,-1,163,3,7,-1,163,7,13,-1,2,15,7,-1,7,15,13,-1,9,20,11,-1,11,20,19,-1,18,28,23,-1,23,28,27,-1,26,4,31,-1,31,4,3,-1,16,22,167,-1,167,22,168,-1,0,6,169,-1,169,6,170,-1,24,30,171,-1,171,30,172,-1,171,172,170,-1,170,172,173,-1,170,173,169,-1,169,173,167,-1,169,167,12,-1,12,167,168,-1,12,168,10,-1,24,171,25,-1,25,171,38,-1,29,32,30,-1,30,32,172,-1,16,167,17,-1,17,167,33,-1,21,35,22,-1,22,35,168,-1,10,168,8,-1,8,168,35,-1,14,36,12,-1,12,36,169,-1,0,169,1,-1,1,169,36,-1,5,37,6,-1,6,37,170,-1,171,170,38,-1,38,170,37,-1,173,172,34,-1,34,172,32,-1,167,173,33,-1,33,173,34,-1,161,174,160,-1,162,166,161,-1,161,166,174,-1,
        ]
    }
}
Shape{
    appearance Appearance {
        material  Material 	{
            diffuseColor 0.7529411764705882 0.7529411764705882 0.7529411764705882
            specularColor 0.3764705882352941 0.3764705882352941 0.3764705882352941
            ambientIntensity 0.7529
            transparency 0.0
            shininess 0.5
        }
    }
    geometry IndexedFaceSet {
        ccw TRUE
        solid FALSE
        coord DEF co Coordinate {
            point [
                0.7327 0.189 0.0669, 0.7327 0.5236 0.0669, 0.6933 0.189 0.0669, 0.6933 0.5236 0.0669, 0.5047 0.5236 0.0, -0.0547 0.5236 0.0, 0.5047 0.5236 0.0079, -0.0547 0.5236 0.0079, -0.0547 0.1299 0.0, -0.0547 0.1299 0.0079, 0.5752 0.1299 0.0, 0.5752 0.1299 0.0079, 0.5752 0.189 0.0, 0.5752 0.189 0.0079, 0.6933 0.189 0.0079, 0.7327 0.189 0.0, 0.7327 0.5236 0.0, 0.6303 0.4764 0.0, 0.6412 0.487 0.0, 0.649 0.5 0.0, 0.5726 0.4689 0.0, 0.5873 0.4651 0.0, 0.6025 0.4651 0.0, 0.6171 0.4689 0.0, 0.5408 0.5 0.0, 0.5137 0.5226 0.0, 0.5223 0.5195 0.0, 0.5299 0.5145 0.0, 0.5362 0.5079 0.0, 0.6675 0.5195 0.0, 0.676 0.5226 0.0, 0.6851 0.5236 0.0, 0.5486 0.487 0.0, 0.5594 0.4764 0.0, 0.6536 0.5079 0.0, 0.6599 0.5145 0.0, 0.7327 -0.5 0.0669, 0.7327 -0.1654 0.0669, 0.6933 -0.5 0.0669, 0.6933 -0.1654 0.0669, 0.5752 -0.1654 0.0, 0.5752 -0.1654 0.0079, 0.6933 -0.1654 0.0079, 0.7327 -0.1654 0.0, 0.5752 -0.0472 0.0, 0.5752 -0.0472 0.0079, 0.339 -0.0472 0.0, 0.339 -0.0472 0.0079, 0.339 -0.5 0.0, 0.339 -0.5 0.0079, 0.6851 -0.5 0.0079, 0.6851 -0.5 0.0, 0.6933 -0.5 0.0079, 0.7327 -0.5 0.0, 0.676 -0.4989 0.0, 0.6675 -0.4958 0.0, 0.6599 -0.4909 0.0, 0.6412 -0.4634 0.0, 0.6303 -0.4528 0.0, 0.6171 -0.4453 0.0, 0.6025 -0.4414 0.0, 0.5873 -0.4414 0.0, 0.5726 -0.4453 0.0, 0.5594 -0.4528 0.0, 0.5486 -0.4634 0.0, 0.5408 -0.4764 0.0, 0.6536 -0.4842 0.0, 0.649 -0.4764 0.0, 0.5223 -0.4958 0.0, 0.5299 -0.4909 0.0, 0.5362 -0.4842 0.0, 0.5137 -0.4989 0.0, 0.5047 -0.5 0.0, -0.7634 0.5236 0.0669, -0.8028 0.5236 0.0669, -0.7634 0.189 0.0669, -0.8028 0.189 0.0669, -0.6453 0.189 0.0, -0.6453 0.189 0.0079, -0.7634 0.189 0.0079, -0.8028 0.189 0.0, -0.6453 0.0315 0.0, -0.6453 0.0315 0.0079, -0.4287 0.0315 0.0, -0.4287 0.0315 0.0079, -0.3303 0.1299 0.0, -0.3303 0.1299 0.0079, -0.3303 0.5236 0.0, -0.3303 0.5236 0.0079, -0.7552 0.5236 0.0079, -0.7552 0.5236 0.0, -0.7634 0.5236 0.0079, -0.8028 0.5236 0.0, -0.6574 0.4651 0.0, -0.6427 0.4689 0.0, -0.6295 0.4764 0.0, -0.6186 0.487 0.0, -0.6108 0.5 0.0, -0.7461 0.5226 0.0, -0.7376 0.5195 0.0, -0.7299 0.5145 0.0, -0.7113 0.487 0.0, -0.7004 0.4764 0.0, -0.6872 0.4689 0.0, -0.6725 0.4651 0.0, -0.5924 0.5195 0.0, -0.6 0.5145 0.0, -0.6063 0.5079 0.0, -0.5838 0.5226 0.0, -0.5748 0.5236 0.0, -0.7237 0.5079 0.0, -0.7191 0.5 0.0, -0.7634 -0.1654 0.0669, -0.8028 -0.1654 0.0669, -0.7634 -0.5 0.0669, -0.8028 -0.5 0.0669, -0.2713 -0.0472 0.0, -0.3894 -0.1654 0.0, -0.2713 -0.0472 0.0079, -0.3894 -0.1654 0.0079, -0.7634 -0.1654 0.0079, -0.8028 -0.1654 0.0, -0.5748 -0.5 0.0, 0.024 -0.5 0.0, -0.5748 -0.5 0.0079, 0.024 -0.5 0.0079, 0.024 -0.0472 0.0, 0.024 -0.0472 0.0079, -0.8028 -0.5 0.0, -0.7113 -0.4634 0.0, -0.7191 -0.4764 0.0, -0.6186 -0.4634 0.0, -0.6295 -0.4528 0.0, -0.6427 -0.4453 0.0, -0.6574 -0.4414 0.0, -0.6725 -0.4414 0.0, -0.6872 -0.4453 0.0, -0.7004 -0.4528 0.0, -0.5838 -0.4989 0.0, -0.5924 -0.4958 0.0, -0.6 -0.4909 0.0, -0.6063 -0.4842 0.0, -0.6108 -0.4764 0.0, -0.7376 -0.4958 0.0, -0.7461 -0.4989 0.0, -0.7552 -0.5 0.0, -0.7237 -0.4842 0.0, -0.7299 -0.4909 0.0, -0.7191 -0.4764 0.0079, -0.7113 -0.4634 0.0079, -0.7004 -0.4528 0.0079, -0.6872 -0.4453 0.0079, -0.6725 -0.4414 0.0079, -0.6574 -0.4414 0.0079, -0.6427 -0.4453 0.0079, -0.6295 -0.4528 0.0079, -0.6186 -0.4634 0.0079, -0.6108 -0.4764 0.0079, -0.6108 0.5 0.0079, -0.6186 0.487 0.0079, -0.6295 0.4764 0.0079, -0.6427 0.4689 0.0079, -0.6574 0.4651 0.0079, -0.6725 0.4651 0.0079, -0.6872 0.4689 0.0079, -0.7004 0.4764 0.0079, -0.7113 0.487 0.0079, -0.7191 0.5 0.0079, 0.5408 -0.4764 0.0079, 0.5486 -0.4634 0.0079, 0.5594 -0.4528 0.0079, 0.5726 -0.4453 0.0079, 0.5873 -0.4414 0.0079, 0.6025 -0.4414 0.0079, 0.6171 -0.4453 0.0079, 0.6303 -0.4528 0.0079, 0.6412 -0.4634 0.0079, 0.649 -0.4764 0.0079, 0.649 0.5 0.0079, 0.6412 0.487 0.0079, 0.6303 0.4764 0.0079, 0.6171 0.4689 0.0079, 0.6025 0.4651 0.0079, 0.5873 0.4651 0.0079, 0.5726 0.4689 0.0079, 0.5594 0.4764 0.0079, 0.5486 0.487 0.0079, 0.5408 0.5 0.0079, 0.6536 -0.4842 0.0079, 0.6599 -0.4909 0.0079, 0.6675 -0.4958 0.0079, 0.676 -0.4989 0.0079, 0.5047 -0.5 0.0079, 0.5137 -0.4989 0.0079, 0.5223 -0.4958 0.0079, 0.5299 -0.4909 0.0079, 0.5362 -0.4842 0.0079, -0.7552 -0.5 0.0079, -0.7461 -0.4989 0.0079, -0.7376 -0.4958 0.0079, -0.7299 -0.4909 0.0079, -0.7237 -0.4842 0.0079, -0.6063 -0.4842 0.0079, -0.6 -0.4909 0.0079, -0.5924 -0.4958 0.0079, -0.5838 -0.4989 0.0079, -0.7237 0.5079 0.0079, -0.7299 0.5145 0.0079, -0.7376 0.5195 0.0079, -0.7461 0.5226 0.0079, -0.5748 0.5236 0.0079, -0.5838 0.5226 0.0079, -0.5924 0.5195 0.0079, -0.6 0.5145 0.0079, -0.6063 0.5079 0.0079, 0.5362 0.5079 0.0079, 0.5299 0.5145 0.0079, 0.5223 0.5195 0.0079, 0.5137 0.5226 0.0079, 0.6851 0.5236 0.0079, 0.676 0.5226 0.0079, 0.6675 0.5195 0.0079, 0.6599 0.5145 0.0079, 0.6536 0.5079 0.0079
            ]
        }
        coordIndex [
            0,1,2,-1,2,1,3,-1,4,5,6,-1,6,5,7,-1,5,8,7,-1,7,8,9,-1,8,10,9,-1,9,10,11,-1,10,12,11,-1,11,12,13,-1,13,12,14,-1,14,12,15,-1,14,15,2,-1,2,15,0,-1,16,1,15,-1,15,1,0,-1,10,8,12,-1,12,8,5,-1,17,18,15,-1,15,18,19,-1,20,21,12,-1,12,21,22,-1,12,22,15,-1,15,22,23,-1,15,23,17,-1,24,4,25,-1,25,26,24,-1,24,26,27,-1,24,27,28,-1,29,30,15,-1,15,30,31,-1,15,31,16,-1,4,24,5,-1,5,24,32,-1,5,32,12,-1,12,32,33,-1,12,33,20,-1,19,34,15,-1,15,34,35,-1,15,35,29,-1,36,37,38,-1,38,37,39,-1,40,41,42,-1,39,37,42,-1,42,37,43,-1,42,43,40,-1,40,44,41,-1,41,44,45,-1,44,46,45,-1,45,46,47,-1,46,48,47,-1,47,48,49,-1,50,51,52,-1,52,51,53,-1,52,53,38,-1,38,53,36,-1,43,37,53,-1,53,37,36,-1,46,44,48,-1,48,44,40,-1,43,53,51,-1,51,54,43,-1,43,54,55,-1,43,55,56,-1,57,58,43,-1,43,58,59,-1,43,59,40,-1,40,59,60,-1,40,60,61,-1,61,62,40,-1,40,62,63,-1,40,63,48,-1,48,63,64,-1,48,64,65,-1,56,66,43,-1,43,66,67,-1,43,67,57,-1,68,65,69,-1,69,65,70,-1,68,71,65,-1,65,71,72,-1,65,72,48,-1,73,74,75,-1,75,74,76,-1,77,78,79,-1,75,76,79,-1,79,76,80,-1,79,80,77,-1,77,81,78,-1,78,81,82,-1,81,83,82,-1,82,83,84,-1,83,85,84,-1,84,85,86,-1,85,87,86,-1,86,87,88,-1,89,90,91,-1,91,90,92,-1,91,92,73,-1,73,92,74,-1,80,76,92,-1,92,76,74,-1,83,81,85,-1,85,81,77,-1,85,77,87,-1,80,92,90,-1,93,94,77,-1,77,94,95,-1,77,95,87,-1,87,95,96,-1,87,96,97,-1,90,98,80,-1,80,98,99,-1,80,99,100,-1,101,102,80,-1,80,102,103,-1,80,103,77,-1,77,103,104,-1,77,104,93,-1,105,97,106,-1,106,97,107,-1,105,108,97,-1,97,108,109,-1,97,109,87,-1,100,110,80,-1,80,110,111,-1,80,111,101,-1,112,113,114,-1,114,113,115,-1,116,117,118,-1,118,117,119,-1,119,117,120,-1,120,117,121,-1,120,121,112,-1,112,121,113,-1,122,123,124,-1,124,123,125,-1,123,126,125,-1,125,126,127,-1,126,116,127,-1,127,116,118,-1,128,115,121,-1,121,115,113,-1,116,126,117,-1,117,126,123,-1,117,123,122,-1,121,129,130,-1,131,132,117,-1,117,132,133,-1,117,133,121,-1,121,133,134,-1,121,134,135,-1,135,136,121,-1,121,136,137,-1,121,137,129,-1,122,138,117,-1,117,138,139,-1,117,139,140,-1,140,141,117,-1,117,141,142,-1,117,142,131,-1,143,144,121,-1,121,144,145,-1,121,145,128,-1,130,146,121,-1,121,146,147,-1,121,147,143,-1,148,130,149,-1,149,130,129,-1,149,129,150,-1,150,129,137,-1,150,137,151,-1,151,137,136,-1,151,136,152,-1,152,136,135,-1,152,135,153,-1,153,135,134,-1,153,134,154,-1,154,134,133,-1,154,133,155,-1,155,133,132,-1,155,132,156,-1,156,132,131,-1,156,131,157,-1,157,131,142,-1,158,97,159,-1,159,97,96,-1,159,96,160,-1,160,96,95,-1,160,95,161,-1,161,95,94,-1,161,94,162,-1,162,94,93,-1,162,93,163,-1,163,93,104,-1,163,104,164,-1,164,104,103,-1,164,103,165,-1,165,103,102,-1,165,102,166,-1,166,102,101,-1,166,101,167,-1,167,101,111,-1,168,65,169,-1,169,65,64,-1,169,64,170,-1,170,64,63,-1,170,63,171,-1,171,63,62,-1,171,62,172,-1,172,62,61,-1,172,61,173,-1,173,61,60,-1,173,60,174,-1,174,60,59,-1,174,59,175,-1,175,59,58,-1,175,58,176,-1,176,58,57,-1,176,57,177,-1,177,57,67,-1,178,19,179,-1,179,19,18,-1,179,18,180,-1,180,18,17,-1,180,17,181,-1,181,17,23,-1,181,23,182,-1,182,23,22,-1,182,22,183,-1,183,22,21,-1,183,21,184,-1,184,21,20,-1,184,20,185,-1,185,20,33,-1,185,33,186,-1,186,33,32,-1,186,32,187,-1,187,32,24,-1,177,67,66,-1,177,66,188,-1,188,66,56,-1,188,56,189,-1,189,56,55,-1,189,55,190,-1,190,55,54,-1,190,54,191,-1,191,54,51,-1,191,51,50,-1,192,72,71,-1,192,71,193,-1,193,71,68,-1,193,68,194,-1,194,68,69,-1,194,69,195,-1,195,69,70,-1,195,70,196,-1,196,70,65,-1,196,65,168,-1,197,145,144,-1,197,144,198,-1,198,144,143,-1,198,143,199,-1,199,143,147,-1,199,147,200,-1,200,147,146,-1,200,146,201,-1,201,146,130,-1,201,130,148,-1,157,142,141,-1,157,141,202,-1,202,141,140,-1,202,140,203,-1,203,140,139,-1,203,139,204,-1,204,139,138,-1,204,138,205,-1,205,138,122,-1,205,122,124,-1,167,111,110,-1,167,110,206,-1,206,110,100,-1,206,100,207,-1,207,100,99,-1,207,99,208,-1,208,99,98,-1,208,98,209,-1,209,98,90,-1,209,90,89,-1,210,109,108,-1,210,108,211,-1,211,108,105,-1,211,105,212,-1,212,105,106,-1,212,106,213,-1,213,106,107,-1,213,107,214,-1,214,107,97,-1,214,97,158,-1,187,24,28,-1,187,28,215,-1,215,28,27,-1,215,27,216,-1,216,27,26,-1,216,26,217,-1,217,26,25,-1,217,25,218,-1,218,25,4,-1,218,4,6,-1,219,31,30,-1,219,30,220,-1,220,30,29,-1,220,29,221,-1,221,29,35,-1,221,35,222,-1,222,35,34,-1,222,34,223,-1,223,34,19,-1,223,19,178,-1,
        ]
    }
}
Shape{
    appearance Appearance {
        material  Material 	{
            diffuseColor 0.0 0.0 0.0
            specularColor 0.0 0.0 0.0
            ambientIntensity 0.0
            transparency 0.0
            shininess 0.5
        }
    }
    geometry IndexedFaceSet {
        ccw TRUE
        solid FALSE
        coord DEF co Coordinate {
            point [
                -0.4822 -0.6564 0.327, -0.4822 -0.657 0.3229, -0.4822 -0.6525 0.3266, -0.4822 -0.6531 0.3224, -0.497 -0.6564 0.327, -0.497 -0.6525 0.3266, -0.497 -0.6524 0.3596, -0.497 -0.6485 0.3592, -0.5018 -0.6524 0.3596, -0.5018 -0.6485 0.3592, -0.5018 -0.657 0.3229, -0.5018 -0.6531 0.3224, -0.4632 -0.657 0.3222, -0.4632 -0.6531 0.3218, -0.4576 -0.6531 0.3223, -0.4576 -0.657 0.3228, -0.4536 -0.6529 0.3236, -0.4536 -0.6568 0.3241, -0.453 -0.6529 0.3239, -0.453 -0.6568 0.3244, -0.453 -0.6562 0.3289, -0.453 -0.6523 0.3284, -0.4566 -0.6525 0.3268, -0.4566 -0.6564 0.3273, -0.4608 -0.6526 0.326, -0.4608 -0.6565 0.3265, -0.4625 -0.6526 0.326, -0.4625 -0.6565 0.3265, -0.4662 -0.6526 0.3264, -0.4662 -0.6565 0.3269, -0.4689 -0.6524 0.3274, -0.4689 -0.6563 0.3279, -0.4713 -0.6522 0.3291, -0.4713 -0.6561 0.3296, -0.472 -0.6521 0.3299, -0.472 -0.656 0.3303, -0.4737 -0.6519 0.3321, -0.4737 -0.6558 0.3326, -0.475 -0.6515 0.335, -0.475 -0.6554 0.3355, -0.4756 -0.6511 0.3386, -0.4756 -0.655 0.3391, -0.4757 -0.6508 0.3404, -0.4757 -0.6548 0.3408, -0.4751 -0.6502 0.3454, -0.4751 -0.6541 0.3459, -0.4738 -0.6498 0.3486, -0.4738 -0.6537 0.3491, -0.472 -0.6495 0.3511, -0.472 -0.6534 0.3516, -0.4718 -0.6495 0.3514, -0.4718 -0.6534 0.3519, -0.4696 -0.6493 0.3533, -0.4696 -0.6532 0.3538, -0.4667 -0.6491 0.3547, -0.4667 -0.653 0.3552, -0.4635 -0.649 0.3554, -0.4635 -0.6529 0.3559, -0.4617 -0.649 0.3555, -0.4617 -0.6529 0.356, -0.4571 -0.6491 0.355, -0.4571 -0.653 0.3554, -0.4534 -0.6492 0.3535, -0.4534 -0.6531 0.354, -0.453 -0.6493 0.3533, -0.453 -0.6532 0.3538, -0.453 -0.6526 0.3588, -0.453 -0.6486 0.3583, -0.4617 -0.6485 0.3598, -0.4617 -0.6524 0.3603, -0.4578 -0.6485 0.3595, -0.4569 -0.6524 0.3599, -0.4569 -0.6485 0.3594, -0.4643 -0.6485 0.3595, -0.4671 -0.6524 0.3596, -0.4671 -0.6485 0.3591, -0.471 -0.6487 0.3576, -0.471 -0.6526 0.3581, -0.4744 -0.649 0.3552, -0.4744 -0.6529 0.3557, -0.4754 -0.6491 0.3544, -0.4754 -0.653 0.3548, -0.478 -0.6496 0.3509, -0.478 -0.6535 0.3514, -0.4791 -0.6498 0.3485, -0.4798 -0.654 0.3473, -0.4798 -0.6501 0.3468, -0.4806 -0.6506 0.342, -0.4806 -0.6546 0.3425, -0.4807 -0.6509 0.3401, -0.4807 -0.6548 0.3406, -0.48 -0.6516 0.3341, -0.48 -0.6555 0.3346, -0.4791 -0.6519 0.3317, -0.4785 -0.656 0.3307, -0.4785 -0.6521 0.3302, -0.4763 -0.6525 0.3271, -0.4763 -0.6564 0.3276, -0.476 -0.6525 0.3268, -0.476 -0.6564 0.3273, -0.473 -0.6528 0.3243, -0.473 -0.6567 0.3248, -0.4695 -0.653 0.3227, -0.4695 -0.6569 0.3232, -0.4655 -0.6531 0.3219, -0.4655 -0.657 0.3223, -0.4256 -0.6564 0.327, -0.4256 -0.657 0.3229, -0.4256 -0.6525 0.3266, -0.4256 -0.6531 0.3224, -0.4408 -0.6525 0.3266, -0.4408 -0.6564 0.327, -0.4307 -0.6525 0.3266, -0.4408 -0.6549 0.3394, -0.4408 -0.651 0.3389, -0.4275 -0.6549 0.3394, -0.4307 -0.651 0.3389, -0.4275 -0.651 0.3389, -0.4275 -0.6544 0.3436, -0.4275 -0.6505 0.3432, -0.4408 -0.6505 0.3432, -0.4408 -0.6544 0.3436, -0.4307 -0.6505 0.3432, -0.4408 -0.653 0.3554, -0.4408 -0.6491 0.3549, -0.4264 -0.653 0.3554, -0.4307 -0.6491 0.3549, -0.4264 -0.6491 0.3549, -0.4264 -0.6524 0.3596, -0.4264 -0.6485 0.3592, -0.4455 -0.6485 0.3592, -0.4455 -0.6524 0.3596, -0.4307 -0.6485 0.3592, -0.4455 -0.657 0.3229, -0.4455 -0.6531 0.3224, -0.4307 -0.6531 0.3224, -0.394 -0.6563 0.328, -0.3978 -0.656 0.3305, -0.3979 -0.6567 0.3253, -0.4002 -0.6562 0.3288, -0.4021 -0.6569 0.3236, -0.4033 -0.6564 0.3277, -0.4084 -0.657 0.3229, -0.4084 -0.6564 0.327, -0.4186 -0.657 0.3229, -0.4138 -0.6564 0.327, -0.4186 -0.6524 0.3596, -0.4138 -0.653 0.3554, -0.408 -0.6524 0.3596, -0.4082 -0.653 0.3554, -0.4077 -0.653 0.3554, -0.4024 -0.6525 0.359, -0.403 -0.653 0.3548, -0.3979 -0.6527 0.3574, -0.3999 -0.6532 0.3536, -0.394 -0.653 0.3548, -0.3975 -0.6534 0.352, -0.3927 -0.6532 0.3535, -0.3965 -0.6535 0.3509, -0.3904 -0.6536 0.3503, -0.395 -0.6538 0.3489, -0.389 -0.654 0.3468, -0.394 -0.6541 0.3462, -0.3884 -0.6546 0.3417, -0.3934 -0.6547 0.3416, -0.3885 -0.6549 0.3394, -0.3936 -0.655 0.339, -0.3894 -0.6555 0.3351, -0.3944 -0.6554 0.3357, -0.3913 -0.6559 0.3313, -0.3957 -0.6557 0.333, -0.3974 -0.656 0.3309, -0.4084 -0.6531 0.3224, -0.4186 -0.6531 0.3224, -0.394 -0.6524 0.3275, -0.4021 -0.653 0.3231, -0.4016 -0.6529 0.3233, -0.3979 -0.6528 0.3248, -0.3913 -0.652 0.3308, -0.3894 -0.6516 0.3346, -0.3885 -0.651 0.3389, -0.3884 -0.6507 0.3412, -0.389 -0.6501 0.3463, -0.3904 -0.6497 0.3498, -0.3927 -0.6493 0.353, -0.394 -0.6491 0.3543, -0.408 -0.6485 0.3592, -0.3979 -0.6488 0.3569, -0.4016 -0.6486 0.3583, -0.4024 -0.6486 0.3585, -0.4186 -0.6485 0.3592, -0.4082 -0.6491 0.3549, -0.4138 -0.6491 0.3549, -0.4138 -0.6525 0.3266, -0.4084 -0.6525 0.3266, -0.3974 -0.6521 0.3304, -0.3978 -0.6521 0.33, -0.4002 -0.6523 0.3284, -0.4033 -0.6525 0.3272, -0.3934 -0.6508 0.3411, -0.3936 -0.6511 0.3385, -0.3944 -0.6515 0.3352, -0.3957 -0.6518 0.3325, -0.3975 -0.6495 0.3515, -0.3965 -0.6496 0.3505, -0.395 -0.6499 0.3484, -0.394 -0.6502 0.3457, -0.4077 -0.6491 0.3549, -0.403 -0.6491 0.3543, -0.3999 -0.6493 0.3531
            ]
        }
        coordIndex [
            0,1,2,-1,2,1,3,-1,4,0,5,-1,5,0,2,-1,6,4,7,-1,7,4,5,-1,8,6,9,-1,9,6,7,-1,10,8,11,-1,11,8,9,-1,1,10,3,-1,3,10,11,-1,6,8,4,-1,4,8,10,-1,4,10,0,-1,0,10,1,-1,12,13,14,-1,12,14,15,-1,15,14,16,-1,15,16,17,-1,17,16,18,-1,17,18,19,-1,20,19,21,-1,21,19,18,-1,20,21,22,-1,20,22,23,-1,23,22,24,-1,23,24,25,-1,25,24,26,-1,25,26,27,-1,27,26,28,-1,27,28,29,-1,29,28,30,-1,29,30,31,-1,31,30,32,-1,31,32,33,-1,33,32,34,-1,33,34,35,-1,35,34,36,-1,35,36,37,-1,37,36,38,-1,37,38,39,-1,39,38,40,-1,39,40,41,-1,41,40,42,-1,41,42,43,-1,43,42,44,-1,43,44,45,-1,45,44,46,-1,45,46,47,-1,47,46,48,-1,47,48,49,-1,49,48,50,-1,49,50,51,-1,51,50,52,-1,51,52,53,-1,53,52,54,-1,53,54,55,-1,55,54,56,-1,55,56,57,-1,57,56,58,-1,57,58,59,-1,59,58,60,-1,59,60,61,-1,61,60,62,-1,61,62,63,-1,63,62,64,-1,63,64,65,-1,66,65,67,-1,67,65,64,-1,68,69,70,-1,70,69,71,-1,70,71,72,-1,72,71,66,-1,72,66,67,-1,69,68,73,-1,69,73,74,-1,73,75,74,-1,74,75,76,-1,74,76,77,-1,77,76,78,-1,77,78,79,-1,79,78,80,-1,79,80,81,-1,81,80,82,-1,81,82,83,-1,83,82,84,-1,83,84,85,-1,84,86,85,-1,85,86,87,-1,85,87,88,-1,88,87,89,-1,88,89,90,-1,90,89,91,-1,90,91,92,-1,92,91,93,-1,92,93,94,-1,93,95,94,-1,94,95,96,-1,94,96,97,-1,97,96,98,-1,97,98,99,-1,99,98,100,-1,99,100,101,-1,101,100,102,-1,101,102,103,-1,103,102,104,-1,103,104,105,-1,105,104,13,-1,105,13,12,-1,53,55,74,-1,45,47,83,-1,83,47,81,-1,74,55,69,-1,55,57,69,-1,69,57,59,-1,69,59,71,-1,71,59,61,-1,71,61,66,-1,66,61,63,-1,66,63,65,-1,19,20,17,-1,17,20,23,-1,17,23,15,-1,15,23,25,-1,15,25,12,-1,12,25,27,-1,12,27,105,-1,105,27,29,-1,105,29,103,-1,103,29,31,-1,103,31,101,-1,101,31,33,-1,101,33,99,-1,99,33,35,-1,99,35,97,-1,97,35,37,-1,97,37,94,-1,90,43,88,-1,88,43,45,-1,88,45,85,-1,85,45,83,-1,47,49,81,-1,81,49,51,-1,81,51,79,-1,79,51,53,-1,79,53,77,-1,77,53,74,-1,94,37,92,-1,92,37,39,-1,92,39,90,-1,90,39,41,-1,90,41,43,-1,106,107,108,-1,108,107,109,-1,110,111,112,-1,112,111,106,-1,112,106,108,-1,113,111,114,-1,114,111,110,-1,113,114,115,-1,115,114,116,-1,115,116,117,-1,118,115,119,-1,119,115,117,-1,120,121,122,-1,122,121,118,-1,122,118,119,-1,123,121,124,-1,124,121,120,-1,123,124,125,-1,125,124,126,-1,125,126,127,-1,128,125,129,-1,129,125,127,-1,130,131,132,-1,132,131,128,-1,132,128,129,-1,133,131,134,-1,134,131,130,-1,133,134,107,-1,107,134,135,-1,107,135,109,-1,133,107,106,-1,106,111,133,-1,133,111,113,-1,133,113,131,-1,125,128,123,-1,123,128,131,-1,123,131,121,-1,121,131,113,-1,121,113,118,-1,118,113,115,-1,136,137,138,-1,138,137,139,-1,138,139,140,-1,140,139,141,-1,140,141,142,-1,142,141,143,-1,142,143,144,-1,144,143,145,-1,144,145,146,-1,146,145,147,-1,146,147,148,-1,147,149,148,-1,148,149,150,-1,148,150,151,-1,151,150,152,-1,151,152,153,-1,153,152,154,-1,153,154,155,-1,155,154,156,-1,155,156,157,-1,157,156,158,-1,157,158,159,-1,159,158,160,-1,159,160,161,-1,161,160,162,-1,161,162,163,-1,163,162,164,-1,163,164,165,-1,165,164,166,-1,165,166,167,-1,167,166,168,-1,167,168,169,-1,169,168,170,-1,169,170,136,-1,136,170,171,-1,136,171,137,-1,142,144,172,-1,172,144,173,-1,174,136,138,-1,142,172,175,-1,142,175,140,-1,140,175,176,-1,140,176,138,-1,138,176,177,-1,138,177,174,-1,136,174,178,-1,136,178,169,-1,169,178,179,-1,169,179,167,-1,167,179,180,-1,167,180,165,-1,165,180,181,-1,165,181,163,-1,163,181,182,-1,163,182,161,-1,161,182,183,-1,161,183,159,-1,159,183,184,-1,159,184,157,-1,157,184,185,-1,157,185,155,-1,186,148,151,-1,155,185,187,-1,155,187,153,-1,153,187,188,-1,153,188,151,-1,151,188,189,-1,151,189,186,-1,146,148,190,-1,190,148,186,-1,144,146,173,-1,173,146,190,-1,149,147,191,-1,191,147,192,-1,147,145,192,-1,192,145,193,-1,145,143,193,-1,193,143,194,-1,171,195,196,-1,171,196,137,-1,137,196,197,-1,137,197,139,-1,139,197,198,-1,139,198,141,-1,141,198,194,-1,141,194,143,-1,164,199,200,-1,164,200,166,-1,166,200,201,-1,166,201,168,-1,168,201,202,-1,168,202,170,-1,170,202,195,-1,170,195,171,-1,156,203,204,-1,156,204,158,-1,158,204,205,-1,158,205,160,-1,160,205,206,-1,160,206,162,-1,162,206,199,-1,162,199,164,-1,149,191,207,-1,149,207,150,-1,150,207,208,-1,150,208,152,-1,152,208,209,-1,152,209,154,-1,154,209,203,-1,154,203,156,-1,
        ]
    }
}
Shape{
    appearance Appearance {
        material  Material 	{
            diffuseColor 1.0 1.0 1.0
            specularColor 0.5019607843137255 0.5019607843137255 0.5019607843137255
            ambientIntensity 1.0
            transparency 0.0
            shininess 0.5
        }
    }
    geometry IndexedFaceSet {
        ccw TRUE
        solid FALSE
        coord DEF co Coordinate {
            point [
                -0.4138 -0.6491 0.3549, -0.4138 -0.6525 0.3266, -0.4082 -0.6491 0.3549, -0.4084 -0.6525 0.3266, -0.4077 -0.6491 0.3549, -0.4033 -0.6525 0.3272, -0.4002 -0.6523 0.3284, -0.3978 -0.6521 0.33, -0.3974 -0.6521 0.3304, -0.3957 -0.6518 0.3325, -0.3934 -0.6508 0.3411, -0.3975 -0.6495 0.3515, -0.3936 -0.6511 0.3385, -0.3999 -0.6493 0.3531, -0.3944 -0.6515 0.3352, -0.403 -0.6491 0.3543, -0.394 -0.6502 0.3457, -0.395 -0.6499 0.3484, -0.3965 -0.6496 0.3505
            ]
        }
        coordIndex [
            0,1,2,-1,2,1,3,-1,2,3,4,-1,4,3,5,-1,4,5,6,-1,6,7,4,-1,4,7,8,-1,4,8,9,-1,10,11,12,-1,12,11,13,-1,9,14,4,-1,4,14,12,-1,4,12,15,-1,15,12,13,-1,16,17,10,-1,10,17,18,-1,10,18,11,-1,
        ]
    }
}
Shape{
    appearance Appearance {
        material  Material 	{
            diffuseColor 0.0 0.0 0.0
            specularColor 0.0 0.0 0.0
            ambientIntensity 0.0
            transparency 0.0
            shininess 0.5
        }
    }
    geometry IndexedFaceSet {
        ccw TRUE
        solid FALSE
        coord DEF co Coordinate {
            point [
                -0.376 -0.6552 0.3371, -0.3775 -0.6557 0.3329, -0.3636 -0.6552 0.3371, -0.3621 -0.6557 0.3329, -0.3705 -0.6533 0.3524, -0.3722 -0.6524 0.3596, -0.3864 -0.657 0.3229, -0.3811 -0.657 0.3229, -0.3701 -0.6532 0.3535, -0.3698 -0.653 0.3549, -0.3671 -0.6524 0.3596, -0.3697 -0.653 0.3549, -0.3694 -0.6532 0.3534, -0.3692 -0.6533 0.3524, -0.353 -0.657 0.3229, -0.3583 -0.657 0.3229, -0.3671 -0.6485 0.3592, -0.353 -0.6531 0.3224, -0.3722 -0.6485 0.3592, -0.3864 -0.6531 0.3224, -0.3757 -0.6496 0.3502, -0.3811 -0.6531 0.3224, -0.3775 -0.6518 0.3324, -0.3621 -0.6518 0.3324, -0.3757 -0.6518 0.3324, -0.3583 -0.6531 0.3224, -0.376 -0.6513 0.3366, -0.3636 -0.6513 0.3366, -0.3692 -0.6494 0.3519, -0.3697 -0.6491 0.3545, -0.3694 -0.6493 0.3529, -0.3698 -0.6491 0.3545, -0.3705 -0.6494 0.3519, -0.3701 -0.6493 0.353
            ]
        }
        coordIndex [
            0,1,2,-1,2,1,3,-1,4,5,0,-1,0,5,6,-1,0,6,1,-1,1,6,7,-1,4,8,5,-1,5,8,9,-1,5,9,10,-1,10,9,11,-1,10,11,12,-1,12,13,10,-1,10,13,2,-1,10,2,14,-1,14,2,3,-1,14,3,15,-1,10,14,16,-1,16,14,17,-1,5,10,18,-1,18,10,16,-1,19,6,20,-1,20,6,5,-1,20,5,18,-1,7,6,21,-1,21,6,19,-1,1,7,22,-1,22,7,21,-1,23,3,24,-1,24,3,1,-1,24,1,22,-1,15,3,25,-1,25,3,23,-1,14,15,17,-1,17,15,25,-1,0,2,26,-1,26,2,27,-1,2,13,27,-1,27,13,28,-1,11,29,30,-1,11,30,12,-1,12,30,28,-1,12,28,13,-1,11,9,29,-1,29,9,31,-1,4,32,33,-1,4,33,8,-1,8,33,31,-1,8,31,9,-1,4,0,32,-1,32,0,26,-1,
        ]
    }
}
Shape{
    appearance Appearance {
        material  Material 	{
            diffuseColor 1.0 1.0 1.0
            specularColor 0.5019607843137255 0.5019607843137255 0.5019607843137255
            ambientIntensity 1.0
            transparency 0.0
            shininess 0.5
        }
    }
    geometry IndexedFaceSet {
        ccw TRUE
        solid FALSE
        coord DEF co Coordinate {
            point [
                -0.3697 -0.6491 0.3545, -0.3698 -0.6491 0.3545, -0.3694 -0.6493 0.3529, -0.3701 -0.6493 0.353, -0.3692 -0.6494 0.3519, -0.3705 -0.6494 0.3519, -0.3636 -0.6513 0.3366, -0.376 -0.6513 0.3366
            ]
        }
        coordIndex [
            0,1,2,-1,2,1,3,-1,2,3,4,-1,4,3,5,-1,4,5,6,-1,6,5,7,-1,
        ]
    }
}
Shape{
    appearance Appearance {
        material  Material 	{
            diffuseColor 0.0 0.0 0.0
            specularColor 0.0 0.0 0.0
            ambientIntensity 0.0
            transparency 0.0
            shininess 0.5
        }
    }
    geometry IndexedFaceSet {
        ccw TRUE
        solid FALSE
        coord DEF co Coordinate {
            point [
                -0.4818 -0.6636 0.2687, -0.4818 -0.6641 0.2645, -0.4818 -0.6597 0.2682, -0.4818 -0.6602 0.264, -0.497 -0.6636 0.2687, -0.497 -0.6597 0.2682, -0.497 -0.6621 0.2811, -0.497 -0.6582 0.2806, -0.4837 -0.6621 0.2811, -0.4837 -0.6582 0.2806, -0.4837 -0.6616 0.2853, -0.4837 -0.6577 0.2848, -0.497 -0.6616 0.2853, -0.497 -0.6577 0.2848, -0.497 -0.6601 0.297, -0.497 -0.6562 0.2966, -0.4827 -0.6601 0.297, -0.4827 -0.6562 0.2966, -0.4827 -0.6596 0.3013, -0.4827 -0.6557 0.3008, -0.5018 -0.6596 0.3013, -0.5018 -0.6557 0.3008, -0.5018 -0.6641 0.2645, -0.5018 -0.6602 0.264, -0.471 -0.6628 0.2756, -0.47 -0.6627 0.2761, -0.4724 -0.6623 0.2791, -0.4686 -0.6622 0.2801, -0.467 -0.6626 0.2768, -0.4608 -0.6621 0.2812, -0.4609 -0.6636 0.2685, -0.4608 -0.6636 0.2685, -0.4611 -0.6631 0.2728, -0.4608 -0.6629 0.2748, -0.4561 -0.6621 0.2814, -0.4608 -0.6628 0.2752, -0.4608 -0.6625 0.2777, -0.4608 -0.6641 0.2645, -0.4561 -0.6641 0.2645, -0.4626 -0.6609 0.291, -0.4635 -0.6614 0.2871, -0.4607 -0.6609 0.2904, -0.4627 -0.6614 0.2866, -0.4609 -0.6618 0.2832, -0.4566 -0.6616 0.2852, -0.4614 -0.6616 0.2849, -0.4573 -0.6613 0.2872, -0.462 -0.6615 0.2858, -0.4583 -0.6612 0.2887, -0.4592 -0.6611 0.2895, -0.4748 -0.6611 0.2889, -0.4748 -0.6617 0.2844, -0.4738 -0.6611 0.2895, -0.4716 -0.6614 0.2864, -0.4704 -0.6609 0.2908, -0.4687 -0.6613 0.2874, -0.4657 -0.6608 0.2914, -0.4661 -0.6613 0.2876, -0.4646 -0.6613 0.2875, -0.4617 -0.6633 0.2711, -0.4628 -0.6635 0.2698, -0.462 -0.6638 0.267, -0.4633 -0.6635 0.2692, -0.4635 -0.664 0.2656, -0.4646 -0.6637 0.2683, -0.4646 -0.6641 0.2649, -0.4661 -0.6637 0.2678, -0.4664 -0.6642 0.2642, -0.4678 -0.6637 0.2676, -0.469 -0.6642 0.2639, -0.4694 -0.6637 0.2678, -0.4718 -0.6642 0.2642, -0.4704 -0.6637 0.2682, -0.4736 -0.6641 0.2649, -0.4713 -0.6636 0.2688, -0.4751 -0.6639 0.2659, -0.4717 -0.6635 0.2692, -0.4715 -0.6628 0.2752, -0.4743 -0.6625 0.2781, -0.472 -0.6629 0.2745, -0.4757 -0.6626 0.2769, -0.4724 -0.663 0.2737, -0.4766 -0.6628 0.2754, -0.4726 -0.6631 0.2726, -0.4772 -0.663 0.2737, -0.4727 -0.6632 0.2719, -0.4774 -0.6633 0.2715, -0.4726 -0.6633 0.2708, -0.4772 -0.6635 0.2694, -0.4723 -0.6634 0.27, -0.4766 -0.6637 0.2679, -0.4756 -0.6639 0.2664, -0.4657 -0.6569 0.2909, -0.4704 -0.657 0.2903, -0.4738 -0.6572 0.289, -0.4748 -0.6572 0.2884, -0.4748 -0.6578 0.284, -0.4716 -0.6575 0.286, -0.4687 -0.6574 0.2869, -0.4661 -0.6574 0.2871, -0.4646 -0.6574 0.287, -0.4635 -0.6574 0.2866, -0.4627 -0.6575 0.2861, -0.462 -0.6576 0.2853, -0.4614 -0.6577 0.2844, -0.4609 -0.6579 0.2827, -0.4608 -0.6582 0.2807, -0.4686 -0.6583 0.2796, -0.4724 -0.6584 0.2786, -0.4743 -0.6585 0.2776, -0.4757 -0.6587 0.2764, -0.4766 -0.6589 0.2749, -0.4772 -0.6591 0.2732, -0.4774 -0.6594 0.271, -0.4772 -0.6596 0.2689, -0.4766 -0.6598 0.2674, -0.4756 -0.66 0.266, -0.4751 -0.66 0.2655, -0.469 -0.6603 0.2634, -0.4717 -0.6603 0.2637, -0.4718 -0.6603 0.2637, -0.4736 -0.6602 0.2644, -0.4664 -0.6603 0.2637, -0.4664 -0.6603 0.2637, -0.4646 -0.6602 0.2644, -0.4635 -0.6601 0.2651, -0.462 -0.6599 0.2665, -0.4609 -0.6597 0.2681, -0.4608 -0.6597 0.2681, -0.4608 -0.6602 0.264, -0.4561 -0.6602 0.264, -0.4561 -0.6581 0.2809, -0.4566 -0.6577 0.2848, -0.4573 -0.6574 0.2867, -0.4583 -0.6573 0.2882, -0.4592 -0.6571 0.289, -0.4607 -0.657 0.2899, -0.4626 -0.657 0.2906, -0.4715 -0.6589 0.2747, -0.471 -0.6589 0.2751, -0.47 -0.6588 0.2756, -0.467 -0.6587 0.2764, -0.4727 -0.6593 0.2714, -0.4726 -0.6592 0.2721, -0.4724 -0.6591 0.2732, -0.472 -0.659 0.2741, -0.4713 -0.6597 0.2683, -0.4717 -0.6596 0.2687, -0.4723 -0.6595 0.2695, -0.4726 -0.6594 0.2704, -0.4678 -0.6598 0.2672, -0.4694 -0.6598 0.2673, -0.4704 -0.6598 0.2677, -0.4628 -0.6596 0.2693, -0.4633 -0.6596 0.2687, -0.4646 -0.6597 0.2679, -0.4661 -0.6598 0.2674, -0.4608 -0.6589 0.2747, -0.4608 -0.6589 0.2744, -0.4611 -0.6592 0.2723, -0.4617 -0.6594 0.2707, -0.4608 -0.6586 0.2772
            ]
        }
        coordIndex [
            0,1,2,-1,2,1,3,-1,4,0,5,-1,5,0,2,-1,6,4,7,-1,7,4,5,-1,8,6,9,-1,9,6,7,-1,10,8,11,-1,11,8,9,-1,12,10,13,-1,13,10,11,-1,14,12,15,-1,15,12,13,-1,16,14,17,-1,17,14,15,-1,18,16,19,-1,19,16,17,-1,20,18,21,-1,21,18,19,-1,22,20,23,-1,23,20,21,-1,1,22,3,-1,3,22,23,-1,22,1,0,-1,0,4,22,-1,22,4,6,-1,22,6,20,-1,16,18,14,-1,14,18,20,-1,14,20,12,-1,12,20,6,-1,12,6,10,-1,10,6,8,-1,24,25,26,-1,26,25,27,-1,27,25,28,-1,27,28,29,-1,30,31,32,-1,33,34,35,-1,35,34,36,-1,37,38,31,-1,31,38,34,-1,31,34,32,-1,32,34,33,-1,39,40,41,-1,41,40,42,-1,28,36,29,-1,29,36,34,-1,29,34,43,-1,43,34,44,-1,43,44,45,-1,45,44,46,-1,45,46,47,-1,47,46,48,-1,47,48,42,-1,42,48,49,-1,42,49,41,-1,50,51,52,-1,52,51,53,-1,52,53,54,-1,54,53,55,-1,54,55,56,-1,56,55,57,-1,56,57,39,-1,39,57,58,-1,39,58,40,-1,32,59,30,-1,30,59,60,-1,30,60,61,-1,61,60,62,-1,61,62,63,-1,63,62,64,-1,63,64,65,-1,65,64,66,-1,65,66,67,-1,67,66,68,-1,67,68,69,-1,69,68,70,-1,69,70,71,-1,71,70,72,-1,71,72,73,-1,73,72,74,-1,73,74,75,-1,75,74,76,-1,24,26,77,-1,77,26,78,-1,77,78,79,-1,79,78,80,-1,79,80,81,-1,81,80,82,-1,81,82,83,-1,83,82,84,-1,83,84,85,-1,85,84,86,-1,85,86,87,-1,87,86,88,-1,87,88,89,-1,89,88,90,-1,89,90,76,-1,76,90,91,-1,76,91,75,-1,56,92,93,-1,56,93,54,-1,54,93,94,-1,54,94,52,-1,52,94,95,-1,52,95,50,-1,51,50,96,-1,96,50,95,-1,51,96,97,-1,51,97,53,-1,53,97,98,-1,53,98,55,-1,55,98,99,-1,55,99,57,-1,57,99,100,-1,57,100,58,-1,58,100,101,-1,58,101,40,-1,40,101,102,-1,40,102,42,-1,42,102,103,-1,42,103,47,-1,47,103,104,-1,47,104,45,-1,45,104,105,-1,45,105,43,-1,43,105,106,-1,43,106,29,-1,27,29,107,-1,107,29,106,-1,27,107,108,-1,27,108,26,-1,26,108,109,-1,26,109,78,-1,78,109,110,-1,78,110,80,-1,80,110,111,-1,80,111,82,-1,82,111,112,-1,82,112,84,-1,84,112,113,-1,84,113,86,-1,86,113,114,-1,86,114,88,-1,88,114,115,-1,88,115,90,-1,90,115,116,-1,90,116,91,-1,91,116,117,-1,91,117,75,-1,118,69,119,-1,119,69,71,-1,119,71,120,-1,120,71,73,-1,120,73,121,-1,121,73,75,-1,121,75,117,-1,69,118,122,-1,123,65,122,-1,122,65,67,-1,122,67,69,-1,123,124,65,-1,65,124,125,-1,65,125,63,-1,63,125,126,-1,63,126,61,-1,61,126,127,-1,61,127,30,-1,31,30,128,-1,128,30,127,-1,37,31,129,-1,129,31,128,-1,38,37,130,-1,130,37,129,-1,34,38,131,-1,131,38,130,-1,34,131,132,-1,34,132,44,-1,44,132,133,-1,44,133,46,-1,46,133,134,-1,46,134,48,-1,48,134,135,-1,48,135,49,-1,49,135,136,-1,49,136,41,-1,41,136,137,-1,41,137,39,-1,39,137,92,-1,39,92,56,-1,77,138,139,-1,77,139,24,-1,24,139,140,-1,24,140,25,-1,25,140,141,-1,25,141,28,-1,85,142,143,-1,85,143,83,-1,83,143,144,-1,83,144,81,-1,81,144,145,-1,81,145,79,-1,79,145,138,-1,79,138,77,-1,74,146,147,-1,74,147,76,-1,76,147,148,-1,76,148,89,-1,89,148,149,-1,89,149,87,-1,87,149,142,-1,87,142,85,-1,68,150,151,-1,68,151,70,-1,70,151,152,-1,70,152,72,-1,72,152,146,-1,72,146,74,-1,60,153,154,-1,60,154,62,-1,62,154,155,-1,62,155,64,-1,64,155,156,-1,64,156,66,-1,66,156,150,-1,66,150,68,-1,35,157,158,-1,35,158,33,-1,33,158,159,-1,33,159,32,-1,32,159,160,-1,32,160,59,-1,59,160,153,-1,59,153,60,-1,35,36,157,-1,157,36,161,-1,36,28,161,-1,161,28,141,-1,
        ]
    }
}
Shape{
    appearance Appearance {
        material  Material 	{
            diffuseColor 1.0 1.0 1.0
            specularColor 0.5019607843137255 0.5019607843137255 0.5019607843137255
            ambientIntensity 1.0
            transparency 0.0
            shininess 0.5
        }
    }
    geometry IndexedFaceSet {
        ccw TRUE
        solid FALSE
        coord DEF co Coordinate {
            point [
                -0.4608 -0.6589 0.2744, -0.4608 -0.6589 0.2747, -0.4715 -0.6589 0.2747, -0.4608 -0.6586 0.2772, -0.467 -0.6587 0.2764, -0.47 -0.6588 0.2756, -0.471 -0.6589 0.2751, -0.4611 -0.6592 0.2723, -0.472 -0.659 0.2741, -0.4617 -0.6594 0.2707, -0.4717 -0.6596 0.2687, -0.4713 -0.6597 0.2683, -0.4633 -0.6596 0.2687, -0.4723 -0.6595 0.2695, -0.4646 -0.6597 0.2679, -0.4661 -0.6598 0.2674, -0.4678 -0.6598 0.2672, -0.4724 -0.6591 0.2732, -0.4726 -0.6592 0.2721, -0.4628 -0.6596 0.2693, -0.4727 -0.6593 0.2714, -0.4726 -0.6594 0.2704, -0.4704 -0.6598 0.2677, -0.4694 -0.6598 0.2673
            ]
        }
        coordIndex [
            0,1,2,-1,1,3,4,-1,4,5,1,-1,1,5,6,-1,1,6,2,-1,0,2,7,-1,7,2,8,-1,7,8,9,-1,10,11,12,-1,10,12,13,-1,14,12,15,-1,15,12,16,-1,8,17,9,-1,9,17,18,-1,9,18,19,-1,19,18,20,-1,19,20,12,-1,12,20,21,-1,12,21,13,-1,11,22,12,-1,12,22,23,-1,12,23,16,-1,
        ]
    }
}
Shape{
    appearance Appearance {
        material  Material 	{
            diffuseColor 0.0 0.0 0.0
            specularColor 0.0 0.0 0.0
            ambientIntensity 0.0
            transparency 0.0
            shininess 0.5
        }
    }
    geometry IndexedFaceSet {
        ccw TRUE
        solid FALSE
        coord DEF co Coordinate {
            point [
                -0.4498 -0.6595 0.2697, -0.4498 -0.6634 0.2702, -0.4479 -0.6636 0.269, -0.4422 -0.6637 0.2676, -0.4422 -0.6598 0.2671, -0.445 -0.6598 0.2675, -0.445 -0.6637 0.2679, -0.4477 -0.6597 0.2684, -0.4479 -0.6597 0.2685, -0.4498 -0.664 0.2654, -0.4498 -0.6601 0.2649, -0.4477 -0.6602 0.2641, -0.4471 -0.6641 0.2644, -0.4426 -0.6603 0.2634, -0.4426 -0.6642 0.2639, -0.4453 -0.6603 0.2637, -0.4471 -0.6602 0.2639, -0.44 -0.6603 0.2637, -0.4385 -0.6641 0.2644, -0.4385 -0.6602 0.2639, -0.436 -0.6601 0.2648, -0.436 -0.664 0.2653, -0.4349 -0.66 0.2655, -0.4349 -0.6639 0.266, -0.4336 -0.6599 0.2666, -0.4336 -0.6638 0.2671, -0.4327 -0.6597 0.2678, -0.4327 -0.6637 0.2683, -0.4322 -0.6596 0.2693, -0.4322 -0.6635 0.2698, -0.4319 -0.6593 0.2712, -0.4319 -0.6632 0.2716, -0.4321 -0.6591 0.2729, -0.4321 -0.663 0.2733, -0.4326 -0.659 0.2742, -0.4326 -0.6629 0.2747, -0.4335 -0.6588 0.2755, -0.4335 -0.6627 0.276, -0.4346 -0.6587 0.2765, -0.4346 -0.6626 0.277, -0.4377 -0.6585 0.2782, -0.4377 -0.6624 0.2787, -0.4395 -0.6584 0.2789, -0.4395 -0.6623 0.2794, -0.4424 -0.6582 0.2801, -0.4424 -0.6621 0.2806, -0.444 -0.6581 0.2812, -0.444 -0.662 0.2816, -0.4445 -0.6581 0.2817, -0.4445 -0.662 0.2821, -0.4448 -0.658 0.2823, -0.4448 -0.6619 0.2828, -0.445 -0.6579 0.283, -0.445 -0.6618 0.2835, -0.445 -0.6578 0.2836, -0.445 -0.6617 0.2841, -0.4449 -0.6577 0.2843, -0.4449 -0.6616 0.2848, -0.4447 -0.6576 0.285, -0.4447 -0.6616 0.2854, -0.4443 -0.6576 0.2855, -0.4443 -0.6615 0.286, -0.4436 -0.6575 0.2862, -0.4436 -0.6614 0.2866, -0.4426 -0.6574 0.2867, -0.4426 -0.6613 0.2872, -0.4413 -0.6574 0.287, -0.4413 -0.6613 0.2875, -0.4399 -0.6574 0.2871, -0.4399 -0.6613 0.2876, -0.4371 -0.6574 0.2868, -0.4371 -0.6613 0.2873, -0.4344 -0.6575 0.2859, -0.4344 -0.6614 0.2864, -0.4332 -0.6576 0.2852, -0.4332 -0.6615 0.2857, -0.4332 -0.661 0.2902, -0.4332 -0.6571 0.2897, -0.4362 -0.657 0.2906, -0.4362 -0.6609 0.2911, -0.4395 -0.6569 0.2909, -0.4395 -0.6608 0.2914, -0.4426 -0.657 0.2906, -0.4426 -0.6609 0.2911, -0.4452 -0.6571 0.2897, -0.4452 -0.661 0.2902, -0.4468 -0.6572 0.2888, -0.4468 -0.6611 0.2893, -0.4477 -0.6573 0.288, -0.4482 -0.6612 0.288, -0.4482 -0.6573 0.2876, -0.4491 -0.6575 0.2863, -0.4491 -0.6614 0.2868, -0.4496 -0.6577 0.2848, -0.4496 -0.6616 0.2853, -0.4498 -0.6579 0.2832, -0.4498 -0.6618 0.2837, -0.4496 -0.6581 0.2814, -0.4496 -0.662 0.2819, -0.4491 -0.6583 0.28, -0.4491 -0.6622 0.2805, -0.4485 -0.6584 0.279, -0.4485 -0.6623 0.2795, -0.4428 -0.6588 0.2756, -0.4428 -0.6627 0.276, -0.4455 -0.6626 0.2773, -0.4477 -0.6585 0.2782, -0.4477 -0.6624 0.2787, -0.4477 -0.6585 0.2782, -0.4455 -0.6586 0.2768, -0.4397 -0.659 0.2743, -0.4397 -0.6629 0.2748, -0.4379 -0.6591 0.2732, -0.4379 -0.663 0.2737, -0.4373 -0.6592 0.2726, -0.4373 -0.6631 0.2731, -0.437 -0.6592 0.272, -0.437 -0.6631 0.2725, -0.4368 -0.6593 0.2713, -0.4368 -0.6632 0.2718, -0.4367 -0.6594 0.2707, -0.4367 -0.6633 0.2712, -0.4368 -0.6595 0.2698, -0.4368 -0.6634 0.2703, -0.437 -0.6596 0.2692, -0.437 -0.6635 0.2696, -0.4375 -0.6597 0.2686, -0.4375 -0.6636 0.2691, -0.438 -0.6597 0.2681, -0.438 -0.6636 0.2686, -0.4384 -0.6597 0.2678, -0.4384 -0.6637 0.2683, -0.4396 -0.6598 0.2674, -0.4396 -0.6637 0.2679, -0.442 -0.6598 0.2671, -0.442 -0.6637 0.2676, -0.4089 -0.6609 0.2908, -0.4041 -0.6609 0.2908, -0.4089 -0.657 0.2903, -0.4041 -0.657 0.2903, -0.4162 -0.6633 0.271, -0.4162 -0.6594 0.2705, -0.4165 -0.6596 0.2693, -0.4165 -0.6635 0.2697, -0.4167 -0.6597 0.2684, -0.4167 -0.6636 0.2688, -0.4169 -0.6636 0.2688, -0.4169 -0.6597 0.2684, -0.4174 -0.6633 0.271, -0.4174 -0.6594 0.2705, -0.4243 -0.6609 0.2908, -0.4221 -0.6578 0.2839, -0.4243 -0.657 0.2903, -0.4295 -0.6609 0.2908, -0.4295 -0.657 0.2903, -0.4191 -0.6641 0.2645, -0.4221 -0.6593 0.2715, -0.4191 -0.6602 0.2641, -0.4212 -0.6608 0.2593, -0.4212 -0.6647 0.2598, -0.4193 -0.6603 0.2637, -0.4221 -0.661 0.2576, -0.4221 -0.6649 0.2581, -0.4221 -0.661 0.2576, -0.423 -0.6611 0.2566, -0.423 -0.665 0.2571, -0.4237 -0.6612 0.2561, -0.4237 -0.6651 0.2566, -0.4248 -0.6612 0.2557, -0.4248 -0.6651 0.2562, -0.4259 -0.6613 0.2556, -0.4259 -0.6652 0.2561, -0.4276 -0.6612 0.2558, -0.4276 -0.6651 0.2563, -0.4286 -0.6612 0.2561, -0.4286 -0.6651 0.2566, -0.4286 -0.6656 0.2525, -0.4286 -0.6617 0.252, -0.4266 -0.6617 0.2517, -0.4266 -0.6656 0.2521, -0.4256 -0.6617 0.2516, -0.4256 -0.6656 0.2521, -0.4237 -0.6617 0.2518, -0.4237 -0.6656 0.2523, -0.4221 -0.6616 0.2524, -0.4219 -0.6655 0.253, -0.4219 -0.6616 0.2525, -0.4203 -0.6615 0.2537, -0.4203 -0.6654 0.2541, -0.4199 -0.6615 0.2539, -0.4199 -0.6654 0.2544, -0.4182 -0.6612 0.256, -0.4182 -0.6651 0.2565, -0.4161 -0.6607 0.26, -0.4161 -0.6646 0.2605, -0.4147 -0.6603 0.2637, -0.3792 -0.6636 0.2687, -0.3792 -0.6641 0.2645, -0.3792 -0.6597 0.2682, -0.3792 -0.6602 0.264, -0.3943 -0.6636 0.2687, -0.3874 -0.6597 0.2682, -0.3943 -0.6597 0.2682, -0.3943 -0.6621 0.2811, -0.3943 -0.6582 0.2806, -0.3811 -0.6621 0.2811, -0.3874 -0.6582 0.2806, -0.3811 -0.6582 0.2806, -0.3811 -0.6616 0.2853, -0.3811 -0.6577 0.2848, -0.3943 -0.6577 0.2848, -0.3943 -0.6616 0.2853, -0.3874 -0.6577 0.2848, -0.3943 -0.6601 0.297, -0.3943 -0.6562 0.2966, -0.38 -0.6562 0.2966, -0.38 -0.6601 0.297, -0.3874 -0.6562 0.2966, -0.38 -0.6596 0.3013, -0.38 -0.6557 0.3008, -0.3991 -0.6557 0.3008, -0.3991 -0.6596 0.3013, -0.3874 -0.6557 0.3008, -0.3991 -0.6641 0.2645, -0.3991 -0.6602 0.264, -0.3874 -0.6602 0.264, -0.3476 -0.6635 0.2696, -0.3514 -0.6632 0.2721, -0.3515 -0.6638 0.2669, -0.3538 -0.6634 0.2705, -0.3557 -0.664 0.2652, -0.3569 -0.6635 0.2693, -0.362 -0.6641 0.2645, -0.362 -0.6636 0.2687, -0.3722 -0.6641 0.2645, -0.3674 -0.6636 0.2687, -0.3722 -0.6596 0.3013, -0.3674 -0.6601 0.297, -0.3616 -0.6596 0.3013, -0.3618 -0.6601 0.297, -0.3613 -0.6601 0.297, -0.3559 -0.6597 0.3007, -0.3566 -0.6602 0.2964, -0.3515 -0.6599 0.299, -0.3534 -0.6604 0.2952, -0.3476 -0.6602 0.2964, -0.3511 -0.6606 0.2936, -0.3463 -0.6604 0.2951, -0.3501 -0.6607 0.2926, -0.344 -0.6608 0.2919, -0.3486 -0.6609 0.2905, -0.3426 -0.6612 0.2884, -0.3476 -0.6613 0.2878, -0.342 -0.6618 0.2834, -0.347 -0.6618 0.2832, -0.3421 -0.6621 0.281, -0.3472 -0.6621 0.2806, -0.343 -0.6626 0.2767, -0.3479 -0.6626 0.2773, -0.3448 -0.6631 0.2729, -0.3493 -0.6629 0.2746, -0.351 -0.6631 0.2725, -0.362 -0.6602 0.264, -0.3722 -0.6602 0.264, -0.3557 -0.6601 0.2648, -0.3515 -0.6599 0.2664, -0.3476 -0.6596 0.2692, -0.3448 -0.6592 0.2724, -0.343 -0.6587 0.2762, -0.3421 -0.6582 0.2805, -0.342 -0.6579 0.2829, -0.3426 -0.6573 0.2879, -0.344 -0.6568 0.2915, -0.3463 -0.6565 0.2947, -0.3476 -0.6563 0.2959, -0.3515 -0.656 0.2986, -0.3559 -0.6558 0.3002, -0.3616 -0.6557 0.3008, -0.3722 -0.6557 0.3008, -0.3618 -0.6562 0.2966, -0.3674 -0.6562 0.2966, -0.3674 -0.6597 0.2682, -0.362 -0.6597 0.2682, -0.351 -0.6592 0.272, -0.3514 -0.6593 0.2716, -0.3538 -0.6595 0.27, -0.3569 -0.6596 0.2688, -0.347 -0.6579 0.2827, -0.3472 -0.6582 0.2801, -0.3479 -0.6586 0.2768, -0.3493 -0.659 0.2741, -0.3511 -0.6566 0.2931, -0.3501 -0.6568 0.2921, -0.3486 -0.657 0.29, -0.3476 -0.6574 0.2874, -0.3613 -0.6562 0.2966, -0.3566 -0.6563 0.2959, -0.3534 -0.6564 0.2947
            ]
        }
        coordIndex [
            0,1,2,-1,3,4,5,-1,3,5,6,-1,6,5,7,-1,6,7,2,-1,2,7,8,-1,2,8,0,-1,9,1,10,-1,10,1,0,-1,10,11,9,-1,9,11,12,-1,13,14,15,-1,15,14,12,-1,15,12,16,-1,16,12,11,-1,13,17,14,-1,14,17,18,-1,17,19,18,-1,18,19,20,-1,18,20,21,-1,21,20,22,-1,21,22,23,-1,23,22,24,-1,23,24,25,-1,25,24,26,-1,25,26,27,-1,27,26,28,-1,27,28,29,-1,29,28,30,-1,29,30,31,-1,31,30,32,-1,31,32,33,-1,33,32,34,-1,33,34,35,-1,35,34,36,-1,35,36,37,-1,37,36,38,-1,37,38,39,-1,39,38,40,-1,39,40,41,-1,41,40,42,-1,41,42,43,-1,43,42,44,-1,43,44,45,-1,45,44,46,-1,45,46,47,-1,47,46,48,-1,47,48,49,-1,49,48,50,-1,49,50,51,-1,51,50,52,-1,51,52,53,-1,53,52,54,-1,53,54,55,-1,55,54,56,-1,55,56,57,-1,57,56,58,-1,57,58,59,-1,59,58,60,-1,59,60,61,-1,61,60,62,-1,61,62,63,-1,63,62,64,-1,63,64,65,-1,65,64,66,-1,65,66,67,-1,67,66,68,-1,67,68,69,-1,69,68,70,-1,69,70,71,-1,71,70,72,-1,71,72,73,-1,73,72,74,-1,73,74,75,-1,76,75,77,-1,77,75,74,-1,76,77,78,-1,76,78,79,-1,79,78,80,-1,79,80,81,-1,81,80,82,-1,81,82,83,-1,83,82,84,-1,83,84,85,-1,85,84,86,-1,85,86,87,-1,86,88,87,-1,87,88,89,-1,88,90,89,-1,89,90,91,-1,89,91,92,-1,92,91,93,-1,92,93,94,-1,94,93,95,-1,94,95,96,-1,96,95,97,-1,96,97,98,-1,98,97,99,-1,98,99,100,-1,100,99,101,-1,100,101,102,-1,103,104,105,-1,102,101,106,-1,102,106,107,-1,107,106,108,-1,107,108,105,-1,105,108,109,-1,105,109,103,-1,104,103,110,-1,104,110,111,-1,111,110,112,-1,111,112,113,-1,113,112,114,-1,113,114,115,-1,115,114,116,-1,115,116,117,-1,117,116,118,-1,117,118,119,-1,119,118,120,-1,119,120,121,-1,121,120,122,-1,121,122,123,-1,123,122,124,-1,123,124,125,-1,125,124,126,-1,125,126,127,-1,127,126,128,-1,127,128,129,-1,129,128,130,-1,129,130,131,-1,131,130,132,-1,131,132,133,-1,133,132,134,-1,133,134,135,-1,135,134,4,-1,135,4,3,-1,61,63,85,-1,85,63,83,-1,111,43,104,-1,104,43,45,-1,21,23,127,-1,127,23,25,-1,127,25,125,-1,125,25,27,-1,125,27,123,-1,123,27,29,-1,123,29,121,-1,121,29,31,-1,121,31,119,-1,119,31,33,-1,119,33,117,-1,117,33,35,-1,117,35,115,-1,115,35,37,-1,115,37,113,-1,113,37,39,-1,113,39,111,-1,111,39,41,-1,111,41,43,-1,14,3,12,-1,12,3,6,-1,12,6,9,-1,9,6,2,-1,9,2,1,-1,63,65,83,-1,83,65,67,-1,83,67,81,-1,81,67,69,-1,81,69,79,-1,79,69,71,-1,79,71,76,-1,76,71,73,-1,76,73,75,-1,127,129,21,-1,21,129,131,-1,21,131,18,-1,18,131,133,-1,18,133,14,-1,14,133,135,-1,14,135,3,-1,85,87,61,-1,61,87,89,-1,61,89,59,-1,59,89,92,-1,59,92,57,-1,57,92,94,-1,57,94,55,-1,55,94,96,-1,55,96,53,-1,53,96,98,-1,53,98,51,-1,51,98,100,-1,51,100,49,-1,49,100,102,-1,49,102,47,-1,47,102,107,-1,47,107,45,-1,45,107,105,-1,45,105,104,-1,136,137,138,-1,138,137,139,-1,140,136,141,-1,141,136,138,-1,140,141,142,-1,140,142,143,-1,143,142,144,-1,143,144,145,-1,146,145,147,-1,147,145,144,-1,148,146,149,-1,149,146,147,-1,148,149,150,-1,150,149,151,-1,150,151,152,-1,153,150,154,-1,154,150,152,-1,153,154,155,-1,155,154,156,-1,155,156,157,-1,158,159,160,-1,160,159,155,-1,160,155,157,-1,158,161,159,-1,159,161,162,-1,161,163,162,-1,162,163,164,-1,162,164,165,-1,165,164,166,-1,165,166,167,-1,167,166,168,-1,167,168,169,-1,169,168,170,-1,169,170,171,-1,171,170,172,-1,171,172,173,-1,173,172,174,-1,173,174,175,-1,176,175,177,-1,177,175,174,-1,176,177,178,-1,176,178,179,-1,179,178,180,-1,179,180,181,-1,181,180,182,-1,181,182,183,-1,183,182,184,-1,183,184,185,-1,184,186,185,-1,185,186,187,-1,185,187,188,-1,188,187,189,-1,188,189,190,-1,190,189,191,-1,190,191,192,-1,192,191,193,-1,192,193,194,-1,139,137,195,-1,195,137,194,-1,195,194,193,-1,143,145,194,-1,137,136,194,-1,194,136,140,-1,194,140,143,-1,150,153,148,-1,148,153,155,-1,148,155,146,-1,175,176,173,-1,173,176,179,-1,173,179,171,-1,171,179,181,-1,171,181,169,-1,169,181,183,-1,169,183,167,-1,167,183,185,-1,167,185,165,-1,145,146,194,-1,194,146,155,-1,194,155,192,-1,155,159,192,-1,192,159,162,-1,192,162,190,-1,190,162,165,-1,190,165,188,-1,188,165,185,-1,196,197,198,-1,198,197,199,-1,196,198,200,-1,200,198,201,-1,200,201,202,-1,203,200,204,-1,204,200,202,-1,203,204,205,-1,205,204,206,-1,205,206,207,-1,208,205,209,-1,209,205,207,-1,210,211,212,-1,212,211,208,-1,212,208,209,-1,213,211,214,-1,214,211,210,-1,215,216,217,-1,217,216,213,-1,217,213,214,-1,218,216,219,-1,219,216,215,-1,220,221,222,-1,222,221,218,-1,222,218,219,-1,223,221,224,-1,224,221,220,-1,223,224,197,-1,197,224,225,-1,197,225,199,-1,223,197,196,-1,196,200,223,-1,223,200,203,-1,223,203,221,-1,216,218,213,-1,213,218,221,-1,213,221,211,-1,211,221,203,-1,211,203,208,-1,208,203,205,-1,226,227,228,-1,228,227,229,-1,228,229,230,-1,230,229,231,-1,230,231,232,-1,232,231,233,-1,232,233,234,-1,234,233,235,-1,234,235,236,-1,236,235,237,-1,236,237,238,-1,237,239,238,-1,238,239,240,-1,238,240,241,-1,241,240,242,-1,241,242,243,-1,243,242,244,-1,243,244,245,-1,245,244,246,-1,245,246,247,-1,247,246,248,-1,247,248,249,-1,249,248,250,-1,249,250,251,-1,251,250,252,-1,251,252,253,-1,253,252,254,-1,253,254,255,-1,255,254,256,-1,255,256,257,-1,257,256,258,-1,257,258,259,-1,259,258,260,-1,259,260,226,-1,226,260,261,-1,226,261,227,-1,232,234,262,-1,262,234,263,-1,232,262,264,-1,232,264,230,-1,230,264,265,-1,230,265,228,-1,228,265,266,-1,228,266,226,-1,226,266,267,-1,226,267,259,-1,259,267,268,-1,259,268,257,-1,257,268,269,-1,257,269,255,-1,255,269,270,-1,255,270,253,-1,253,270,271,-1,253,271,251,-1,251,271,272,-1,251,272,249,-1,249,272,273,-1,249,273,247,-1,247,273,274,-1,247,274,245,-1,245,274,275,-1,245,275,243,-1,243,275,276,-1,243,276,241,-1,241,276,277,-1,241,277,238,-1,236,238,278,-1,278,238,277,-1,234,236,263,-1,263,236,278,-1,239,237,279,-1,279,237,280,-1,237,235,280,-1,280,235,281,-1,235,233,281,-1,281,233,282,-1,261,283,284,-1,261,284,227,-1,227,284,285,-1,227,285,229,-1,229,285,286,-1,229,286,231,-1,231,286,282,-1,231,282,233,-1,254,287,288,-1,254,288,256,-1,256,288,289,-1,256,289,258,-1,258,289,290,-1,258,290,260,-1,260,290,283,-1,260,283,261,-1,246,291,292,-1,246,292,248,-1,248,292,293,-1,248,293,250,-1,250,293,294,-1,250,294,252,-1,252,294,287,-1,252,287,254,-1,239,279,295,-1,239,295,240,-1,240,295,296,-1,240,296,242,-1,242,296,297,-1,242,297,244,-1,244,297,291,-1,244,291,246,-1,
        ]
    }
}
Shape{
    appearance Appearance {
        material  Material 	{
            diffuseColor 1.0 1.0 1.0
            specularColor 0.5019607843137255 0.5019607843137255 0.5019607843137255
            ambientIntensity 1.0
            transparency 0.0
            shininess 0.5
        }
    }
    geometry IndexedFaceSet {
        ccw TRUE
        solid FALSE
        coord DEF co Coordinate {
            point [
                -0.3674 -0.6562 0.2966, -0.3674 -0.6597 0.2682, -0.3618 -0.6562 0.2966, -0.362 -0.6597 0.2682, -0.3613 -0.6562 0.2966, -0.3569 -0.6596 0.2688, -0.3538 -0.6595 0.27, -0.3514 -0.6593 0.2716, -0.351 -0.6592 0.272, -0.3493 -0.659 0.2741, -0.347 -0.6579 0.2827, -0.3511 -0.6566 0.2931, -0.3472 -0.6582 0.2801, -0.3534 -0.6564 0.2947, -0.3479 -0.6586 0.2768, -0.3566 -0.6563 0.2959, -0.3476 -0.6574 0.2874, -0.3486 -0.657 0.29, -0.3501 -0.6568 0.2921
            ]
        }
        coordIndex [
            0,1,2,-1,2,1,3,-1,2,3,4,-1,4,3,5,-1,4,5,6,-1,6,7,4,-1,4,7,8,-1,4,8,9,-1,10,11,12,-1,12,11,13,-1,9,14,4,-1,4,14,12,-1,4,12,15,-1,15,12,13,-1,16,17,10,-1,10,17,18,-1,10,18,11,-1,
        ]
    }
}
Shape{
    appearance Appearance {
        material  Material 	{
            diffuseColor 0.0 0.0 0.0
            specularColor 0.0 0.0 0.0
            ambientIntensity 0.0
            transparency 0.0
            shininess 0.5
        }
    }
    geometry IndexedFaceSet {
        ccw TRUE
        solid FALSE
        coord DEF co Coordinate {
            point [
                -0.3296 -0.6624 0.2787, -0.3311 -0.6629 0.2745, -0.3171 -0.6624 0.2787, -0.3157 -0.6629 0.2745, -0.324 -0.6605 0.294, -0.3258 -0.6596 0.3013, -0.3399 -0.6641 0.2645, -0.3347 -0.6641 0.2645, -0.3237 -0.6604 0.2951, -0.3234 -0.6602 0.2966, -0.3207 -0.6596 0.3013, -0.3233 -0.6602 0.2966, -0.323 -0.6604 0.295, -0.3227 -0.6605 0.294, -0.3066 -0.6641 0.2645, -0.3119 -0.6641 0.2645, -0.3207 -0.6557 0.3008, -0.3066 -0.6602 0.264, -0.3258 -0.6557 0.3008, -0.3399 -0.6602 0.264, -0.3347 -0.6602 0.264, -0.3311 -0.659 0.2741, -0.3157 -0.659 0.2741, -0.3119 -0.6602 0.264, -0.3296 -0.6585 0.2782, -0.3171 -0.6585 0.2782, -0.3227 -0.6566 0.2935, -0.3233 -0.6563 0.2961, -0.323 -0.6565 0.2945, -0.3234 -0.6563 0.2961, -0.324 -0.6566 0.2935, -0.3237 -0.6565 0.2946
            ]
        }
        coordIndex [
            0,1,2,-1,2,1,3,-1,4,5,0,-1,0,5,6,-1,0,6,1,-1,1,6,7,-1,4,8,5,-1,5,8,9,-1,5,9,10,-1,10,9,11,-1,10,11,12,-1,12,13,10,-1,10,13,2,-1,10,2,14,-1,14,2,3,-1,14,3,15,-1,10,14,16,-1,16,14,17,-1,5,10,18,-1,18,10,16,-1,6,5,19,-1,19,5,18,-1,7,6,20,-1,20,6,19,-1,1,7,21,-1,21,7,20,-1,3,1,22,-1,22,1,21,-1,15,3,23,-1,23,3,22,-1,14,15,17,-1,17,15,23,-1,0,2,24,-1,24,2,25,-1,2,13,25,-1,25,13,26,-1,11,27,28,-1,11,28,12,-1,12,28,26,-1,12,26,13,-1,11,9,27,-1,27,9,29,-1,4,30,31,-1,4,31,8,-1,8,31,29,-1,8,29,9,-1,4,0,30,-1,30,0,24,-1,
        ]
    }
}
Shape{
    appearance Appearance {
        material  Material 	{
            diffuseColor 1.0 1.0 1.0
            specularColor 0.5019607843137255 0.5019607843137255 0.5019607843137255
            ambientIntensity 1.0
            transparency 0.0
            shininess 0.5
        }
    }
    geometry IndexedFaceSet {
        ccw TRUE
        solid FALSE
        coord DEF co Coordinate {
            point [
                -0.3233 -0.6563 0.2961, -0.3234 -0.6563 0.2961, -0.323 -0.6565 0.2945, -0.3237 -0.6565 0.2946, -0.3227 -0.6566 0.2935, -0.324 -0.6566 0.2935, -0.3171 -0.6585 0.2782, -0.3296 -0.6585 0.2782
            ]
        }
        coordIndex [
            0,1,2,-1,2,1,3,-1,2,3,4,-1,4,3,5,-1,4,5,6,-1,6,5,7,-1,
        ]
    }
}
Shape{
    appearance Appearance {
        material  Material 	{
            diffuseColor 0.0 0.0 0.0
            specularColor 0.0 0.0 0.0
            ambientIntensity 0.0
            transparency 0.0
            shininess 0.5
        }
    }
    geometry IndexedFaceSet {
        ccw TRUE
        solid FALSE
        coord DEF co Coordinate {
            point [
                -0.6655 -0.6648 0.2593, -0.6616 -0.6654 0.2545, -0.6679 -0.6619 0.2824, -0.6724 -0.6563 0.3279, -0.6666 -0.656 0.331, -0.6679 -0.654 0.3471, -0.6215 -0.6649 0.2583, -0.6184 -0.6642 0.2641, -0.6169 -0.6634 0.2705, -0.6515 -0.6539 0.3478, -0.6434 -0.6562 0.3287, -0.6393 -0.6552 0.337, -0.6736 -0.6615 0.2859, -0.6717 -0.6639 0.2659, -0.6681 -0.6641 0.2649, -0.6576 -0.6538 0.3483, -0.5798 -0.6604 0.2952, -0.588 -0.6587 0.3091, -0.6167 -0.6627 0.2759, -0.6233 -0.6609 0.2908, -0.6167 -0.6631 0.2733, -0.6308 -0.6659 0.2501, -0.6256 -0.6654 0.2537, -0.6501 -0.664 0.2653, -0.648 -0.6642 0.2639, -0.6564 -0.6658 0.2506, -0.6456 -0.6643 0.263, -0.6339 -0.6626 0.2769, -0.6332 -0.6629 0.2746, -0.6331 -0.6632 0.272, -0.6337 -0.6635 0.2695, -0.6349 -0.6638 0.2672, -0.5711 -0.6572 0.3211, -0.569 -0.6572 0.3211, -0.5582 -0.6554 0.3352, -0.564 -0.6572 0.3205, -0.5569 -0.6555 0.3348, -0.5594 -0.6575 0.3188, -0.5491 -0.656 0.3309, -0.5419 -0.6567 0.3249, -0.6461 -0.6531 0.3541, -0.6334 -0.6544 0.344, -0.6399 -0.6525 0.3593, -0.6263 -0.6537 0.3491, -0.6321 -0.6519 0.364, -0.6601 -0.6558 0.3325, -0.6573 -0.6558 0.3326, -0.6546 -0.6539 0.3482, -0.6512 -0.6559 0.3319, -0.6453 -0.6561 0.3297, -0.6536 -0.6632 0.2718, -0.653 -0.6635 0.2694, -0.6518 -0.6638 0.2672, -0.6503 -0.6661 0.2481, -0.6441 -0.6663 0.2471, -0.6434 -0.6643 0.2628, -0.6431 -0.6663 0.2471, -0.6409 -0.6643 0.2631, -0.6367 -0.6662 0.2479, -0.6386 -0.6642 0.2639, -0.6366 -0.664 0.2653, -0.5419 -0.6627 0.2761, -0.5542 -0.6614 0.2865, -0.5491 -0.6634 0.2701, -0.5581 -0.6618 0.2833, -0.5571 -0.6639 0.2662, -0.5627 -0.6621 0.2812, -0.5659 -0.6641 0.2644, -0.5675 -0.6622 0.2803, -0.5814 -0.6641 0.2644, -0.5793 -0.6622 0.2803, -0.5829 -0.6641 0.2646, -0.5553 -0.6578 0.3159, -0.5523 -0.6582 0.3125, -0.5366 -0.6576 0.3175, -0.5498 -0.6588 0.308, -0.5333 -0.6586 0.3095, -0.5486 -0.6594 0.303, -0.5321 -0.6596 0.301, -0.5485 -0.6597 0.3007, -0.5333 -0.6608 0.2916, -0.5491 -0.6603 0.2956, -0.5367 -0.6618 0.2834, -0.5509 -0.6609 0.291, -0.5538 -0.6614 0.2869, -0.5725 -0.6529 0.3559, -0.5828 -0.6544 0.3439, -0.5632 -0.6542 0.345, -0.5768 -0.6552 0.3368, -0.5727 -0.6563 0.3284, -0.6829 -0.6582 0.3128, -0.7002 -0.6587 0.3085, -0.6837 -0.659 0.3065, -0.7003 -0.659 0.3059, -0.6834 -0.6595 0.3025, -0.699 -0.6603 0.2958, -0.6815 -0.6603 0.2961, -0.6953 -0.6615 0.286, -0.6783 -0.6609 0.2907, -0.6892 -0.6625 0.2774, -0.6812 -0.6634 0.2706, -0.6535 -0.6629 0.2743, -0.6529 -0.6626 0.2768, -0.6649 -0.6612 0.288, -0.6516 -0.6623 0.279, -0.6606 -0.6606 0.293, -0.6502 -0.6621 0.2806, -0.6552 -0.6602 0.2967, -0.6481 -0.662 0.282, -0.6494 -0.6599 0.2989, -0.6458 -0.6619 0.2829, -0.6431 -0.6598 0.2997, -0.6434 -0.6618 0.2832, -0.6399 -0.6598 0.2995, -0.6415 -0.6619 0.283, -0.6335 -0.66 0.2979, -0.639 -0.6619 0.2822, -0.6279 -0.6604 0.2949, -0.6369 -0.6621 0.2809, -0.6351 -0.6623 0.2791, -0.6199 -0.6514 0.3683, -0.6177 -0.6533 0.3526, -0.6083 -0.6512 0.3695, -0.608 -0.6532 0.3538, -0.5955 -0.6514 0.3679, -0.5991 -0.6533 0.3527, -0.5824 -0.6521 0.3628, -0.5908 -0.6537 0.3496, -0.5834 -0.6543 0.3445, -0.6776 -0.6544 0.3433, -0.686 -0.6552 0.3375, -0.677 -0.6568 0.3238, -0.6879 -0.6554 0.3358, -0.6806 -0.6575 0.3186, -0.6942 -0.6564 0.3277, -0.6984 -0.6575 0.3183, -0.5806 -0.6622 0.2806, -0.587 -0.6638 0.2671, -0.5864 -0.6639 0.2665, -0.5798 -0.6622 0.2804, -0.5846 -0.664 0.2653, -0.5891 -0.6631 0.2725, -0.5888 -0.6634 0.2705, -0.5881 -0.6636 0.2687, -0.5829 -0.6622 0.2803, -0.5847 -0.6623 0.2796, -0.589 -0.663 0.2735, -0.5864 -0.6624 0.2785, -0.5875 -0.6626 0.2773, -0.5885 -0.6628 0.2755, -0.5809 -0.6622 0.2806, -0.5321 -0.6557 0.3005, -0.5333 -0.6547 0.309, -0.5342 -0.6544 0.3113, -0.5366 -0.6537 0.317, -0.5419 -0.6528 0.3245, -0.5491 -0.6521 0.3305, -0.5569 -0.6516 0.3343, -0.5582 -0.6515 0.3348, -0.5632 -0.6503 0.3445, -0.5725 -0.649 0.3554, -0.5783 -0.6485 0.3595, -0.5824 -0.6481 0.3623, -0.5955 -0.6475 0.3674, -0.6083 -0.6473 0.369, -0.6399 -0.6486 0.3588, -0.6389 -0.6485 0.3595, -0.6321 -0.648 0.3635, -0.6199 -0.6475 0.3678, -0.6461 -0.6492 0.3536, -0.6515 -0.65 0.3473, -0.6546 -0.6499 0.3477, -0.6576 -0.6499 0.3478, -0.6679 -0.6501 0.3466, -0.6776 -0.6505 0.3429, -0.686 -0.6513 0.337, -0.6879 -0.6515 0.3353, -0.6984 -0.6536 0.3178, -0.6942 -0.6525 0.3273, -0.6996 -0.6544 0.3113, -0.7002 -0.6548 0.308, -0.7003 -0.6551 0.3055, -0.699 -0.6564 0.2953, -0.6953 -0.6576 0.2856, -0.6892 -0.6586 0.277, -0.6812 -0.6595 0.2701, -0.6717 -0.66 0.2655, -0.6681 -0.6602 0.2644, -0.6678 -0.6603 0.2637, -0.6655 -0.6609 0.2588, -0.6616 -0.6614 0.254, -0.6564 -0.6619 0.2501, -0.654 -0.662 0.2491, -0.6503 -0.6622 0.2476, -0.6441 -0.6624 0.2466, -0.6431 -0.6624 0.2466, -0.6167 -0.6591 0.2728, -0.6367 -0.6623 0.2474, -0.6322 -0.662 0.2491, -0.6308 -0.662 0.2496, -0.6256 -0.6615 0.2533, -0.6215 -0.661 0.2578, -0.6184 -0.6603 0.2636, -0.6184 -0.6603 0.2637, -0.6169 -0.6595 0.2701, -0.6167 -0.6588 0.2754, -0.5798 -0.6564 0.2947, -0.588 -0.6547 0.3086, -0.6233 -0.657 0.2903, -0.6279 -0.6565 0.2945, -0.6335 -0.6561 0.2974, -0.6399 -0.6559 0.299, -0.6431 -0.6559 0.2992, -0.6494 -0.656 0.2984, -0.6552 -0.6563 0.2962, -0.6606 -0.6567 0.2925, -0.6649 -0.6573 0.2876, -0.6679 -0.658 0.2819, -0.6736 -0.6576 0.2854, -0.6783 -0.657 0.2903, -0.6815 -0.6563 0.2956, -0.6834 -0.6556 0.302, -0.6837 -0.6551 0.306, -0.683 -0.6544 0.3113, -0.6829 -0.6543 0.3123, -0.6806 -0.6536 0.3182, -0.677 -0.6529 0.3234, -0.6724 -0.6524 0.3274, -0.6666 -0.6521 0.3305, -0.6601 -0.6519 0.332, -0.6573 -0.6519 0.3322, -0.6512 -0.6519 0.3314, -0.6453 -0.6522 0.3293, -0.6434 -0.6523 0.3282, -0.6393 -0.6513 0.3365, -0.6334 -0.6505 0.3435, -0.6263 -0.6498 0.3486, -0.6177 -0.6494 0.3521, -0.608 -0.6493 0.3533, -0.5991 -0.6494 0.3523, -0.5908 -0.6498 0.3491, -0.5834 -0.6504 0.344, -0.5828 -0.6505 0.3434, -0.5768 -0.6513 0.3363, -0.5727 -0.6524 0.3279, -0.5711 -0.6533 0.3206, -0.569 -0.6533 0.3206, -0.564 -0.6533 0.32, -0.5594 -0.6536 0.3183, -0.5553 -0.6539 0.3154, -0.5523 -0.6543 0.3121, -0.5519 -0.6544 0.3113, -0.5498 -0.6549 0.3075, -0.5486 -0.6555 0.3025, -0.5485 -0.6558 0.3002, -0.5491 -0.6564 0.2951, -0.5509 -0.657 0.2905, -0.5538 -0.6575 0.2864, -0.5542 -0.6575 0.286, -0.5581 -0.6579 0.2829, -0.5627 -0.6582 0.2807, -0.5675 -0.6583 0.2798, -0.5793 -0.6583 0.2798, -0.5798 -0.6583 0.2799, -0.5806 -0.6582 0.2801, -0.5809 -0.6582 0.2801, -0.5829 -0.6583 0.2798, -0.5847 -0.6584 0.2791, -0.5864 -0.6585 0.278, -0.5875 -0.6586 0.2768, -0.5885 -0.6589 0.275, -0.589 -0.6591 0.273, -0.5891 -0.6592 0.272, -0.5888 -0.6595 0.27, -0.5881 -0.6597 0.2683, -0.587 -0.6599 0.2666, -0.5864 -0.66 0.266, -0.5846 -0.6601 0.2648, -0.5829 -0.6602 0.2641, -0.5814 -0.6602 0.2639, -0.5659 -0.6602 0.2639, -0.5571 -0.66 0.2657, -0.5491 -0.6595 0.2696, -0.5419 -0.6588 0.2756, -0.5367 -0.6579 0.2829, -0.5333 -0.6569 0.2912, -0.6434 -0.6579 0.2827, -0.6415 -0.6579 0.2825, -0.639 -0.658 0.2818, -0.6369 -0.6582 0.2804, -0.6351 -0.6584 0.2786, -0.6339 -0.6587 0.2765, -0.6332 -0.659 0.2741, -0.6331 -0.6593 0.2715, -0.6337 -0.6596 0.269, -0.6349 -0.6599 0.2667, -0.6366 -0.6601 0.2648, -0.6386 -0.6603 0.2635, -0.6409 -0.6604 0.2626, -0.6434 -0.6604 0.2623, -0.6456 -0.6604 0.2625, -0.648 -0.6603 0.2634, -0.6501 -0.6601 0.2648, -0.6518 -0.6599 0.2667, -0.653 -0.6596 0.2689, -0.6536 -0.6593 0.2713, -0.6535 -0.659 0.2738, -0.6529 -0.6587 0.2763, -0.6516 -0.6584 0.2786, -0.6502 -0.6582 0.2801, -0.6481 -0.6581 0.2816, -0.6458 -0.658 0.2824
            ]
        }
        coordIndex [
            0,1,2,-1,3,4,5,-1,6,7,8,-1,9,10,11,-1,12,13,2,-1,2,13,14,-1,2,14,0,-1,5,4,15,-1,16,17,18,-1,18,17,19,-1,18,19,20,-1,20,19,21,-1,20,21,8,-1,8,21,22,-1,8,22,6,-1,23,1,24,-1,24,1,25,-1,24,25,26,-1,27,28,19,-1,19,28,29,-1,19,29,21,-1,21,29,30,-1,21,30,31,-1,32,33,34,-1,34,33,35,-1,34,35,36,-1,36,35,37,-1,36,37,38,-1,38,37,39,-1,9,11,40,-1,40,11,41,-1,40,41,42,-1,42,41,43,-1,42,43,44,-1,4,45,15,-1,15,45,46,-1,15,46,47,-1,47,46,48,-1,47,48,9,-1,9,48,49,-1,9,49,10,-1,50,2,51,-1,51,2,1,-1,51,1,52,-1,52,1,23,-1,25,53,26,-1,26,53,54,-1,26,54,55,-1,55,54,56,-1,55,56,57,-1,57,56,58,-1,57,58,59,-1,59,58,21,-1,59,21,60,-1,60,21,31,-1,61,62,63,-1,63,62,64,-1,63,64,65,-1,65,64,66,-1,65,66,67,-1,67,66,68,-1,67,68,69,-1,69,68,70,-1,69,70,71,-1,37,72,39,-1,39,72,73,-1,39,73,74,-1,74,73,75,-1,74,75,76,-1,76,75,77,-1,76,77,78,-1,78,77,79,-1,78,79,80,-1,80,79,81,-1,80,81,82,-1,82,81,83,-1,82,83,61,-1,61,83,84,-1,61,84,62,-1,85,86,87,-1,87,86,88,-1,87,88,34,-1,34,88,89,-1,34,89,32,-1,90,91,92,-1,92,91,93,-1,92,93,94,-1,94,93,95,-1,94,95,96,-1,96,95,97,-1,96,97,98,-1,98,97,99,-1,98,99,12,-1,12,99,100,-1,12,100,13,-1,50,101,2,-1,2,101,102,-1,2,102,103,-1,103,102,104,-1,103,104,105,-1,105,104,106,-1,105,106,107,-1,107,106,108,-1,107,108,109,-1,109,108,110,-1,109,110,111,-1,111,110,112,-1,111,112,113,-1,113,112,114,-1,113,114,115,-1,115,114,116,-1,115,116,117,-1,117,116,118,-1,117,118,19,-1,19,118,119,-1,19,119,27,-1,44,43,120,-1,120,43,121,-1,120,121,122,-1,122,121,123,-1,122,123,124,-1,124,123,125,-1,124,125,126,-1,126,125,127,-1,126,127,85,-1,85,127,128,-1,85,128,86,-1,5,129,3,-1,3,129,130,-1,3,130,131,-1,131,130,132,-1,131,132,133,-1,133,132,134,-1,133,134,90,-1,90,134,135,-1,90,135,91,-1,136,137,138,-1,70,139,71,-1,71,139,136,-1,71,136,140,-1,140,136,138,-1,141,142,136,-1,136,142,143,-1,136,143,137,-1,144,145,146,-1,145,147,146,-1,146,147,148,-1,146,148,149,-1,141,136,146,-1,146,136,150,-1,146,150,144,-1,78,151,152,-1,78,152,76,-1,76,152,153,-1,76,153,74,-1,153,154,74,-1,74,154,155,-1,74,155,39,-1,39,155,156,-1,39,156,38,-1,38,156,157,-1,38,157,36,-1,36,157,158,-1,36,158,34,-1,34,158,159,-1,34,159,87,-1,87,159,160,-1,87,160,85,-1,85,160,126,-1,126,160,161,-1,161,162,126,-1,126,162,163,-1,126,163,124,-1,124,163,164,-1,124,164,122,-1,165,42,166,-1,166,42,44,-1,166,44,167,-1,167,44,120,-1,167,120,168,-1,168,120,122,-1,168,122,164,-1,42,165,169,-1,42,169,40,-1,40,169,170,-1,40,170,9,-1,9,170,171,-1,9,171,47,-1,47,171,172,-1,47,172,15,-1,15,172,173,-1,15,173,5,-1,5,173,174,-1,5,174,129,-1,129,174,175,-1,129,175,130,-1,130,175,176,-1,130,176,132,-1,177,134,178,-1,178,134,132,-1,178,132,176,-1,179,91,177,-1,177,91,135,-1,177,135,134,-1,179,180,91,-1,91,180,181,-1,91,181,93,-1,93,181,182,-1,93,182,95,-1,95,182,183,-1,95,183,97,-1,97,183,184,-1,97,184,99,-1,99,184,185,-1,99,185,100,-1,100,185,186,-1,100,186,13,-1,13,186,187,-1,13,187,14,-1,14,187,188,-1,14,188,0,-1,188,189,0,-1,0,189,190,-1,0,190,1,-1,1,190,191,-1,1,191,25,-1,25,191,192,-1,25,192,53,-1,192,193,53,-1,53,193,194,-1,53,194,54,-1,54,194,195,-1,54,195,56,-1,196,20,8,-1,56,195,197,-1,56,197,58,-1,58,197,198,-1,58,198,21,-1,198,199,21,-1,21,199,200,-1,21,200,22,-1,22,200,201,-1,22,201,6,-1,6,201,202,-1,6,202,7,-1,7,202,203,-1,7,203,8,-1,8,203,204,-1,8,204,196,-1,18,20,205,-1,205,20,196,-1,16,18,206,-1,206,18,205,-1,17,16,207,-1,207,16,206,-1,19,17,208,-1,208,17,207,-1,19,208,209,-1,19,209,117,-1,117,209,210,-1,117,210,115,-1,115,210,211,-1,115,211,113,-1,113,211,212,-1,113,212,111,-1,111,212,213,-1,111,213,109,-1,109,213,214,-1,109,214,107,-1,107,214,215,-1,107,215,105,-1,105,215,216,-1,105,216,103,-1,103,216,217,-1,103,217,2,-1,2,217,218,-1,2,218,12,-1,12,218,219,-1,12,219,98,-1,98,219,220,-1,98,220,96,-1,96,220,221,-1,96,221,94,-1,94,221,222,-1,94,222,92,-1,222,223,92,-1,92,223,90,-1,223,224,90,-1,90,224,225,-1,90,225,133,-1,133,225,226,-1,133,226,131,-1,131,226,227,-1,131,227,3,-1,3,227,228,-1,3,228,4,-1,4,228,229,-1,4,229,45,-1,45,229,230,-1,45,230,46,-1,46,230,231,-1,46,231,48,-1,48,231,232,-1,48,232,49,-1,49,232,233,-1,49,233,10,-1,10,233,234,-1,10,234,11,-1,11,234,235,-1,11,235,41,-1,41,235,236,-1,41,236,43,-1,43,236,237,-1,43,237,121,-1,121,237,238,-1,121,238,123,-1,123,238,239,-1,123,239,125,-1,125,239,240,-1,125,240,127,-1,127,240,241,-1,127,241,128,-1,128,241,242,-1,128,242,86,-1,86,242,243,-1,86,243,88,-1,88,243,244,-1,88,244,89,-1,89,244,245,-1,89,245,32,-1,33,32,246,-1,246,32,245,-1,33,246,247,-1,33,247,35,-1,35,247,248,-1,35,248,37,-1,37,248,249,-1,37,249,72,-1,72,249,250,-1,72,250,73,-1,73,250,251,-1,73,251,75,-1,251,252,75,-1,75,252,253,-1,75,253,77,-1,77,253,254,-1,77,254,79,-1,79,254,255,-1,79,255,81,-1,81,255,256,-1,81,256,83,-1,83,256,257,-1,83,257,84,-1,84,257,258,-1,84,258,62,-1,62,258,259,-1,62,259,64,-1,64,259,260,-1,64,260,66,-1,66,260,261,-1,66,261,68,-1,70,68,262,-1,262,68,261,-1,70,262,263,-1,70,263,139,-1,139,263,264,-1,139,264,136,-1,136,264,265,-1,136,265,150,-1,150,265,266,-1,150,266,144,-1,144,266,267,-1,144,267,145,-1,145,267,268,-1,145,268,147,-1,147,268,269,-1,147,269,148,-1,148,269,270,-1,148,270,149,-1,149,270,271,-1,149,271,146,-1,146,271,272,-1,146,272,141,-1,141,272,273,-1,141,273,142,-1,142,273,274,-1,142,274,143,-1,143,274,275,-1,143,275,137,-1,137,275,276,-1,137,276,138,-1,138,276,277,-1,138,277,140,-1,140,277,278,-1,140,278,71,-1,71,278,279,-1,71,279,69,-1,67,69,280,-1,280,69,279,-1,67,280,281,-1,67,281,65,-1,65,281,282,-1,65,282,63,-1,63,282,283,-1,63,283,61,-1,61,283,284,-1,61,284,82,-1,82,284,285,-1,82,285,80,-1,80,285,151,-1,80,151,78,-1,112,286,287,-1,112,287,114,-1,114,287,288,-1,114,288,116,-1,116,288,289,-1,116,289,118,-1,118,289,290,-1,118,290,119,-1,119,290,291,-1,119,291,27,-1,27,291,292,-1,27,292,28,-1,28,292,293,-1,28,293,29,-1,29,293,294,-1,29,294,30,-1,30,294,295,-1,30,295,31,-1,31,295,296,-1,31,296,60,-1,60,296,297,-1,60,297,59,-1,59,297,298,-1,59,298,57,-1,57,298,299,-1,57,299,55,-1,55,299,300,-1,55,300,26,-1,26,300,301,-1,26,301,24,-1,24,301,302,-1,24,302,23,-1,23,302,303,-1,23,303,52,-1,52,303,304,-1,52,304,51,-1,51,304,305,-1,51,305,50,-1,50,305,306,-1,50,306,101,-1,101,306,307,-1,101,307,102,-1,102,307,308,-1,102,308,104,-1,104,308,309,-1,104,309,106,-1,106,309,310,-1,106,310,108,-1,108,310,311,-1,108,311,110,-1,110,311,286,-1,110,286,112,-1,
        ]
    }
}
Shape{
    appearance Appearance {
        material  Material 	{
            diffuseColor 1.0 1.0 1.0
            specularColor 0.5019607843137255 0.5019607843137255 0.5019607843137255
            ambientIntensity 1.0
            transparency 0.0
            shininess 0.5
        }
    }
    geometry IndexedFaceSet {
        ccw TRUE
        solid FALSE
        coord DEF co Coordinate {
            point [
                -0.6409 -0.6604 0.2626, -0.6415 -0.6579 0.2825, -0.6434 -0.6604 0.2623, -0.6434 -0.6579 0.2827, -0.6458 -0.658 0.2824, -0.6481 -0.6581 0.2816, -0.6502 -0.6582 0.2801, -0.6516 -0.6584 0.2786, -0.6366 -0.6601 0.2648, -0.6351 -0.6584 0.2786, -0.6369 -0.6582 0.2804, -0.653 -0.6596 0.2689, -0.6518 -0.6599 0.2667, -0.6501 -0.6601 0.2648, -0.6386 -0.6603 0.2635, -0.639 -0.658 0.2818, -0.648 -0.6603 0.2634, -0.6456 -0.6604 0.2625, -0.6529 -0.6587 0.2763, -0.6535 -0.659 0.2738, -0.6536 -0.6593 0.2713, -0.6337 -0.6596 0.269, -0.6331 -0.6593 0.2715, -0.6349 -0.6599 0.2667, -0.6332 -0.659 0.2741, -0.6339 -0.6587 0.2765
            ]
        }
        coordIndex [
            0,1,2,-1,2,1,3,-1,2,3,4,-1,4,5,2,-1,2,5,6,-1,2,6,7,-1,8,9,10,-1,11,12,7,-1,7,12,13,-1,0,14,1,-1,1,14,8,-1,1,8,15,-1,15,8,10,-1,13,16,7,-1,7,16,17,-1,7,17,2,-1,18,19,7,-1,7,19,20,-1,7,20,11,-1,21,22,23,-1,23,22,24,-1,23,24,8,-1,8,24,25,-1,8,25,9,-1,
        ]
    }
}