#VRML V2.0 utf8
# 3D model generated by easyeda2kicad.py (https://github.com/uPesy/easyeda2kicad.py)

Shape{
    appearance Appearance {
        material  Material 	{
            diffuseColor 0.2235294117647059 0.2235294117647059 0.2235294117647059
            specularColor 0.11372549019607843 0.11372549019607843 0.11372549019607843
            ambientIntensity 0.2
            transparency 0
            shininess 0.5
        }
    }
    geometry IndexedFaceSet {
        ccw TRUE
        solid FALSE
        coord DEF co Coordinate {
            point [
                -0.0168 0.023 -0.3543, -0.0164 0.0269 -0.3543, 0.0127 0.0145 -0.3543, -0.2902 0.5559 -0.3543, -0.0207 0.0061 -0.3543, -0.2902 -0.0188 -0.3543, -0.0207 -0.014 -0.3543, -0.0164 -0.014 -0.3543, 0.0189 -0.0188 -0.3543, 0.0153 0.0365 -0.3543, 0.0122 0.0394 -0.3543, 0.0187 0.0464 -0.3543, -0.0162 0.0182 -0.3543, 0.0123 0.0138 -0.3543, -0.0143 0.0138 -0.3543, 0.0009 -0.0131 -0.3543, -0.0034 -0.0131 -0.3543, -0.0034 0.0008 -0.3543, -0.0164 0.0008 -0.3543, -0.0103 0.041 -0.3543, -0.014 0.0387 -0.3543, -0.0207 0.0613 -0.3543, -0.0174 0.0351 -0.3543, -0.0196 0.0314 -0.3543, 0.0189 0.5559 -0.3543, 0.0187 0.0666 -0.3543, -0.0207 0.0666 -0.3543, 0.0144 0.0464 -0.3543, 0.0085 0.0415 -0.3543, 0.0144 0.0613 -0.3543, -0.0208 0.027 -0.3543, -0.0212 0.0231 -0.3543, -0.0208 0.0184 -0.3543, -0.0196 0.0138 -0.3543, 0.0187 0.0061 -0.3543, 0.0167 0.0138 -0.3543, 0.0189 0.0269 -0.3543, 0.0187 0.0295 -0.3543, 0.0174 0.0333 -0.3543, -0.0153 0.0298 -0.3543, -0.0135 0.0326 -0.3543, -0.0109 0.0349 -0.3543, -0.0006 0.0378 -0.3543, 0.0037 0.0374 -0.3543, 0.0071 0.0363 -0.3543, 0.0144 0.0276 -0.3543, 0.0149 0.0239 -0.3543, 0.0134 0.0304 -0.3543, 0.0118 0.0329 -0.3543, 0.0098 0.0347 -0.3543, 0.0143 0.0187 -0.3543, 0.0043 0.0427 -0.3543, -0.0002 0.0431 -0.3543, -0.0058 0.0425 -0.3543, -0.0078 0.0366 -0.3543, -0.0036 0.0376 -0.3543, 0.0009 0.0008 -0.3543, 0.0144 0.0008 -0.3543, 0.0144 -0.015 -0.3543, 0.0187 -0.015 -0.3543, 0.0192 0.0246 -0.3543, 0.2902 0.5559 -0.3543, 0.0192 0.0236 -0.3543, 0.2902 -0.0188 -0.3543, 0.0189 0.022 -0.3543, 0.2902 -0.5559 -0.3543, 0.0189 -0.5559 -0.3543, 0.0184 0.018 -0.3543, 0.0187 -0.063 -0.3543, 0.0187 -0.0573 -0.3543, -0.0207 -0.0721 -0.3543, -0.2902 -0.5559 -0.3543, -0.0207 -0.0774 -0.3543, 0.0187 -0.0928 -0.3543, 0.0187 -0.087 -0.3543, 0.0076 -0.083 -0.3543, 0.0076 -0.0668 -0.3543, -0.0207 -0.0227 -0.3543, -0.0207 -0.0338 -0.3543, -0.0155 -0.0484 -0.3543, -0.0125 -0.0512 -0.3543, -0.0091 -0.053 -0.3543, 0.0079 -0.0524 -0.3543, 0.0114 -0.0502 -0.3543, 0.0145 -0.0469 -0.3543, 0.0169 -0.0428 -0.3543, -0.0201 -0.0395 -0.3543, -0.0185 -0.0441 -0.3543, -0.0156 -0.0484 -0.3543, 0.0183 -0.0383 -0.3543, 0.0187 -0.0334 -0.3543, 0.0187 -0.0227 -0.3543, -0.0052 -0.0541 -0.3543, -0.0015 -0.0544 -0.3543, 0.0038 -0.0538 -0.3543, -0.315 -0.5807 0.0, -0.315 -0.4528 -0.0, -0.3122 -0.4528 -0.0394, -0.3122 -0.2953 -0.0394, -0.315 0.4528 -0.0, -0.315 0.5807 -0.0, -0.3122 0.4528 -0.0394, -0.3122 0.2953 -0.0394, -0.315 0.2953 -0.0, -0.315 -0.2953 -0.0, -0.3067 0.5724 0.1181, -0.3136 0.4528 0.0197, -0.3136 0.2953 0.0197, -0.3067 -0.5724 0.1181, -0.3136 -0.4528 0.0197, -0.3136 -0.2953 0.0197, 0.315 0.5807 0.0, 0.315 0.4528 0.0, 0.3122 0.4528 -0.0394, 0.315 0.2953 0.0, 0.315 0.0787 0.0, 0.3122 0.2953 -0.0394, 0.3122 0.0787 -0.0394, 0.3122 -0.0787 -0.0394, 0.315 -0.4528 0.0, 0.315 -0.5807 0.0, 0.3122 -0.4528 -0.0394, 0.3122 -0.2953 -0.0394, 0.315 -0.2953 0.0, 0.315 -0.0787 0.0, 0.3136 -0.0787 0.0197, 0.3136 0.0787 0.0197, 0.3067 0.5724 0.1181, 0.3067 -0.5724 0.1181, 0.3136 -0.4528 0.0197, 0.3136 -0.2953 0.0197, 0.3136 0.4528 0.0197, 0.3136 0.2953 0.0197, 0.2356 -0.3984 0.1181, 0.2293 -0.4137 0.1181, 0.2192 -0.4269 0.1181, 0.206 -0.4369 0.1181, 0.1907 -0.4433 0.1181, 0.1743 -0.4454 0.1181, 0.1579 -0.4433 0.1181, 0.1425 -0.4369 0.1181, 0.1907 -0.3206 0.1181, 0.206 -0.327 0.1181, 0.2192 -0.3371 0.1181, 0.1294 -0.4269 0.1181, 0.1193 -0.4137 0.1181, 0.113 -0.3984 0.1181, 0.2293 -0.3502 0.1181, 0.2356 -0.3655 0.1181, 0.2378 -0.382 0.1181, 0.1294 -0.3371 0.1181, 0.1425 -0.327 0.1181, 0.1579 -0.3206 0.1181, 0.1743 -0.3185 0.1181, 0.1108 -0.382 0.1181, 0.113 -0.3655 0.1181, 0.1193 -0.3502 0.1181, 0.1193 -0.3502 0.1181
            ]
        }
        coordIndex [
            0,1,2,-1,3,4,5,-1,5,4,6,-1,6,7,8,-1,9,10,11,-1,0,2,12,-1,12,2,13,-1,12,13,14,-1,15,8,16,-1,16,8,7,-1,16,7,17,-1,17,7,18,-1,19,20,21,-1,21,20,22,-1,21,22,23,-1,24,25,3,-1,3,25,26,-1,3,26,21,-1,11,10,27,-1,27,10,28,-1,27,28,29,-1,23,30,21,-1,21,30,31,-1,21,31,3,-1,3,31,32,-1,3,32,4,-1,32,33,4,-1,4,33,14,-1,4,14,34,-1,34,14,13,-1,34,13,35,-1,36,37,11,-1,11,37,38,-1,11,38,9,-1,1,39,2,-1,2,39,40,-1,2,40,41,-1,42,43,2,-1,2,43,44,-1,45,46,47,-1,47,46,48,-1,44,49,2,-1,2,49,48,-1,2,48,50,-1,50,48,46,-1,28,51,29,-1,29,51,52,-1,29,52,21,-1,21,52,53,-1,21,53,19,-1,41,54,2,-1,2,54,55,-1,2,55,42,-1,56,57,15,-1,15,57,58,-1,15,58,8,-1,8,58,59,-1,8,59,34,-1,11,25,36,-1,36,25,24,-1,36,24,60,-1,60,24,61,-1,60,61,62,-1,62,61,63,-1,62,63,64,-1,65,66,63,-1,63,66,8,-1,63,8,64,-1,64,8,34,-1,64,34,67,-1,67,34,35,-1,68,69,8,-1,5,70,71,-1,71,70,72,-1,71,72,66,-1,66,72,73,-1,66,73,8,-1,8,73,74,-1,8,74,68,-1,68,74,75,-1,68,75,76,-1,6,8,5,-1,5,8,77,-1,5,77,78,-1,79,80,70,-1,70,80,81,-1,82,83,69,-1,69,83,84,-1,69,84,85,-1,78,86,5,-1,5,86,87,-1,5,87,70,-1,70,87,88,-1,70,88,79,-1,85,89,69,-1,69,89,90,-1,69,90,8,-1,8,90,91,-1,8,91,77,-1,81,92,70,-1,70,92,93,-1,70,93,69,-1,69,93,94,-1,69,94,82,-1,95,96,71,-1,71,96,97,-1,71,97,5,-1,5,97,98,-1,99,100,101,-1,101,100,3,-1,101,3,102,-1,102,3,5,-1,102,5,103,-1,103,5,98,-1,103,98,104,-1,105,100,99,-1,99,106,105,-1,105,106,107,-1,105,107,108,-1,96,95,109,-1,109,95,108,-1,109,108,110,-1,110,108,107,-1,110,107,104,-1,104,107,103,-1,111,112,61,-1,61,112,113,-1,61,113,63,-1,114,115,116,-1,116,115,117,-1,118,65,117,-1,117,65,63,-1,117,63,116,-1,116,63,113,-1,119,120,121,-1,121,120,65,-1,121,65,122,-1,122,65,118,-1,122,118,123,-1,123,118,124,-1,125,126,127,-1,120,119,128,-1,128,119,129,-1,128,129,130,-1,123,124,130,-1,130,124,125,-1,130,125,128,-1,128,125,127,-1,112,111,131,-1,131,111,127,-1,131,127,132,-1,132,127,126,-1,132,126,114,-1,114,126,115,-1,3,100,24,-1,24,100,111,-1,24,111,61,-1,95,71,120,-1,120,71,66,-1,120,66,65,-1,105,127,100,-1,100,127,111,-1,128,108,120,-1,120,108,95,-1,133,134,128,-1,128,134,135,-1,128,135,136,-1,136,137,128,-1,128,137,138,-1,128,138,108,-1,108,138,139,-1,108,139,140,-1,141,142,127,-1,127,142,143,-1,140,144,108,-1,108,144,145,-1,108,145,146,-1,143,147,127,-1,127,147,148,-1,127,148,128,-1,128,148,149,-1,128,149,133,-1,150,151,105,-1,105,151,152,-1,105,152,127,-1,127,152,153,-1,127,153,141,-1,146,154,108,-1,108,154,155,-1,108,155,105,-1,105,155,156,-1,105,156,150,-1,
        ]
    }
}
Shape{
    appearance Appearance {
        material  Material 	{
            diffuseColor 1.0 1.0 1.0
            specularColor 0.5019607843137255 0.5019607843137255 0.5019607843137255
            ambientIntensity 0.2
            transparency 0
            shininess 0.5
        }
    }
    geometry IndexedFaceSet {
        ccw TRUE
        solid FALSE
        coord DEF co Coordinate {
            point [
                0.3136 -0.0787 0.0197, 0.333 -0.0787 0.0197, 0.3136 0.0787 0.0197, 0.333 0.0787 0.0197, 0.5512 0.0787 -0.315, 0.4525 0.0787 -0.315, 0.5512 -0.0787 -0.315, 0.4525 -0.0787 -0.315, 0.5512 0.0787 -0.374, 0.5512 -0.0787 -0.374, 0.4525 0.0787 -0.374, 0.4525 -0.0787 -0.374, 0.4332 -0.0787 -0.3716, 0.4332 0.0787 -0.3716, 0.4151 -0.0787 -0.3646, 0.4151 0.0787 -0.3646, 0.3993 -0.0787 -0.3533, 0.3993 0.0787 -0.3533, 0.3867 -0.0787 -0.3385, 0.3867 0.0787 -0.3385, 0.3781 -0.0787 -0.3211, 0.3781 0.0787 -0.3211, 0.374 -0.0787 -0.3021, 0.374 0.0787 -0.3021, 0.3526 0.0787 -0.0573, 0.3526 -0.0787 -0.0573, 0.3516 0.0787 -0.0526, 0.3516 -0.0787 -0.0526, 0.3494 0.0787 -0.0482, 0.3494 -0.0787 -0.0482, 0.3463 0.0787 -0.0445, 0.3463 -0.0787 -0.0445, 0.3423 0.0787 -0.0417, 0.3423 -0.0787 -0.0417, 0.3378 0.0787 -0.04, 0.3378 -0.0787 -0.04, 0.333 0.0787 -0.0394, 0.333 -0.0787 -0.0394, 0.3122 0.0787 -0.0394, 0.3122 -0.0787 -0.0394, 0.3523 -0.0787 0.0173, 0.3523 0.0787 0.0173, 0.3704 -0.0787 0.0103, 0.3704 0.0787 0.0103, 0.3862 -0.0787 -0.001, 0.3862 0.0787 -0.001, 0.3988 -0.0787 -0.0158, 0.3988 0.0787 -0.0158, 0.4074 -0.0787 -0.0332, 0.4074 0.0787 -0.0332, 0.4114 -0.0787 -0.0522, 0.4114 0.0787 -0.0522, 0.4328 0.0787 -0.297, 0.4328 -0.0787 -0.297, 0.4339 0.0787 -0.3017, 0.4339 -0.0787 -0.3017, 0.436 0.0787 -0.3061, 0.436 -0.0787 -0.3061, 0.4392 0.0787 -0.3098, 0.4392 -0.0787 -0.3098, 0.4431 0.0787 -0.3126, 0.4431 -0.0787 -0.3126, 0.4476 0.0787 -0.3144, 0.4476 -0.0787 -0.3144, 0.315 0.0787 0.0, 0.315 -0.0787 0.0, 0.5512 0.4528 -0.315, 0.4525 0.4528 -0.315, 0.5512 0.2953 -0.315, 0.4525 0.2953 -0.315, 0.5512 0.4528 -0.374, 0.5512 0.2953 -0.374, 0.4525 0.4528 -0.374, 0.4525 0.2953 -0.374, 0.4332 0.2953 -0.3716, 0.4332 0.4528 -0.3716, 0.4151 0.2953 -0.3646, 0.4151 0.4528 -0.3646, 0.3993 0.2953 -0.3533, 0.3993 0.4528 -0.3533, 0.3867 0.2953 -0.3385, 0.3867 0.4528 -0.3385, 0.3781 0.2953 -0.3211, 0.3781 0.4528 -0.3211, 0.374 0.2953 -0.3021, 0.374 0.4528 -0.3021, 0.3526 0.4528 -0.0573, 0.3526 0.2953 -0.0573, 0.3516 0.4528 -0.0526, 0.3516 0.2953 -0.0526, 0.3494 0.4528 -0.0482, 0.3494 0.2953 -0.0482, 0.3463 0.4528 -0.0445, 0.3463 0.2953 -0.0445, 0.3423 0.4528 -0.0417, 0.3423 0.2953 -0.0417, 0.3378 0.4528 -0.04, 0.3378 0.2953 -0.04, 0.333 0.4528 -0.0394, 0.333 0.2953 -0.0394, 0.3122 0.4528 -0.0394, 0.3122 0.2953 -0.0394, 0.3136 0.2953 0.0197, 0.333 0.2953 0.0197, 0.3136 0.4528 0.0197, 0.333 0.4528 0.0197, 0.3523 0.2953 0.0173, 0.3523 0.4528 0.0173, 0.3704 0.2953 0.0103, 0.3704 0.4528 0.0103, 0.3862 0.2953 -0.001, 0.3862 0.4528 -0.001, 0.3988 0.2953 -0.0158, 0.3988 0.4528 -0.0158, 0.4074 0.2953 -0.0332, 0.4074 0.4528 -0.0332, 0.4114 0.2953 -0.0522, 0.4114 0.4528 -0.0522, 0.4328 0.4528 -0.297, 0.4328 0.2953 -0.297, 0.315 0.4528 0.0, 0.4476 0.4528 -0.3144, 0.4431 0.4528 -0.3126, 0.4392 0.4528 -0.3098, 0.436 0.4528 -0.3061, 0.4339 0.4528 -0.3017, 0.4339 0.2953 -0.3017, 0.436 0.2953 -0.3061, 0.4392 0.2953 -0.3098, 0.4431 0.2953 -0.3126, 0.4476 0.2953 -0.3144, 0.315 0.2953 0.0, 0.5512 -0.2953 -0.315, 0.4525 -0.2953 -0.315, 0.5512 -0.4528 -0.315, 0.4525 -0.4528 -0.315, 0.5512 -0.2953 -0.374, 0.5512 -0.4528 -0.374, 0.4525 -0.2953 -0.374, 0.4525 -0.4528 -0.374, 0.4332 -0.4528 -0.3716, 0.4332 -0.2953 -0.3716, 0.4151 -0.4528 -0.3646, 0.4151 -0.2953 -0.3646, 0.3993 -0.4528 -0.3533, 0.3993 -0.2953 -0.3533, 0.3867 -0.4528 -0.3385, 0.3867 -0.2953 -0.3385, 0.3781 -0.4528 -0.3211, 0.3781 -0.2953 -0.3211, 0.374 -0.4528 -0.3021, 0.374 -0.2953 -0.3021, 0.3526 -0.2953 -0.0573, 0.3526 -0.4528 -0.0573, 0.3516 -0.2953 -0.0526, 0.3516 -0.4528 -0.0526, 0.3494 -0.2953 -0.0482, 0.3494 -0.4528 -0.0482, 0.3463 -0.2953 -0.0445, 0.3463 -0.4528 -0.0445, 0.3423 -0.2953 -0.0417, 0.3423 -0.4528 -0.0417, 0.3378 -0.2953 -0.04, 0.3378 -0.4528 -0.04, 0.333 -0.2953 -0.0394, 0.333 -0.4528 -0.0394, 0.3122 -0.2953 -0.0394, 0.3122 -0.4528 -0.0394, 0.3136 -0.4528 0.0197, 0.333 -0.4528 0.0197, 0.3136 -0.2953 0.0197, 0.333 -0.2953 0.0197, 0.3523 -0.4528 0.0173, 0.3523 -0.2953 0.0173, 0.3704 -0.4528 0.0103, 0.3704 -0.2953 0.0103, 0.3862 -0.4528 -0.001, 0.3862 -0.2953 -0.001, 0.3988 -0.4528 -0.0158, 0.3988 -0.2953 -0.0158, 0.4074 -0.4528 -0.0332, 0.4074 -0.2953 -0.0332, 0.4114 -0.4528 -0.0522, 0.4114 -0.2953 -0.0522, 0.4328 -0.2953 -0.297, 0.4328 -0.4528 -0.297, 0.315 -0.2953 0.0, 0.4476 -0.2953 -0.3144, 0.4431 -0.2953 -0.3126, 0.4392 -0.2953 -0.3098, 0.436 -0.2953 -0.3061, 0.4339 -0.2953 -0.3017, 0.4339 -0.4528 -0.3017, 0.436 -0.4528 -0.3061, 0.4392 -0.4528 -0.3098, 0.4431 -0.4528 -0.3126, 0.4476 -0.4528 -0.3144, 0.315 -0.4528 0.0, -0.4525 0.4528 -0.315, -0.5512 0.4528 -0.315, -0.4525 0.2953 -0.315, -0.5512 0.2953 -0.315, -0.5512 0.4528 -0.374, -0.5512 0.2953 -0.374, -0.4525 0.4528 -0.374, -0.4525 0.2953 -0.374, -0.374 0.4528 -0.3021, -0.374 0.2953 -0.3021, -0.3781 0.2953 -0.3211, -0.3781 0.4528 -0.3211, -0.3867 0.2953 -0.3385, -0.3867 0.4528 -0.3385, -0.3993 0.2953 -0.3533, -0.3993 0.4528 -0.3533, -0.4151 0.2953 -0.3646, -0.4151 0.4528 -0.3646, -0.4332 0.2953 -0.3716, -0.4332 0.4528 -0.3716, -0.3526 0.4528 -0.0573, -0.3526 0.2953 -0.0573, -0.333 0.4528 -0.0394, -0.333 0.2953 -0.0394, -0.3378 0.4528 -0.04, -0.3378 0.2953 -0.04, -0.3423 0.4528 -0.0417, -0.3423 0.2953 -0.0417, -0.3463 0.4528 -0.0445, -0.3463 0.2953 -0.0445, -0.3494 0.4528 -0.0482, -0.3494 0.2953 -0.0482, -0.3516 0.4528 -0.0526, -0.3516 0.2953 -0.0526, -0.3122 0.4528 -0.0394, -0.3122 0.2953 -0.0394, -0.333 0.2953 0.0197, -0.3136 0.2953 0.0197, -0.333 0.4528 0.0197, -0.3136 0.4528 0.0197, -0.4114 0.4528 -0.0522, -0.4114 0.2953 -0.0522, -0.4074 0.2953 -0.0332, -0.4074 0.4528 -0.0332, -0.3988 0.2953 -0.0158, -0.3988 0.4528 -0.0158, -0.3862 0.2953 -0.001, -0.3862 0.4528 -0.001, -0.3704 0.2953 0.0103, -0.3704 0.4528 0.0103, -0.3523 0.2953 0.0173, -0.3523 0.4528 0.0173, -0.4328 0.4528 -0.297, -0.4328 0.2953 -0.297, -0.315 0.4528 -0.0, -0.4476 0.4528 -0.3144, -0.4431 0.4528 -0.3126, -0.4392 0.4528 -0.3098, -0.436 0.4528 -0.3061, -0.4339 0.4528 -0.3017, -0.4476 0.2953 -0.3144, -0.4431 0.2953 -0.3126, -0.4392 0.2953 -0.3098, -0.436 0.2953 -0.3061, -0.4339 0.2953 -0.3017, -0.315 0.2953 -0.0, -0.4525 -0.2953 -0.315, -0.5512 -0.2953 -0.315, -0.4525 -0.4528 -0.315, -0.5512 -0.4528 -0.315, -0.5512 -0.2953 -0.374, -0.5512 -0.4528 -0.374, -0.4525 -0.2953 -0.374, -0.4525 -0.4528 -0.374, -0.374 -0.2953 -0.3021, -0.374 -0.4528 -0.3021, -0.3781 -0.4528 -0.3211, -0.3781 -0.2953 -0.3211, -0.3867 -0.4528 -0.3385, -0.3867 -0.2953 -0.3385, -0.3993 -0.4528 -0.3533, -0.3993 -0.2953 -0.3533, -0.4151 -0.4528 -0.3646, -0.4151 -0.2953 -0.3646, -0.4332 -0.4528 -0.3716, -0.4332 -0.2953 -0.3716, -0.3526 -0.2953 -0.0573, -0.3526 -0.4528 -0.0573, -0.333 -0.2953 -0.0394, -0.333 -0.4528 -0.0394, -0.3378 -0.2953 -0.04, -0.3378 -0.4528 -0.04, -0.3423 -0.2953 -0.0417, -0.3423 -0.4528 -0.0417, -0.3463 -0.2953 -0.0445, -0.3463 -0.4528 -0.0445, -0.3494 -0.2953 -0.0482, -0.3494 -0.4528 -0.0482, -0.3516 -0.2953 -0.0526, -0.3516 -0.4528 -0.0526, -0.3122 -0.2953 -0.0394, -0.3122 -0.4528 -0.0394, -0.333 -0.4528 0.0197, -0.3136 -0.4528 0.0197, -0.333 -0.2953 0.0197, -0.3136 -0.2953 0.0197, -0.4114 -0.2953 -0.0522, -0.4114 -0.4528 -0.0522, -0.4074 -0.4528 -0.0332, -0.4074 -0.2953 -0.0332, -0.3988 -0.4528 -0.0158, -0.3988 -0.2953 -0.0158, -0.3862 -0.4528 -0.001, -0.3862 -0.2953 -0.001, -0.3704 -0.4528 0.0103, -0.3704 -0.2953 0.0103, -0.3523 -0.4528 0.0173, -0.3523 -0.2953 0.0173, -0.4328 -0.2953 -0.297, -0.4328 -0.4528 -0.297, -0.315 -0.2953 -0.0, -0.4476 -0.2953 -0.3144, -0.4431 -0.2953 -0.3126, -0.4392 -0.2953 -0.3098, -0.436 -0.2953 -0.3061, -0.4339 -0.2953 -0.3017, -0.4476 -0.4528 -0.3144, -0.4431 -0.4528 -0.3126, -0.4392 -0.4528 -0.3098, -0.436 -0.4528 -0.3061, -0.4339 -0.4528 -0.3017, -0.315 -0.4528 -0.0, -0.315 -0.4528 -0.0
            ]
        }
        coordIndex [
            0,1,2,-1,2,1,3,-1,4,5,6,-1,6,5,7,-1,8,4,9,-1,9,4,6,-1,10,8,11,-1,11,8,9,-1,10,11,12,-1,10,12,13,-1,13,12,14,-1,13,14,15,-1,15,14,16,-1,15,16,17,-1,17,16,18,-1,17,18,19,-1,19,18,20,-1,19,20,21,-1,21,20,22,-1,21,22,23,-1,24,23,25,-1,25,23,22,-1,24,25,26,-1,26,25,27,-1,26,27,28,-1,28,27,29,-1,28,29,30,-1,30,29,31,-1,30,31,32,-1,32,31,33,-1,32,33,34,-1,34,33,35,-1,34,35,36,-1,36,35,37,-1,38,36,39,-1,39,36,37,-1,3,1,40,-1,3,40,41,-1,41,40,42,-1,41,42,43,-1,43,42,44,-1,43,44,45,-1,45,44,46,-1,45,46,47,-1,47,46,48,-1,47,48,49,-1,49,48,50,-1,49,50,51,-1,52,51,53,-1,53,51,50,-1,52,53,54,-1,54,53,55,-1,54,55,56,-1,56,55,57,-1,56,57,58,-1,58,57,59,-1,58,59,60,-1,60,59,61,-1,60,61,62,-1,62,61,63,-1,62,63,5,-1,5,63,7,-1,64,2,3,-1,3,41,64,-1,64,41,36,-1,64,36,38,-1,4,8,5,-1,5,8,10,-1,5,10,62,-1,62,10,13,-1,62,13,60,-1,60,13,15,-1,60,15,58,-1,58,15,17,-1,58,17,56,-1,56,17,19,-1,56,19,54,-1,54,19,21,-1,54,21,52,-1,52,21,23,-1,52,23,51,-1,51,23,24,-1,51,24,49,-1,49,24,26,-1,49,26,47,-1,47,26,28,-1,47,28,45,-1,45,28,30,-1,45,30,43,-1,43,30,32,-1,43,32,41,-1,41,32,34,-1,41,34,36,-1,39,40,65,-1,65,40,1,-1,65,1,0,-1,9,6,11,-1,11,6,7,-1,11,7,12,-1,12,7,63,-1,12,63,14,-1,14,63,61,-1,14,61,16,-1,16,61,59,-1,16,59,18,-1,18,59,57,-1,18,57,20,-1,20,57,55,-1,20,55,22,-1,22,55,53,-1,22,53,25,-1,25,53,50,-1,25,50,27,-1,27,50,48,-1,27,48,29,-1,29,48,46,-1,29,46,31,-1,31,46,44,-1,31,44,33,-1,33,44,42,-1,33,42,35,-1,35,42,40,-1,35,40,37,-1,37,40,39,-1,66,67,68,-1,68,67,69,-1,70,66,71,-1,71,66,68,-1,72,70,73,-1,73,70,71,-1,72,73,74,-1,72,74,75,-1,75,74,76,-1,75,76,77,-1,77,76,78,-1,77,78,79,-1,79,78,80,-1,79,80,81,-1,81,80,82,-1,81,82,83,-1,83,82,84,-1,83,84,85,-1,86,85,87,-1,87,85,84,-1,86,87,88,-1,88,87,89,-1,88,89,90,-1,90,89,91,-1,90,91,92,-1,92,91,93,-1,92,93,94,-1,94,93,95,-1,94,95,96,-1,96,95,97,-1,96,97,98,-1,98,97,99,-1,100,98,101,-1,101,98,99,-1,102,103,104,-1,104,103,105,-1,105,103,106,-1,105,106,107,-1,107,106,108,-1,107,108,109,-1,109,108,110,-1,109,110,111,-1,111,110,112,-1,111,112,113,-1,113,112,114,-1,113,114,115,-1,115,114,116,-1,115,116,117,-1,118,117,119,-1,119,117,116,-1,120,104,105,-1,105,107,120,-1,120,107,98,-1,120,98,100,-1,66,70,67,-1,67,70,72,-1,67,72,121,-1,121,72,75,-1,121,75,122,-1,122,75,77,-1,122,77,123,-1,123,77,79,-1,123,79,124,-1,124,79,81,-1,124,81,125,-1,125,81,83,-1,125,83,118,-1,118,83,85,-1,118,85,117,-1,117,85,86,-1,117,86,115,-1,115,86,88,-1,115,88,113,-1,113,88,90,-1,113,90,111,-1,111,90,92,-1,111,92,109,-1,109,92,94,-1,109,94,107,-1,107,94,96,-1,107,96,98,-1,118,119,125,-1,125,119,126,-1,125,126,124,-1,124,126,127,-1,124,127,123,-1,123,127,128,-1,123,128,122,-1,122,128,129,-1,122,129,121,-1,121,129,130,-1,121,130,67,-1,67,130,69,-1,101,106,131,-1,131,106,103,-1,131,103,102,-1,101,99,106,-1,106,99,97,-1,106,97,108,-1,108,97,95,-1,108,95,110,-1,110,95,93,-1,110,93,112,-1,112,93,91,-1,112,91,114,-1,114,91,89,-1,114,89,116,-1,116,89,87,-1,116,87,119,-1,119,87,84,-1,119,84,126,-1,126,84,82,-1,126,82,127,-1,127,82,80,-1,127,80,128,-1,128,80,78,-1,128,78,129,-1,129,78,76,-1,129,76,130,-1,130,76,74,-1,130,74,69,-1,69,74,73,-1,69,73,68,-1,68,73,71,-1,132,133,134,-1,134,133,135,-1,136,132,137,-1,137,132,134,-1,138,136,139,-1,139,136,137,-1,138,139,140,-1,138,140,141,-1,141,140,142,-1,141,142,143,-1,143,142,144,-1,143,144,145,-1,145,144,146,-1,145,146,147,-1,147,146,148,-1,147,148,149,-1,149,148,150,-1,149,150,151,-1,152,151,153,-1,153,151,150,-1,152,153,154,-1,154,153,155,-1,154,155,156,-1,156,155,157,-1,156,157,158,-1,158,157,159,-1,158,159,160,-1,160,159,161,-1,160,161,162,-1,162,161,163,-1,162,163,164,-1,164,163,165,-1,166,164,167,-1,167,164,165,-1,168,169,170,-1,170,169,171,-1,171,169,172,-1,171,172,173,-1,173,172,174,-1,173,174,175,-1,175,174,176,-1,175,176,177,-1,177,176,178,-1,177,178,179,-1,179,178,180,-1,179,180,181,-1,181,180,182,-1,181,182,183,-1,184,183,185,-1,185,183,182,-1,186,170,171,-1,171,173,186,-1,186,173,164,-1,186,164,166,-1,132,136,133,-1,133,136,138,-1,133,138,187,-1,187,138,141,-1,187,141,188,-1,188,141,143,-1,188,143,189,-1,189,143,145,-1,189,145,190,-1,190,145,147,-1,190,147,191,-1,191,147,149,-1,191,149,184,-1,184,149,151,-1,184,151,183,-1,183,151,152,-1,183,152,181,-1,181,152,154,-1,181,154,179,-1,179,154,156,-1,179,156,177,-1,177,156,158,-1,177,158,175,-1,175,158,160,-1,175,160,173,-1,173,160,162,-1,173,162,164,-1,184,185,191,-1,191,185,192,-1,191,192,190,-1,190,192,193,-1,190,193,189,-1,189,193,194,-1,189,194,188,-1,188,194,195,-1,188,195,187,-1,187,195,196,-1,187,196,133,-1,133,196,135,-1,167,172,197,-1,197,172,169,-1,197,169,168,-1,167,165,172,-1,172,165,163,-1,172,163,174,-1,174,163,161,-1,174,161,176,-1,176,161,159,-1,176,159,178,-1,178,159,157,-1,178,157,180,-1,180,157,155,-1,180,155,182,-1,182,155,153,-1,182,153,185,-1,185,153,150,-1,185,150,192,-1,192,150,148,-1,192,148,193,-1,193,148,146,-1,193,146,194,-1,194,146,144,-1,194,144,195,-1,195,144,142,-1,195,142,196,-1,196,142,140,-1,196,140,135,-1,135,140,139,-1,135,139,134,-1,134,139,137,-1,198,199,200,-1,200,199,201,-1,199,202,201,-1,201,202,203,-1,202,204,203,-1,203,204,205,-1,206,207,208,-1,206,208,209,-1,209,208,210,-1,209,210,211,-1,211,210,212,-1,211,212,213,-1,213,212,214,-1,213,214,215,-1,215,214,216,-1,215,216,217,-1,217,216,205,-1,217,205,204,-1,206,218,207,-1,207,218,219,-1,220,221,222,-1,222,221,223,-1,222,223,224,-1,224,223,225,-1,224,225,226,-1,226,225,227,-1,226,227,228,-1,228,227,229,-1,228,229,230,-1,230,229,231,-1,230,231,218,-1,218,231,219,-1,220,232,221,-1,221,232,233,-1,234,235,236,-1,236,235,237,-1,238,239,240,-1,238,240,241,-1,241,240,242,-1,241,242,243,-1,243,242,244,-1,243,244,245,-1,245,244,246,-1,245,246,247,-1,247,246,248,-1,247,248,249,-1,249,248,234,-1,249,234,236,-1,238,250,239,-1,239,250,251,-1,232,249,252,-1,252,249,236,-1,252,236,237,-1,202,199,204,-1,204,199,198,-1,204,198,217,-1,217,198,253,-1,217,253,215,-1,215,253,254,-1,215,254,213,-1,213,254,255,-1,213,255,211,-1,211,255,256,-1,211,256,209,-1,209,256,257,-1,209,257,206,-1,206,257,250,-1,206,250,218,-1,218,250,238,-1,218,238,230,-1,230,238,241,-1,230,241,228,-1,228,241,243,-1,228,243,226,-1,226,243,245,-1,226,245,224,-1,224,245,247,-1,224,247,222,-1,222,247,249,-1,222,249,220,-1,220,249,232,-1,198,200,253,-1,253,200,258,-1,253,258,254,-1,254,258,259,-1,254,259,255,-1,255,259,260,-1,255,260,256,-1,256,260,261,-1,256,261,257,-1,257,261,262,-1,257,262,250,-1,250,262,251,-1,248,263,234,-1,234,263,235,-1,201,203,200,-1,200,203,205,-1,200,205,258,-1,258,205,216,-1,258,216,259,-1,259,216,214,-1,259,214,260,-1,260,214,212,-1,260,212,261,-1,261,212,210,-1,261,210,262,-1,262,210,208,-1,262,208,251,-1,251,208,207,-1,251,207,239,-1,239,207,219,-1,239,219,240,-1,240,219,231,-1,240,231,242,-1,242,231,229,-1,242,229,244,-1,244,229,227,-1,244,227,246,-1,246,227,225,-1,246,225,248,-1,233,263,221,-1,221,263,248,-1,221,248,223,-1,223,248,225,-1,264,265,266,-1,266,265,267,-1,265,268,267,-1,267,268,269,-1,268,270,269,-1,269,270,271,-1,272,273,274,-1,272,274,275,-1,275,274,276,-1,275,276,277,-1,277,276,278,-1,277,278,279,-1,279,278,280,-1,279,280,281,-1,281,280,282,-1,281,282,283,-1,283,282,271,-1,283,271,270,-1,272,284,273,-1,273,284,285,-1,286,287,288,-1,288,287,289,-1,288,289,290,-1,290,289,291,-1,290,291,292,-1,292,291,293,-1,292,293,294,-1,294,293,295,-1,294,295,296,-1,296,295,297,-1,296,297,284,-1,284,297,285,-1,286,298,287,-1,287,298,299,-1,300,301,302,-1,302,301,303,-1,304,305,306,-1,304,306,307,-1,307,306,308,-1,307,308,309,-1,309,308,310,-1,309,310,311,-1,311,310,312,-1,311,312,313,-1,313,312,314,-1,313,314,315,-1,315,314,300,-1,315,300,302,-1,304,316,305,-1,305,316,317,-1,298,315,318,-1,318,315,302,-1,318,302,303,-1,268,265,270,-1,270,265,264,-1,270,264,283,-1,283,264,319,-1,283,319,281,-1,281,319,320,-1,281,320,279,-1,279,320,321,-1,279,321,277,-1,277,321,322,-1,277,322,275,-1,275,322,323,-1,275,323,272,-1,272,323,316,-1,272,316,284,-1,284,316,304,-1,284,304,296,-1,296,304,307,-1,296,307,294,-1,294,307,309,-1,294,309,292,-1,292,309,311,-1,292,311,290,-1,290,311,313,-1,290,313,288,-1,288,313,315,-1,288,315,286,-1,286,315,298,-1,264,266,319,-1,319,266,324,-1,319,324,320,-1,320,324,325,-1,320,325,321,-1,321,325,326,-1,321,326,322,-1,322,326,327,-1,322,327,323,-1,323,327,328,-1,323,328,316,-1,316,328,317,-1,314,329,300,-1,300,329,301,-1,267,269,266,-1,266,269,271,-1,266,271,324,-1,324,271,282,-1,324,282,325,-1,325,282,280,-1,325,280,326,-1,326,280,278,-1,326,278,327,-1,327,278,276,-1,327,276,328,-1,328,276,274,-1,328,274,317,-1,317,274,273,-1,317,273,305,-1,305,273,285,-1,305,285,306,-1,306,285,297,-1,306,297,308,-1,308,297,295,-1,308,295,310,-1,310,295,293,-1,310,293,312,-1,312,293,291,-1,312,291,314,-1,299,329,287,-1,287,329,314,-1,287,314,289,-1,289,314,291,-1,
        ]
    }
}
Shape{
    appearance Appearance {
        material  Material 	{
            diffuseColor 0.0 0.0 0.0
            specularColor 0.0 0.0 0.0
            ambientIntensity 0.2
            transparency 0
            shininess 0.5
        }
    }
    geometry IndexedFaceSet {
        ccw TRUE
        solid FALSE
        coord DEF co Coordinate {
            point [
                0.1743 -0.3185 0.1177, 0.1743 -0.3185 0.1181, 0.1579 -0.3206 0.1177, 0.1579 -0.3206 0.1181, 0.1425 -0.327 0.1177, 0.1425 -0.327 0.1181, 0.1294 -0.3371 0.1177, 0.1294 -0.3371 0.1181, 0.1193 -0.3502 0.1177, 0.1193 -0.3502 0.1181, 0.113 -0.3655 0.1177, 0.113 -0.3655 0.1181, 0.1108 -0.382 0.1177, 0.1108 -0.382 0.1181, 0.113 -0.3984 0.1177, 0.113 -0.3984 0.1181, 0.1193 -0.4137 0.1177, 0.1193 -0.4137 0.1181, 0.1294 -0.4269 0.1177, 0.1294 -0.4269 0.1181, 0.1425 -0.4369 0.1177, 0.1425 -0.4369 0.1181, 0.1579 -0.4433 0.1177, 0.1579 -0.4433 0.1181, 0.1743 -0.4454 0.1177, 0.1743 -0.4454 0.1181, 0.1907 -0.4433 0.1177, 0.1907 -0.4433 0.1181, 0.206 -0.4369 0.1177, 0.206 -0.4369 0.1181, 0.2192 -0.4269 0.1177, 0.2192 -0.4269 0.1181, 0.2293 -0.4137 0.1177, 0.2293 -0.4137 0.1181, 0.2356 -0.3984 0.1177, 0.2356 -0.3984 0.1181, 0.2378 -0.382 0.1177, 0.2378 -0.382 0.1181, 0.2356 -0.3655 0.1177, 0.2356 -0.3655 0.1181, 0.2293 -0.3502 0.1177, 0.2293 -0.3502 0.1181, 0.2192 -0.3371 0.1177, 0.2192 -0.3371 0.1181, 0.206 -0.327 0.1177, 0.206 -0.327 0.1181, 0.1907 -0.3206 0.1177, 0.1907 -0.3206 0.1181, 0.1743 -0.382 0.1177, -0.0207 -0.0774 -0.3539, 0.0187 -0.0928 -0.3539, -0.0207 -0.0774 -0.3543, 0.0187 -0.0928 -0.3543, 0.0187 -0.087 -0.3539, 0.0187 -0.087 -0.3543, 0.0076 -0.083 -0.3539, 0.0076 -0.083 -0.3543, 0.0076 -0.0668 -0.3539, 0.0076 -0.0668 -0.3543, 0.0187 -0.063 -0.3539, 0.0187 -0.063 -0.3543, 0.0187 -0.0573 -0.3539, 0.0187 -0.0573 -0.3543, -0.0207 -0.0721 -0.3539, -0.0207 -0.0721 -0.3543, 0.0033 -0.0681 -0.3539, -0.0131 -0.074 -0.3539, -0.0145 -0.0744 -0.3539, -0.0159 -0.0746 -0.3539, -0.0159 -0.0747 -0.3539, -0.0145 -0.075 -0.3539, -0.0131 -0.0753 -0.3539, 0.0033 -0.0813 -0.3539, 0.0033 -0.0681 -0.3543, 0.0033 -0.0813 -0.3543, -0.0131 -0.074 -0.3543, -0.0145 -0.0744 -0.3543, -0.0159 -0.0746 -0.3543, -0.0159 -0.0747 -0.3543, -0.0145 -0.075 -0.3543, -0.0131 -0.0753 -0.3543, 0.0187 -0.0334 -0.3539, 0.0187 -0.0227 -0.3539, 0.0187 -0.0334 -0.3543, 0.0187 -0.0227 -0.3543, -0.0207 -0.0227 -0.3539, -0.0207 -0.0227 -0.3543, -0.0207 -0.0338 -0.3539, -0.0207 -0.0338 -0.3543, -0.0015 -0.0544 -0.3539, -0.0015 -0.0544 -0.3543, -0.0052 -0.0541 -0.3543, -0.0052 -0.0541 -0.3539, -0.0091 -0.053 -0.3543, -0.0091 -0.053 -0.3539, -0.0125 -0.0512 -0.3543, -0.0125 -0.0512 -0.3539, -0.0155 -0.0484 -0.3543, -0.0155 -0.0484 -0.3539, -0.0156 -0.0484 -0.3543, -0.0156 -0.0484 -0.3539, -0.0185 -0.0441 -0.3543, -0.0185 -0.0441 -0.3539, -0.0201 -0.0395 -0.3543, -0.0201 -0.0395 -0.3539, 0.0183 -0.0383 -0.3543, 0.0183 -0.0383 -0.3539, 0.0169 -0.0428 -0.3543, 0.0169 -0.0428 -0.3539, 0.0145 -0.0469 -0.3543, 0.0145 -0.0469 -0.3539, 0.0114 -0.0502 -0.3543, 0.0114 -0.0502 -0.3539, 0.0079 -0.0524 -0.3543, 0.0079 -0.0524 -0.3539, 0.0038 -0.0538 -0.3543, 0.0038 -0.0538 -0.3539, -0.0108 -0.0465 -0.3539, -0.0129 -0.0446 -0.3539, -0.0147 -0.0417 -0.3539, -0.0159 -0.0384 -0.3539, -0.0164 -0.0338 -0.3539, -0.0164 -0.028 -0.3539, 0.0144 -0.028 -0.3539, 0.0144 -0.0336 -0.3539, 0.014 -0.0377 -0.3539, 0.013 -0.041 -0.3539, 0.0114 -0.0437 -0.3539, 0.0092 -0.0459 -0.3539, 0.0065 -0.0476 -0.3539, 0.0028 -0.0487 -0.3539, -0.0014 -0.0491 -0.3539, -0.0053 -0.0488 -0.3539, -0.0084 -0.0478 -0.3539, -0.0164 -0.0338 -0.3543, -0.0164 -0.028 -0.3543, -0.0159 -0.0384 -0.3543, -0.0147 -0.0417 -0.3543, -0.0129 -0.0446 -0.3543, -0.0108 -0.0465 -0.3543, -0.0084 -0.0478 -0.3543, -0.0053 -0.0488 -0.3543, -0.0014 -0.0491 -0.3543, 0.0028 -0.0487 -0.3543, 0.0065 -0.0476 -0.3543, 0.0092 -0.0459 -0.3543, 0.0114 -0.0437 -0.3543, 0.013 -0.041 -0.3543, 0.014 -0.0377 -0.3543, 0.0144 -0.0336 -0.3543, 0.0144 -0.028 -0.3543, 0.0144 -0.015 -0.3539, 0.0187 -0.015 -0.3539, 0.0144 -0.015 -0.3543, 0.0187 -0.015 -0.3543, 0.0187 0.0061 -0.3539, 0.0187 0.0061 -0.3543, -0.0207 0.0061 -0.3539, -0.0207 0.0061 -0.3543, -0.0207 -0.014 -0.3539, -0.0207 -0.014 -0.3543, -0.0164 -0.014 -0.3539, -0.0164 -0.014 -0.3543, -0.0164 0.0008 -0.3539, -0.0164 0.0008 -0.3543, -0.0034 0.0008 -0.3539, -0.0034 0.0008 -0.3543, -0.0034 -0.0131 -0.3539, -0.0034 -0.0131 -0.3543, 0.0009 -0.0131 -0.3539, 0.0009 -0.0131 -0.3543, 0.0009 0.0008 -0.3539, 0.0009 0.0008 -0.3543, 0.0144 0.0008 -0.3539, 0.0144 0.0008 -0.3543, 0.0123 0.0138 -0.3539, 0.0167 0.0138 -0.3539, 0.0123 0.0138 -0.3543, 0.0167 0.0138 -0.3543, 0.0184 0.018 -0.3539, 0.0192 0.0246 -0.3539, 0.0192 0.0246 -0.3543, 0.0192 0.0236 -0.3543, 0.0192 0.0236 -0.3539, 0.0189 0.022 -0.3543, 0.0184 0.018 -0.3543, 0.0189 0.0269 -0.3543, 0.0187 0.0295 -0.3539, 0.0187 0.0295 -0.3543, 0.0174 0.0333 -0.3539, 0.0174 0.0333 -0.3543, 0.0153 0.0365 -0.3539, 0.0153 0.0365 -0.3543, 0.0122 0.0394 -0.3539, 0.0122 0.0394 -0.3543, 0.0085 0.0415 -0.3539, 0.0085 0.0415 -0.3543, 0.0043 0.0427 -0.3539, 0.0043 0.0427 -0.3543, -0.0002 0.0431 -0.3539, -0.0002 0.0431 -0.3543, -0.0212 0.0231 -0.3539, -0.0212 0.0231 -0.3543, -0.0208 0.027 -0.3543, -0.0208 0.027 -0.3539, -0.0196 0.0314 -0.3543, -0.0196 0.0314 -0.3539, -0.0174 0.0351 -0.3543, -0.0174 0.0351 -0.3539, -0.014 0.0387 -0.3543, -0.014 0.0387 -0.3539, -0.0103 0.041 -0.3543, -0.0103 0.041 -0.3539, -0.0058 0.0425 -0.3543, -0.0058 0.0425 -0.3539, -0.0196 0.0138 -0.3539, -0.0196 0.0138 -0.3543, -0.0208 0.0184 -0.3543, -0.0208 0.0184 -0.3539, -0.0143 0.0138 -0.3539, -0.0143 0.0138 -0.3543, -0.0168 0.023 -0.3539, -0.0168 0.023 -0.3543, -0.0162 0.0182 -0.3543, -0.0162 0.0182 -0.3539, -0.0006 0.0378 -0.3539, -0.0006 0.0378 -0.3543, -0.0036 0.0376 -0.3543, -0.0036 0.0376 -0.3539, -0.0078 0.0366 -0.3543, -0.0078 0.0366 -0.3539, -0.0109 0.0349 -0.3543, -0.0109 0.0349 -0.3539, -0.0135 0.0326 -0.3543, -0.0135 0.0326 -0.3539, -0.0153 0.0298 -0.3543, -0.0153 0.0298 -0.3539, -0.0164 0.0269 -0.3543, -0.0164 0.0269 -0.3539, 0.0149 0.0239 -0.3539, 0.0149 0.0239 -0.3543, 0.0144 0.0276 -0.3543, 0.0144 0.0276 -0.3539, 0.0134 0.0304 -0.3543, 0.0134 0.0304 -0.3539, 0.0118 0.0329 -0.3543, 0.0118 0.0329 -0.3539, 0.0098 0.0347 -0.3543, 0.0098 0.0347 -0.3539, 0.0071 0.0363 -0.3543, 0.0071 0.0363 -0.3539, 0.0037 0.0374 -0.3543, 0.0037 0.0374 -0.3539, 0.0127 0.0145 -0.3543, 0.0127 0.0145 -0.3539, 0.0143 0.0187 -0.3543, 0.0143 0.0187 -0.3539, 0.0144 0.0464 -0.3539, 0.0187 0.0464 -0.3539, 0.0144 0.0464 -0.3543, 0.0187 0.0464 -0.3543, 0.0187 0.0666 -0.3539, 0.0187 0.0666 -0.3543, -0.0207 0.0666 -0.3539, -0.0207 0.0666 -0.3543, -0.0207 0.0613 -0.3539, -0.0207 0.0613 -0.3543, 0.0144 0.0613 -0.3539, 0.0144 0.0613 -0.3543, 0.0144 0.0613 -0.3543
            ]
        }
        coordIndex [
            0,1,2,-1,2,1,3,-1,2,3,4,-1,4,3,5,-1,4,5,6,-1,6,5,7,-1,6,7,8,-1,8,7,9,-1,8,9,10,-1,10,9,11,-1,10,11,12,-1,12,11,13,-1,12,13,14,-1,14,13,15,-1,14,15,16,-1,16,15,17,-1,16,17,18,-1,18,17,19,-1,18,19,20,-1,20,19,21,-1,20,21,22,-1,22,21,23,-1,22,23,24,-1,24,23,25,-1,24,25,26,-1,26,25,27,-1,26,27,28,-1,28,27,29,-1,28,29,30,-1,30,29,31,-1,30,31,32,-1,32,31,33,-1,32,33,34,-1,34,33,35,-1,34,35,36,-1,36,35,37,-1,36,37,38,-1,38,37,39,-1,38,39,40,-1,40,39,41,-1,40,41,42,-1,42,41,43,-1,42,43,44,-1,44,43,45,-1,44,45,46,-1,46,45,47,-1,46,47,0,-1,0,47,1,-1,44,46,48,-1,48,46,0,-1,48,0,2,-1,38,40,48,-1,48,40,42,-1,48,42,44,-1,32,34,48,-1,48,34,36,-1,48,36,38,-1,26,28,48,-1,48,28,30,-1,48,30,32,-1,20,22,48,-1,48,22,24,-1,48,24,26,-1,14,16,48,-1,48,16,18,-1,48,18,20,-1,8,10,48,-1,48,10,12,-1,48,12,14,-1,2,4,48,-1,48,4,6,-1,48,6,8,-1,49,50,51,-1,51,50,52,-1,50,53,52,-1,52,53,54,-1,53,55,54,-1,54,55,56,-1,55,57,56,-1,56,57,58,-1,57,59,58,-1,58,59,60,-1,59,61,60,-1,60,61,62,-1,61,63,62,-1,62,63,64,-1,63,49,64,-1,64,49,51,-1,65,66,63,-1,61,59,57,-1,66,67,63,-1,63,67,68,-1,63,68,49,-1,49,68,69,-1,49,69,70,-1,70,71,49,-1,49,71,72,-1,49,72,50,-1,53,50,55,-1,55,50,72,-1,55,72,57,-1,57,72,65,-1,57,65,61,-1,61,65,63,-1,65,72,73,-1,73,72,74,-1,66,65,75,-1,75,65,73,-1,66,75,76,-1,66,76,67,-1,67,76,77,-1,67,77,68,-1,69,68,78,-1,78,68,77,-1,69,78,79,-1,69,79,70,-1,70,79,80,-1,70,80,71,-1,72,71,74,-1,74,71,80,-1,81,82,83,-1,83,82,84,-1,82,85,84,-1,84,85,86,-1,85,87,86,-1,86,87,88,-1,89,90,91,-1,89,91,92,-1,92,91,93,-1,92,93,94,-1,94,93,95,-1,94,95,96,-1,96,95,97,-1,96,97,98,-1,98,97,99,-1,98,99,100,-1,100,99,101,-1,100,101,102,-1,102,101,103,-1,102,103,104,-1,104,103,88,-1,104,88,87,-1,81,83,105,-1,81,105,106,-1,106,105,107,-1,106,107,108,-1,108,107,109,-1,108,109,110,-1,110,109,111,-1,110,111,112,-1,112,111,113,-1,112,113,114,-1,114,113,115,-1,114,115,116,-1,116,115,90,-1,116,90,89,-1,94,96,117,-1,117,96,98,-1,117,98,118,-1,118,98,100,-1,118,100,119,-1,119,100,102,-1,119,102,120,-1,120,102,104,-1,120,104,121,-1,121,104,87,-1,121,87,122,-1,122,87,85,-1,122,85,123,-1,123,85,82,-1,123,82,124,-1,124,82,81,-1,124,81,125,-1,125,81,106,-1,125,106,126,-1,126,106,108,-1,126,108,127,-1,127,108,110,-1,127,110,128,-1,128,110,112,-1,128,112,129,-1,129,112,114,-1,129,114,130,-1,130,114,116,-1,130,116,131,-1,131,116,89,-1,131,89,132,-1,132,89,92,-1,132,92,133,-1,133,92,94,-1,133,94,117,-1,121,122,134,-1,134,122,135,-1,121,134,136,-1,121,136,120,-1,120,136,137,-1,120,137,119,-1,119,137,138,-1,119,138,118,-1,118,138,139,-1,118,139,117,-1,117,139,140,-1,117,140,133,-1,133,140,141,-1,133,141,132,-1,132,141,142,-1,132,142,131,-1,131,142,143,-1,131,143,130,-1,130,143,144,-1,130,144,129,-1,129,144,145,-1,129,145,128,-1,128,145,146,-1,128,146,127,-1,127,146,147,-1,127,147,126,-1,126,147,148,-1,126,148,125,-1,125,148,149,-1,125,149,124,-1,123,124,150,-1,150,124,149,-1,122,123,135,-1,135,123,150,-1,151,152,153,-1,153,152,154,-1,152,155,154,-1,154,155,156,-1,155,157,156,-1,156,157,158,-1,157,159,158,-1,158,159,160,-1,159,161,160,-1,160,161,162,-1,161,163,162,-1,162,163,164,-1,163,165,164,-1,164,165,166,-1,165,167,166,-1,166,167,168,-1,167,169,168,-1,168,169,170,-1,169,171,170,-1,170,171,172,-1,171,173,172,-1,172,173,174,-1,173,151,174,-1,174,151,153,-1,155,152,151,-1,151,173,155,-1,155,173,171,-1,155,171,157,-1,161,159,163,-1,163,159,157,-1,163,157,165,-1,165,157,171,-1,165,171,167,-1,167,171,169,-1,175,176,177,-1,177,176,178,-1,178,176,179,-1,180,181,182,-1,180,182,183,-1,183,182,184,-1,183,184,179,-1,179,184,185,-1,179,185,178,-1,181,180,186,-1,186,180,187,-1,186,187,188,-1,188,187,189,-1,188,189,190,-1,190,189,191,-1,190,191,192,-1,192,191,193,-1,192,193,194,-1,194,193,195,-1,194,195,196,-1,196,195,197,-1,196,197,198,-1,198,197,199,-1,198,199,200,-1,201,202,203,-1,201,203,204,-1,204,203,205,-1,204,205,206,-1,206,205,207,-1,206,207,208,-1,208,207,209,-1,208,209,210,-1,210,209,211,-1,210,211,212,-1,212,211,213,-1,212,213,214,-1,214,213,200,-1,214,200,199,-1,215,216,217,-1,215,217,218,-1,218,217,202,-1,218,202,201,-1,215,219,216,-1,216,219,220,-1,221,222,223,-1,221,223,224,-1,224,223,220,-1,224,220,219,-1,225,226,227,-1,225,227,228,-1,228,227,229,-1,228,229,230,-1,230,229,231,-1,230,231,232,-1,232,231,233,-1,232,233,234,-1,234,233,235,-1,234,235,236,-1,236,235,237,-1,236,237,238,-1,238,237,222,-1,238,222,221,-1,239,240,241,-1,239,241,242,-1,242,241,243,-1,242,243,244,-1,244,243,245,-1,244,245,246,-1,246,245,247,-1,246,247,248,-1,248,247,249,-1,248,249,250,-1,250,249,251,-1,250,251,252,-1,252,251,226,-1,252,226,225,-1,175,177,253,-1,175,253,254,-1,254,253,255,-1,254,255,256,-1,256,255,240,-1,256,240,239,-1,242,180,239,-1,239,180,183,-1,239,183,256,-1,256,183,179,-1,256,179,254,-1,254,179,176,-1,254,176,175,-1,219,215,224,-1,224,215,218,-1,224,218,221,-1,221,218,201,-1,221,201,238,-1,238,201,204,-1,238,204,236,-1,236,204,206,-1,236,206,234,-1,234,206,208,-1,234,208,232,-1,232,208,210,-1,232,210,230,-1,230,210,212,-1,230,212,228,-1,228,212,214,-1,228,214,225,-1,225,214,199,-1,225,199,252,-1,252,199,197,-1,252,197,250,-1,250,197,195,-1,250,195,248,-1,248,195,193,-1,248,193,246,-1,246,193,191,-1,246,191,244,-1,244,191,189,-1,244,189,242,-1,242,189,187,-1,242,187,180,-1,257,258,259,-1,259,258,260,-1,258,261,260,-1,260,261,262,-1,261,263,262,-1,262,263,264,-1,263,265,264,-1,264,265,266,-1,265,267,266,-1,266,267,268,-1,267,257,268,-1,268,257,259,-1,265,263,267,-1,267,263,261,-1,267,261,257,-1,257,261,258,-1,
        ]
    }
}
Shape{
    appearance Appearance {
        material  Material 	{
            diffuseColor 0.2235294117647059 0.2235294117647059 0.2235294117647059
            specularColor 0.11372549019607843 0.11372549019607843 0.11372549019607843
            ambientIntensity 0.2
            transparency 0
            shininess 0.5
        }
    }
    geometry IndexedFaceSet {
        ccw TRUE
        solid FALSE
        coord DEF co Coordinate {
            point [
                0.0033 -0.0681 -0.3543, 0.0033 -0.0813 -0.3543, -0.0131 -0.074 -0.3543, -0.0131 -0.0753 -0.3543, -0.0145 -0.0744 -0.3543, -0.0145 -0.075 -0.3543, -0.0159 -0.0746 -0.3543, -0.0159 -0.0747 -0.3543, -0.0164 -0.028 -0.3543, 0.0144 -0.028 -0.3543, -0.0164 -0.0338 -0.3543, 0.0144 -0.0336 -0.3543, 0.014 -0.0377 -0.3543, -0.0014 -0.0491 -0.3543, -0.0053 -0.0488 -0.3543, -0.0084 -0.0478 -0.3543, -0.0159 -0.0384 -0.3543, 0.013 -0.041 -0.3543, 0.0114 -0.0437 -0.3543, 0.0092 -0.0459 -0.3543, 0.0065 -0.0476 -0.3543, 0.0028 -0.0487 -0.3543, -0.0108 -0.0465 -0.3543, -0.0129 -0.0446 -0.3543, -0.0147 -0.0417 -0.3543, -0.0147 -0.0417 -0.3543
            ]
        }
        coordIndex [
            0,1,2,-1,2,1,3,-1,2,3,4,-1,4,3,5,-1,4,5,6,-1,6,5,7,-1,8,9,10,-1,10,9,11,-1,10,11,12,-1,13,14,10,-1,10,14,15,-1,10,15,16,-1,12,17,10,-1,10,17,18,-1,10,18,19,-1,19,20,10,-1,10,20,21,-1,10,21,13,-1,22,23,15,-1,15,23,24,-1,15,24,16,-1,
        ]
    }
}